M48
;Layer_Color=9474304
;FILE_FORMAT=2:5
INCH,TZ
;TYPE=PLATED
T1F00S00C0.01181
T2F00S00C0.02500
T3F00S00C0.03543
%
T01
X-36000Y-19500
X-35500Y-13500
X-42691Y-10000
X-48000Y-4000
X-39516Y8984
X-35500Y6500
X-24000Y-7500
X-4500Y500
X-4000Y-19000
X-11000Y-26500
X34500
X34000Y-11500
X36000Y13000
X20260Y38069
X11000Y33000
X-18500Y13000
X-35000Y26000
T02
X41866Y-7500
Y-2500
Y2500
Y7500
T03
X-5000Y-46000
X5000
Y46000
X-5000
X-15000
X15000
M30
