G04*
G04 #@! TF.GenerationSoftware,Altium Limited,Altium Designer,22.0.2 (36)*
G04*
G04 Layer_Color=65535*
%FSLAX25Y25*%
%MOIN*%
G70*
G04*
G04 #@! TF.SameCoordinates,8FA63C8F-8BB1-4B71-A7B0-7D8B7C950947*
G04*
G04*
G04 #@! TF.FilePolarity,Positive*
G04*
G01*
G75*
%ADD10C,0.01000*%
%ADD11C,0.00787*%
D10*
X-9843Y0D02*
G03*
X-9843Y0I-59055J0D01*
G01*
X127953D02*
G03*
X127953Y0I-59055J0D01*
G01*
X-1000Y45499D02*
X-1999Y46499D01*
X-3999D01*
X-4998Y45499D01*
Y41501D01*
X-3999Y40501D01*
X-1999D01*
X-1000Y41501D01*
X1000Y45499D02*
X1999Y46499D01*
X3999D01*
X4998Y45499D01*
Y44500D01*
X3999Y43500D01*
X2999D01*
X3999D01*
X4998Y42500D01*
Y41501D01*
X3999Y40501D01*
X1999D01*
X1000Y41501D01*
X49502Y32501D02*
Y38499D01*
X52501D01*
X53500Y37499D01*
Y35500D01*
X52501Y34500D01*
X49502D01*
X55500Y37499D02*
X56499Y38499D01*
X58499D01*
X59498Y37499D01*
Y36500D01*
X58499Y35500D01*
X57499D01*
X58499D01*
X59498Y34500D01*
Y33501D01*
X58499Y32501D01*
X56499D01*
X55500Y33501D01*
X-88498Y33001D02*
Y38999D01*
X-85499D01*
X-84500Y37999D01*
Y36000D01*
X-85499Y35000D01*
X-88498D01*
X-78502Y33001D02*
X-82500D01*
X-78502Y37000D01*
Y37999D01*
X-79501Y38999D01*
X-81501D01*
X-82500Y37999D01*
X59466Y-37566D02*
Y-31568D01*
X62465D01*
X63464Y-32568D01*
Y-34567D01*
X62465Y-35567D01*
X59466D01*
X69463Y-31568D02*
X67463Y-32568D01*
X65464Y-34567D01*
Y-36566D01*
X66464Y-37566D01*
X68463D01*
X69463Y-36566D01*
Y-35567D01*
X68463Y-34567D01*
X65464D01*
X-78334Y-37566D02*
Y-31568D01*
X-75335D01*
X-74336Y-32568D01*
Y-34567D01*
X-75335Y-35567D01*
X-78334D01*
X-68338Y-31568D02*
X-72336D01*
Y-34567D01*
X-70337Y-33567D01*
X-69337D01*
X-68338Y-34567D01*
Y-36566D01*
X-69337Y-37566D01*
X-71337D01*
X-72336Y-36566D01*
D11*
X1969Y48000D02*
X7400D01*
X1969Y56000D02*
X7400D01*
Y48063D02*
Y55937D01*
X-7350Y48063D02*
Y55937D01*
X-7300Y48000D02*
X-1969D01*
X-7300Y56000D02*
X-1969D01*
X48898Y41000D02*
Y51000D01*
X88898Y51000D01*
X48898Y41000D02*
X88898Y41000D01*
Y51000D01*
X-88898Y41000D02*
Y51000D01*
X-48898Y51000D01*
X-88898Y41000D02*
X-48898Y41000D01*
Y51000D01*
X78898Y-51000D02*
Y-41000D01*
X58898Y-51000D02*
X78898D01*
X58898D02*
Y-41000D01*
X78898D01*
X-58898Y-51000D02*
Y-41000D01*
X-78898Y-51000D02*
X-58898D01*
X-78898D02*
Y-41000D01*
X-58898D01*
M02*
