0
SECTION
2
HEADER
9
$INSUNITS
70
4
9
$ACADVER
1
AC1014
9
$HANDSEED
5
FFFF
0
ENDSEC
0
SECTION
2
TABLES
0
TABLE
2
VPORT
5
8
100
AcDbSymbolTable
0
ENDTAB
0
TABLE
2
LTYPE
5
5
100
AcDbSymbolTable
0
LTYPE
5
14
100
AcDbSymbolTableRecord
100
AcDbLinetypeTableRecord
2
BYBLOCK
70
0
0
LTYPE
5
15
100
AcDbSymbolTableRecord
100
AcDbLinetypeTableRecord
2
BYLAYER
70
0
0
ENDTAB
0
TABLE
2
LAYER
5
2
100
AcDbSymbolTable
70
2
0
LAYER
5
50
100
AcDbSymbolTableRecord
100
AcDbLayerTableRecord
2
0
70
0
6
CONTINUOUS
0
ENDTAB
0
TABLE
2
STYLE
5
3
100
AcDbSymbolTable
70
1
0
STYLE
5
11
100
AcDbSymbolTableRecord
100
AcDbTextStyleTableRecord
2
STANDARD
70
0
0
ENDTAB
0
TABLE
2
VIEW
5
6
100
AcDbSymbolTable
70
0
0
ENDTAB
0
TABLE
2
UCS
5
7
100
AcDbSymbolTable
70
0
0
ENDTAB
0
TABLE
2
APPID
5
9
100
AcDbSymbolTable
70
2
0
APPID
5
12
100
AcDbSymbolTableRecord
100
AcDbRegAppTableRecord
2
ACAD
70
0
0
ENDTAB
0
TABLE
2
DIMSTYLE
5
A
100
AcDbSymbolTable
70
1
0
ENDTAB
0
TABLE
2
BLOCK_RECORD
5
1
100
AcDbSymbolTable
70
1
0
BLOCK_RECORD
5
1F
100
AcDbSymbolTableRecord
100
AcDbBlockTableRecord
2
*MODEL_SPACE
0
BLOCK_RECORD
5
1B
100
AcDbSymbolTableRecord
100
AcDbBlockTableRecord
2
*PAPER_SPACE
0
ENDTAB
0
ENDSEC
0
SECTION
2
BLOCKS
0
BLOCK
5
20
100
AcDbEntity
100
AcDbBlockBegin
2
*MODEL_SPACE
0
ENDBLK
5
21
100
AcDbEntity
100
AcDbBlockEnd
0
BLOCK
5
1C
100
AcDbEntity
100
AcDbBlockBegin
2
*PAPER_SPACE
0
ENDBLK
5
1D
100
AcDbEntity
100
AcDbBlockEnd
0
ENDSEC
0
SECTION
2
ENTITIES
0
SPLINE
5
100
100
AcDbEntity
8
0
100
AcDbSpline
70
0
71
3
72
8
73
4
74
0
42
0.000000001
43
0.0000000001
44
0.0000000001
40
0
40
0
40
0
40
0
40
1
40
1
40
1
40
1
10
6.4352856405149694
20
30.183399950792555
30
0
10
6.4379510169559495
20
32.911593985728622
30
0
10
6.0814131692557405
20
35.352960359540056
30
0
10
5.4731483225433308
20
37.363804773891516
30
0
0
LINE
5
101
100
AcDbEntity
8
0
100
AcDbLine
10
5.4731483225695232
20
37.363804773892774
30
0
11
0.67946139989884191
21
37.363804773892774
31
0
0
LINE
5
102
100
AcDbEntity
8
0
100
AcDbLine
10
0.67946139989884191
20
37.363804773892774
30
0
11
0.67946139989883747
21
17.624901779689996
31
0
0
SPLINE
5
103
100
AcDbEntity
8
0
100
AcDbSpline
70
0
71
3
72
8
73
4
74
0
42
0.000000001
43
0.0000000001
44
0.0000000001
40
3
40
3
40
3
40
3
40
4
40
4
40
4
40
4
10
0.67946139989818466
20
17.624901779689786
30
0
10
4.0181599146808944
20
17.801206446610468
30
0
10
6.428316184166456
20
23.039814124058022
30
0
10
6.4352856405084813
20
30.183399950783141
30
0
0
LINE
5
104
100
AcDbEntity
8
0
100
AcDbLine
10
0.67946139989884191
20
42.730488886120526
30
0
11
0.67946139989884191
21
37.722727603392777
31
0
0
LINE
5
105
100
AcDbEntity
8
0
100
AcDbLine
10
0.67946139989884191
20
37.722727603392777
30
0
11
5.3654312809060212
21
37.722727603392777
31
0
0
SPLINE
5
106
100
AcDbEntity
8
0
100
AcDbSpline
70
0
71
3
72
8
73
4
74
0
42
0.000000001
43
0.0000000001
44
0.0000000001
40
2
40
2
40
2
40
2
40
3
40
3
40
3
40
3
10
5.3654312809057547
20
37.722727603385508
30
0
10
4.312859533180915
20
40.73418109442219
30
0
10
2.6542375927259743
20
42.63035635601176
30
0
10
0.67946139989539134
20
42.730488886137152
30
0
0
LINE
5
107
100
AcDbEntity
8
0
100
AcDbLine
10
-4.3654297472208414
20
37.722725625900225
30
0
11
0.32053857039884281
21
37.722725625900225
31
0
0
LINE
5
108
100
AcDbEntity
8
0
100
AcDbLine
10
0.32053857039884281
20
37.722725625900225
30
0
11
0.32053857039884281
21
42.730488372283489
31
0
0
SPLINE
5
109
100
AcDbEntity
8
0
100
AcDbSpline
70
0
71
3
72
8
73
4
74
0
42
0.000000001
43
0.0000000001
44
0.0000000001
40
2
40
2
40
2
40
2
40
3
40
3
40
3
40
3
10
0.32053857039852751
20
42.730488371579725
30
0
10
-1.654237591171257
20
42.63035522494215
30
0
10
-3.3128589396526298
20
40.734179445541798
30
0
10
-4.3654297472213965
20
37.722725625899265
30
0
0
LINE
5
110
100
AcDbEntity
8
0
100
AcDbLine
10
0.32053857039884281
20
17.624903076365982
30
0
11
0.32053857039884726
21
37.363802796400229
31
0
0
LINE
5
111
100
AcDbEntity
8
0
100
AcDbLine
10
0.32053857039884726
20
37.363802796400229
30
0
11
-4.4731467888843435
21
37.363802796400229
31
0
0
SPLINE
5
112
100
AcDbEntity
8
0
100
AcDbSpline
70
0
71
3
72
11
73
7
74
0
42
0.000000001
43
0.0000000001
44
0.0000000001
40
2
40
2
40
2
40
2
40
3
40
3
40
3
40
4
40
4
40
4
40
4
10
-4.4731467888843657
20
37.363802796400215
30
0
10
-5.0814135223806822
20
35.352958952787226
30
0
10
-5.4379536608255874
20
32.9115929135179
30
0
10
-5.4352908442611092
20
30.183398876082098
30
0
10
-5.4283184447908095
20
23.039813052228979
30
0
10
-3.0181600170203993
20
17.801206367756443
30
0
10
0.32053857039882505
20
17.624903076365975
30
0
0
SPLINE
5
113
100
AcDbEntity
8
0
100
AcDbSpline
70
0
71
3
72
13
73
9
74
0
42
0.000000001
43
0.0000000001
44
0.0000000001
40
0
40
0
40
0
40
0
40
1
40
1
40
2
40
2
40
2
40
3
40
3
40
3
40
3
10
7.50005711427149
20
30.166390950614467
30
0
10
7.5000686422574292
20
22.125394168066919
30
0
10
4.6282920540525696
20
16.56128233528398
30
0
10
-3.6281388120422076
20
16.56127049844067
30
0
10
-6.49993135422819
20
22.12537409694793
30
0
10
-6.4999428822141336
20
30.166370879495478
30
0
10
-6.4999542043431902
20
38.063778433782545
30
0
10
-3.699921989110786
20
43.627890163709708
30
0
10
0.32057614487821073
20
43.807357342448405
30
0
0
LINE
5
114
100
AcDbEntity
8
0
100
AcDbLine
10
0.32057614486339148
20
43.807357342427963
30
0
11
0.32057511554932638
21
44.525303483726816
31
0
0
SPLINE
5
115
100
AcDbEntity
8
0
100
AcDbSpline
70
0
71
3
72
10
73
6
74
0
42
0.000000001
43
0.0000000001
44
0.0000000001
40
4
40
4
40
4
40
4
40
5
40
5
40
6
40
6
40
6
40
6
10
0.320575115549806
20
44.525303483745532
30
0
10
0.32057496112265493
20
44.633020525519157
30
0
10
0.39231923123969281
20
44.704765001347006
30
0
10
0.60775331478628569
20
44.70476531020131
30
0
10
0.67949779061411419
20
44.633021040084259
30
0
10
0.67949794504126526
20
44.525303998310633
30
0
0
LINE
5
116
100
AcDbEntity
8
0
100
AcDbLine
10
0.67949794502672578
20
44.525303998289949
30
0
11
0.67949897434078199
21
43.807357856991104
31
0
0
SPLINE
5
117
100
AcDbEntity
8
0
100
AcDbSpline
70
0
71
3
72
8
73
4
74
0
42
0.000000001
43
0.0000000001
44
0.0000000001
40
7
40
7
40
7
40
7
40
8
40
8
40
8
40
8
10
0.67949897435579221
20
43.807357857011553
30
0
10
4.6999976229151708
20
43.62790220626286
30
0
10
7.50004579213436
20
38.063798504901364
30
0
10
7.5000571142713968
20
30.166390950614304
30
0
0
ENDSEC
0
SECTION
2
OBJECTS
0
DICTIONARY
5
C
100
AcDbDictionary
3
ACAD_GROUP
350
D
3
ACAD_MLINESTYLE
350
17
0
DICTIONARY
5
D
100
AcDbDictionary
0
DICTIONARY
5
1A
330
C
100
AcDbDictionary
0
DICTIONARY
5
17
100
AcDbDictionary
0
ENDSEC
0
EOF
