G04*
G04 #@! TF.GenerationSoftware,Altium Limited,Altium Designer,22.0.2 (36)*
G04*
G04 Layer_Color=8388736*
%FSLAX25Y25*%
%MOIN*%
G70*
G04*
G04 #@! TF.SameCoordinates,D8499874-5A28-4949-BB6A-16219978493D*
G04*
G04*
G04 #@! TF.FilePolarity,Negative*
G04*
G01*
G75*
%ADD18R,0.09849X0.03550*%
%ADD19R,0.05518X0.03943*%
%ADD20R,0.09061X0.05124*%
%ADD21R,0.06306X0.05518*%
%ADD22R,0.05518X0.06306*%
%ADD23R,0.06306X0.05518*%
%ADD24C,0.04337*%
%ADD25R,0.04337X0.04337*%
%ADD26R,0.04337X0.04337*%
%ADD27C,0.04337*%
D18*
X3681Y37248D02*
D03*
X-16004Y29732D02*
D03*
X23366Y22217D02*
D03*
X3681Y14701D02*
D03*
X-16004Y7185D02*
D03*
X23366Y-213D02*
D03*
X3681Y-7850D02*
D03*
X-16004Y-15366D02*
D03*
X23366Y-22882D02*
D03*
X3681Y-30398D02*
D03*
D19*
X-5941Y37051D02*
D03*
X-25626Y29535D02*
D03*
X13744Y22020D02*
D03*
X-5941Y14504D02*
D03*
X-25626Y6988D02*
D03*
X13744Y-410D02*
D03*
X-5941Y-8047D02*
D03*
X-25626Y-15563D02*
D03*
X13744Y-23079D02*
D03*
X-5941Y-30595D02*
D03*
D20*
X-4169Y30461D02*
D03*
X-23854Y22945D02*
D03*
X15516Y15429D02*
D03*
X-4169Y7913D02*
D03*
X-23854Y398D02*
D03*
X15516Y-7000D02*
D03*
X-4169Y-14638D02*
D03*
X-23854Y-22153D02*
D03*
X15516Y-29669D02*
D03*
X-4169Y-37185D02*
D03*
D21*
X5453Y30658D02*
D03*
X-14232Y23142D02*
D03*
X25138Y15626D02*
D03*
X5453Y8110D02*
D03*
X-14232Y594D02*
D03*
X25138Y-6803D02*
D03*
X5453Y-14441D02*
D03*
X-14232Y-21957D02*
D03*
X25138Y-29472D02*
D03*
X5453Y-36988D02*
D03*
D22*
X23425Y33823D02*
D03*
X15945D02*
D03*
X-23425Y-33823D02*
D03*
X-15945D02*
D03*
D23*
X-36500Y23240D02*
D03*
Y15760D02*
D03*
D24*
X39370Y-7500D02*
D03*
Y-2500D02*
D03*
Y2500D02*
D03*
D25*
Y7500D02*
D03*
D26*
X-39370Y5906D02*
D03*
D27*
Y905D02*
D03*
Y-4095D02*
D03*
Y-9094D02*
D03*
M02*
