G04*
G04 #@! TF.GenerationSoftware,Altium Limited,Altium Designer,22.0.2 (36)*
G04*
G04 Layer_Color=32896*
%FSLAX25Y25*%
%MOIN*%
G70*
G04*
G04 #@! TF.SameCoordinates,E55BE46B-2959-4BDD-9443-9F57D387D51D*
G04*
G04*
G04 #@! TF.FilePolarity,Positive*
G04*
G01*
G75*
%ADD10C,0.01000*%
%ADD11C,0.00787*%
%ADD25C,0.00984*%
%ADD26C,0.00800*%
D10*
X4998Y-31999D02*
Y-26001D01*
X1999D01*
X1000Y-27001D01*
Y-29000D01*
X1999Y-30000D01*
X4998D01*
X-1000Y-26001D02*
X-4998D01*
Y-27001D01*
X-1000Y-30999D01*
Y-31999D01*
X-21500Y-65000D02*
X-22500D01*
X-22999Y-64500D01*
Y-63500D01*
X-22500Y-63001D01*
X-21500D01*
X-21000Y-63500D01*
Y-64500D01*
X-21500Y-65000D01*
X-23999Y-63001D02*
Y-64500D01*
X-24499Y-65000D01*
X-25998D01*
Y-63001D01*
X-27498Y-62501D02*
Y-63001D01*
X-26998D01*
X-27998D01*
X-27498D01*
Y-64500D01*
X-27998Y-65000D01*
X27000Y-64500D02*
X26000D01*
X26500D01*
Y-62501D01*
X27000D01*
X24501Y-64500D02*
Y-62501D01*
X23001D01*
X22501Y-63001D01*
Y-64500D01*
X-3000Y-35001D02*
Y-38000D01*
X-4000Y-37000D01*
X-4999Y-38000D01*
Y-35001D01*
X-7998Y-35501D02*
X-7499Y-35001D01*
X-6499D01*
X-5999Y-35501D01*
Y-36001D01*
X-6499Y-36500D01*
X-7499D01*
X-7998Y-37000D01*
Y-37500D01*
X-7499Y-38000D01*
X-6499D01*
X-5999Y-37500D01*
X-10997Y-38000D02*
X-8998D01*
X-10997Y-36001D01*
Y-35501D01*
X-10498Y-35001D01*
X-9498D01*
X-8998Y-35501D01*
X-11997D02*
X-12497Y-35001D01*
X-13497D01*
X-13996Y-35501D01*
Y-36001D01*
X-13497Y-36500D01*
X-13996Y-37000D01*
Y-37500D01*
X-13497Y-38000D01*
X-12497D01*
X-11997Y-37500D01*
Y-37000D01*
X-12497Y-36500D01*
X-11997Y-36001D01*
Y-35501D01*
X-12497Y-36500D02*
X-13497D01*
X-14996Y-38000D02*
X-15996D01*
X-15496D01*
Y-35001D01*
X-14996Y-35501D01*
X-19495Y-38000D02*
X-17495D01*
X-19495Y-36001D01*
Y-35501D01*
X-18995Y-35001D01*
X-17995D01*
X-17495Y-35501D01*
X17001D02*
X17501Y-35001D01*
X18500D01*
X19000Y-35501D01*
Y-36001D01*
X18500Y-36500D01*
X17501D01*
X17001Y-37000D01*
Y-37500D01*
X17501Y-38000D01*
X18500D01*
X19000Y-37500D01*
X16001Y-35001D02*
Y-38000D01*
Y-37000D01*
X14002Y-35001D01*
X15501Y-36500D01*
X14002Y-38000D01*
X11003Y-35001D02*
X12002Y-35501D01*
X13002Y-36500D01*
Y-37500D01*
X12502Y-38000D01*
X11502D01*
X11003Y-37500D01*
Y-37000D01*
X11502Y-36500D01*
X13002D01*
X10003Y-35501D02*
X9503Y-35001D01*
X8503D01*
X8004Y-35501D01*
Y-36001D01*
X8503Y-36500D01*
X8004Y-37000D01*
Y-37500D01*
X8503Y-38000D01*
X9503D01*
X10003Y-37500D01*
Y-37000D01*
X9503Y-36500D01*
X10003Y-36001D01*
Y-35501D01*
X9503Y-36500D02*
X8503D01*
X7004Y-38000D02*
X6004D01*
X6504D01*
Y-35001D01*
X7004Y-35501D01*
X2505Y-38000D02*
X4505D01*
X2505Y-36001D01*
Y-35501D01*
X3005Y-35001D01*
X4005D01*
X4505Y-35501D01*
X69466Y-70366D02*
Y-64368D01*
X66467D01*
X65467Y-65368D01*
Y-67367D01*
X66467Y-68367D01*
X69466D01*
X63468Y-65368D02*
X62468Y-64368D01*
X60469D01*
X59469Y-65368D01*
Y-66367D01*
X60469Y-67367D01*
X59469Y-68367D01*
Y-69366D01*
X60469Y-70366D01*
X62468D01*
X63468Y-69366D01*
Y-68367D01*
X62468Y-67367D01*
X63468Y-66367D01*
Y-65368D01*
X62468Y-67367D02*
X60469D01*
X-32000Y-68001D02*
X-30001D01*
X-31000D01*
Y-72999D01*
X-30001Y-73999D01*
X-29001D01*
X-28001Y-72999D01*
X-33999Y-73999D02*
X-35999D01*
X-34999D01*
Y-68001D01*
X-33999Y-69001D01*
X-22000Y89499D02*
X-20001D01*
X-21001D01*
Y84501D01*
X-20001Y83501D01*
X-19001D01*
X-18002Y84501D01*
X-27998Y83501D02*
X-24000D01*
X-27998Y87500D01*
Y88499D01*
X-26999Y89499D01*
X-24999D01*
X-24000Y88499D01*
D11*
X-19500Y-61500D02*
X20500Y-61500D01*
X-19500Y-41500D02*
X20500Y-41500D01*
Y-61500D02*
Y-41500D01*
X-19500Y-41500D02*
X-19500Y-61500D01*
X58898Y-83740D02*
Y-73740D01*
Y-83740D02*
X78898D01*
Y-73740D01*
X58898D02*
X78898D01*
X-24409Y-90059D02*
X-24409Y-67421D01*
X24409Y-67421D01*
Y-90059D02*
Y-67421D01*
X-24409Y-90059D02*
X24409D01*
X-14567Y67421D02*
Y90059D01*
X14567D01*
Y67421D02*
Y69291D01*
Y76575D02*
Y90059D01*
X-14567Y67421D02*
X14567D01*
D25*
X27067Y-76673D02*
G03*
X27067Y-76673I-492J0D01*
G01*
X5315Y64370D02*
G03*
X5315Y64370I-492J0D01*
G01*
D26*
X23168Y-48500D02*
X26500D01*
X23168Y-45168D01*
Y-44335D01*
X24001Y-43502D01*
X25667D01*
X26500Y-44335D01*
X24500Y-58500D02*
X22834D01*
X23667D01*
Y-53502D01*
X24500Y-54335D01*
X-21500Y-53502D02*
X-24832D01*
Y-54335D01*
X-21500Y-57667D01*
Y-58500D01*
Y-44335D02*
X-22333Y-43502D01*
X-23999D01*
X-24832Y-44335D01*
Y-45168D01*
X-23999Y-46001D01*
X-24832Y-46834D01*
Y-47667D01*
X-23999Y-48500D01*
X-22333D01*
X-21500Y-47667D01*
Y-46834D01*
X-22333Y-46001D01*
X-21500Y-45168D01*
Y-44335D01*
X-22333Y-46001D02*
X-23999D01*
M02*
