G04*
G04 #@! TF.GenerationSoftware,Altium Limited,Altium Designer,22.0.2 (36)*
G04*
G04 Layer_Color=255*
%FSLAX25Y25*%
%MOIN*%
G70*
G04*
G04 #@! TF.SameCoordinates,E55BE46B-2959-4BDD-9443-9F57D387D51D*
G04*
G04*
G04 #@! TF.FilePolarity,Positive*
G04*
G01*
G75*
%ADD12R,0.05118X0.05906*%
%ADD17R,0.05512X0.05512*%
%ADD18C,0.05512*%
%ADD19C,0.04331*%
%ADD20C,0.06102*%
%ADD21R,0.06102X0.06102*%
%ADD22C,0.19685*%
%ADD23C,0.05906*%
%ADD24R,0.05906X0.05906*%
D12*
X3740Y52000D02*
D03*
X-3740D02*
D03*
D17*
X14764Y-76673D02*
D03*
D18*
X4921D02*
D03*
X-4921D02*
D03*
X-14764D02*
D03*
D19*
X11220Y72933D02*
D03*
D20*
X-4921Y80807D02*
D03*
D21*
X4921D02*
D03*
D22*
X118110Y78740D02*
D03*
Y-78740D02*
D03*
X-118110D02*
D03*
Y78740D02*
D03*
D23*
X83898Y46000D02*
D03*
X73898D02*
D03*
X63898D02*
D03*
X-53898D02*
D03*
X-63898D02*
D03*
X-73898D02*
D03*
X-14500Y-46500D02*
D03*
X-14500Y-56500D02*
D03*
X-4500Y-46500D02*
D03*
Y-56500D02*
D03*
X5500Y-46500D02*
D03*
Y-56500D02*
D03*
X15500Y-46500D02*
D03*
X63898Y-78740D02*
D03*
X73898Y-46000D02*
D03*
X-63898D02*
D03*
D24*
X53898Y46000D02*
D03*
X-83898D02*
D03*
X15500Y-56500D02*
D03*
X73898Y-78740D02*
D03*
X63898Y-46000D02*
D03*
X-73898D02*
D03*
M02*
