G04*
G04 #@! TF.GenerationSoftware,Altium Limited,Altium Designer,22.0.2 (36)*
G04*
G04 Layer_Color=32768*
%FSLAX25Y25*%
%MOIN*%
G70*
G04*
G04 #@! TF.SameCoordinates,A2BAE217-5B24-4AA8-B710-955BB0B682E8*
G04*
G04*
G04 #@! TF.FilePolarity,Positive*
G04*
G01*
G75*
%ADD11C,0.01000*%
%ADD33C,0.00394*%
%ADD34C,0.00197*%
D11*
X-7000Y26823D02*
Y40622D01*
X6799Y26823D02*
Y40622D01*
X-7000D02*
X6799D01*
X-7000Y26823D02*
X6799D01*
X-26685Y19307D02*
Y33106D01*
X-12886Y19307D02*
Y33106D01*
X-26685D02*
X-12886D01*
X-26685Y19307D02*
X-12886D01*
X12685Y11791D02*
Y25591D01*
X26484Y11791D02*
Y25591D01*
X12685D02*
X26484D01*
X12685Y11791D02*
X26484D01*
X-7000Y4276D02*
Y18075D01*
X6799Y4276D02*
Y18075D01*
X-7000D02*
X6799D01*
X-7000Y4276D02*
X6799D01*
X-26685Y-3240D02*
Y10559D01*
X-12886Y-3240D02*
Y10559D01*
X-26685D02*
X-12886D01*
X-26685Y-3240D02*
X-12886D01*
X12685Y-10638D02*
Y3161D01*
X26484Y-10638D02*
Y3161D01*
X12685D02*
X26484D01*
X12685Y-10638D02*
X26484D01*
X-7000Y-18276D02*
Y-4476D01*
X6799Y-18276D02*
Y-4476D01*
X-7000D02*
X6799D01*
X-7000Y-18276D02*
X6799D01*
X-26685Y-25791D02*
Y-11992D01*
X-12886Y-25791D02*
Y-11992D01*
X-26685D02*
X-12886D01*
X-26685Y-25791D02*
X-12886D01*
X12685Y-33307D02*
Y-19508D01*
X26484Y-33307D02*
Y-19508D01*
X12685D02*
X26484D01*
X12685Y-33307D02*
X26484D01*
X-7000Y-40823D02*
Y-27024D01*
X6799Y-40823D02*
Y-27024D01*
X-7000D02*
X6799D01*
X-7000Y-40823D02*
X6799D01*
D33*
X39370Y-1969D02*
Y1969D01*
X37402Y0D02*
X41339D01*
D34*
X27362Y10236D02*
X51378D01*
Y-12008D02*
Y10236D01*
X27362Y-12008D02*
X51378D01*
X27362D02*
Y10236D01*
M02*
