M48
;Layer_Color=9474304
;FILE_FORMAT=2:5
INCH,TZ
;TYPE=PLATED
T1F00S00C0.02362
T2F00S00C0.02500
T3F00S00C0.02800
%
T01
X-39370Y-9094
Y-4095
Y905
Y5906
T02
X39370Y-7500
Y-2500
Y2500
Y7500
T03
X13500Y-37000
X4000Y-24000
X14000Y-15000
X25000Y-13500
X32500Y-30000
X-7000Y-21500
X-15540Y-8175
X-25666Y-8056
X-25500Y14500
X-12594Y13594
X-7000Y22500
X-14500Y37000
X-26000Y35500
X-6000Y500
X6500Y-500
X14000Y7500
X7000Y21000
X-1000Y23000
X33000Y15000
M30
