G04*
G04 #@! TF.GenerationSoftware,Altium Limited,Altium Designer,22.0.2 (36)*
G04*
G04 Layer_Physical_Order=2*
G04 Layer_Color=16711680*
%FSLAX25Y25*%
%MOIN*%
G70*
G04*
G04 #@! TF.SameCoordinates,DACE3E57-A7DC-43A8-8EF6-323BCD50BCA6*
G04*
G04*
G04 #@! TF.FilePolarity,Positive*
G04*
G01*
G75*
%ADD26C,0.01500*%
%ADD27C,0.03937*%
%ADD28R,0.03937X0.03937*%
%ADD29C,0.03937*%
%ADD30R,0.03937X0.03937*%
%ADD31C,0.02500*%
G36*
X6852Y57893D02*
X11373Y57177D01*
X15824Y56108D01*
X20178Y54694D01*
X24407Y52942D01*
X28485Y50864D01*
X32388Y48472D01*
X36091Y45782D01*
X39572Y42809D01*
X42809Y39572D01*
X45782Y36091D01*
X48472Y32388D01*
X50864Y28485D01*
X52942Y24407D01*
X54694Y20178D01*
X56108Y15824D01*
X57177Y11373D01*
X57893Y6852D01*
X58252Y2289D01*
Y-2289D01*
X57893Y-6852D01*
X57177Y-11373D01*
X56108Y-15824D01*
X54694Y-20178D01*
X52942Y-24407D01*
X50864Y-28485D01*
X48472Y-32388D01*
X45782Y-36091D01*
X42809Y-39572D01*
X39572Y-42809D01*
X36091Y-45782D01*
X32388Y-48472D01*
X28485Y-50864D01*
X24407Y-52942D01*
X20178Y-54694D01*
X15824Y-56108D01*
X11373Y-57177D01*
X6852Y-57893D01*
X2289Y-58252D01*
X-2289D01*
X-6852Y-57893D01*
X-11373Y-57177D01*
X-15824Y-56108D01*
X-20178Y-54694D01*
X-24407Y-52942D01*
X-28485Y-50864D01*
X-32388Y-48472D01*
X-36091Y-45782D01*
X-39572Y-42809D01*
X-42809Y-39572D01*
X-45782Y-36091D01*
X-48472Y-32388D01*
X-50864Y-28485D01*
X-52942Y-24407D01*
X-54694Y-20178D01*
X-56108Y-15824D01*
X-57177Y-11373D01*
X-57893Y-6852D01*
X-58252Y-2289D01*
Y2289D01*
X-57893Y6852D01*
X-57177Y11373D01*
X-56108Y15824D01*
X-54694Y20178D01*
X-52942Y24407D01*
X-50864Y28485D01*
X-48472Y32388D01*
X-45782Y36091D01*
X-42809Y39572D01*
X-39572Y42809D01*
X-36091Y45782D01*
X-32388Y48472D01*
X-28485Y50864D01*
X-24407Y52942D01*
X-20178Y54694D01*
X-15824Y56108D01*
X-11373Y57177D01*
X-6852Y57893D01*
X-2289Y58252D01*
X2289D01*
X6852Y57893D01*
D02*
G37*
%LPC*%
G36*
X-13500Y48274D02*
X-27500D01*
X-27988Y48177D01*
X-28401Y47901D01*
X-49401Y26901D01*
X-49678Y26488D01*
X-49775Y26000D01*
Y-23000D01*
X-49678Y-23488D01*
X-49401Y-23901D01*
X-29401Y-43901D01*
X-28988Y-44177D01*
X-28500Y-44275D01*
X-16242D01*
X-15683Y-44649D01*
X-15000Y-44784D01*
X-14317Y-44649D01*
X-13738Y-44262D01*
X-13352Y-43683D01*
X-13216Y-43000D01*
X-13352Y-42317D01*
X-13738Y-41738D01*
X-14317Y-41352D01*
X-15000Y-41216D01*
X-15683Y-41352D01*
X-16242Y-41726D01*
X-27972D01*
X-47225Y-22472D01*
Y25472D01*
X-26972Y45726D01*
X-14028D01*
X-9274Y40972D01*
Y39243D01*
X-9648Y38683D01*
X-9784Y38000D01*
X-9648Y37317D01*
X-9262Y36738D01*
X-8683Y36351D01*
X-8000Y36216D01*
X-7317Y36351D01*
X-6738Y36738D01*
X-6352Y37317D01*
X-6216Y38000D01*
X-6352Y38683D01*
X-6725Y39243D01*
Y41500D01*
X-6822Y41988D01*
X-7099Y42401D01*
X-12599Y47901D01*
X-13012Y48177D01*
X-13500Y48274D01*
D02*
G37*
G36*
X10500Y44784D02*
X9817Y44649D01*
X9238Y44262D01*
X8851Y43683D01*
X8716Y43000D01*
X8851Y42317D01*
X9225Y41758D01*
Y27258D01*
X9073Y27030D01*
X8937Y26347D01*
X9073Y25664D01*
X9460Y25085D01*
X10039Y24698D01*
X10722Y24563D01*
X11404Y24698D01*
X11983Y25085D01*
X12370Y25664D01*
X12506Y26347D01*
X12370Y27030D01*
X11983Y27609D01*
X11774Y27748D01*
Y41758D01*
X12149Y42317D01*
X12284Y43000D01*
X12149Y43683D01*
X11762Y44262D01*
X11183Y44649D01*
X10500Y44784D01*
D02*
G37*
G36*
X-14000Y32784D02*
X-14683Y32649D01*
X-15262Y32262D01*
X-15649Y31683D01*
X-15784Y31000D01*
X-15649Y30317D01*
X-15262Y29738D01*
X-14683Y29351D01*
X-14023Y29220D01*
X-3401Y18599D01*
X-2988Y18323D01*
X-2500Y18225D01*
X2258D01*
X2817Y17852D01*
X3500Y17716D01*
X4183Y17852D01*
X4762Y18238D01*
X5148Y18817D01*
X5284Y19500D01*
X5148Y20183D01*
X4762Y20762D01*
X4183Y21148D01*
X3500Y21284D01*
X2817Y21148D01*
X2258Y20775D01*
X-1972D01*
X-12220Y31023D01*
X-12352Y31683D01*
X-12738Y32262D01*
X-13317Y32649D01*
X-14000Y32784D01*
D02*
G37*
G36*
X-34500Y15784D02*
X-35183Y15649D01*
X-35762Y15262D01*
X-36149Y14683D01*
X-36284Y14000D01*
X-36149Y13317D01*
X-35762Y12738D01*
X-35183Y12352D01*
X-34523Y12220D01*
X-29901Y7599D01*
X-29488Y7322D01*
X-29000Y7226D01*
X33257D01*
X33795Y6866D01*
X33859Y6807D01*
X33970Y6334D01*
X30910Y3274D01*
X12381D01*
X12356Y3279D01*
X10285D01*
X10261Y3274D01*
X-33276D01*
X-33763Y3178D01*
X-34177Y2901D01*
X-36413Y665D01*
X-36672Y803D01*
X-36858Y927D01*
X-37045Y1869D01*
X-37590Y2685D01*
X-37967Y2937D01*
X-37816Y3437D01*
X-36902D01*
Y8374D01*
X-41839D01*
Y3437D01*
X-40925D01*
X-40773Y2937D01*
X-41150Y2685D01*
X-41695Y1869D01*
X-41887Y905D01*
X-41695Y-58D01*
X-41150Y-874D01*
X-40488Y-1317D01*
X-40473Y-1358D01*
Y-1831D01*
X-40488Y-1872D01*
X-41150Y-2315D01*
X-41695Y-3131D01*
X-41887Y-4095D01*
X-41695Y-5058D01*
X-41150Y-5874D01*
X-40488Y-6317D01*
X-40473Y-6358D01*
Y-6831D01*
X-40488Y-6872D01*
X-41150Y-7315D01*
X-41695Y-8131D01*
X-41837Y-8845D01*
X-39370D01*
X-36903D01*
X-37045Y-8131D01*
X-37590Y-7315D01*
X-38253Y-6872D01*
X-38267Y-6831D01*
Y-6358D01*
X-38253Y-6317D01*
X-37590Y-5874D01*
X-37045Y-5058D01*
X-36853Y-4095D01*
X-36972Y-3498D01*
X-32748Y726D01*
X-11845D01*
X-11795Y225D01*
X-12183Y149D01*
X-12762Y-238D01*
X-13149Y-817D01*
X-13284Y-1500D01*
X-13149Y-2183D01*
X-12762Y-2762D01*
X-12183Y-3148D01*
X-11500Y-3284D01*
X-10817Y-3148D01*
X-10238Y-2762D01*
X-9851Y-2183D01*
X-9778Y-1814D01*
X-9734Y-1770D01*
X10078D01*
X10638Y-2144D01*
X11321Y-2279D01*
X12004Y-2144D01*
X12583Y-1757D01*
X12969Y-1178D01*
X13105Y-495D01*
X12969Y188D01*
X12904Y285D01*
X13140Y726D01*
X31438D01*
X31926Y823D01*
X32339Y1099D01*
X36143Y4903D01*
X36437Y5099D01*
X37563Y6225D01*
X39398D01*
Y5032D01*
X40312D01*
X40463Y4532D01*
X40086Y4280D01*
X39541Y3463D01*
X39349Y2500D01*
X39468Y1904D01*
X37499Y-64D01*
X37223Y-478D01*
X37126Y-965D01*
Y-11072D01*
X36770Y-11428D01*
X36235Y-11255D01*
X36149Y-10817D01*
X35762Y-10238D01*
X35183Y-9851D01*
X34523Y-9720D01*
X30401Y-5599D01*
X29988Y-5322D01*
X29500Y-5226D01*
X-105D01*
X-232Y-5099D01*
X-646Y-4823D01*
X-1133Y-4725D01*
X-32757D01*
X-33317Y-4352D01*
X-34000Y-4216D01*
X-34683Y-4352D01*
X-35262Y-4738D01*
X-35649Y-5317D01*
X-35784Y-6000D01*
X-35649Y-6683D01*
X-35262Y-7262D01*
X-34683Y-7649D01*
X-34000Y-7784D01*
X-33317Y-7649D01*
X-32757Y-7275D01*
X-1661D01*
X-1534Y-7401D01*
X-1121Y-7677D01*
X-633Y-7774D01*
X28972D01*
X32720Y-11523D01*
X32851Y-12183D01*
X33238Y-12762D01*
X33817Y-13149D01*
X34205Y-13226D01*
X34155Y-13725D01*
X26993D01*
X26434Y-13352D01*
X25751Y-13216D01*
X25068Y-13352D01*
X24489Y-13738D01*
X24102Y-14317D01*
X23967Y-15000D01*
X24102Y-15683D01*
X24489Y-16262D01*
X25068Y-16648D01*
X25751Y-16784D01*
X26434Y-16648D01*
X26993Y-16274D01*
X35000D01*
X35488Y-16177D01*
X35901Y-15901D01*
X39302Y-12501D01*
X39578Y-12087D01*
X39675Y-11599D01*
Y-9496D01*
X40175Y-9339D01*
X40903Y-9825D01*
X41866Y-10017D01*
X42829Y-9825D01*
X43646Y-9280D01*
X44191Y-8463D01*
X44383Y-7500D01*
X44191Y-6537D01*
X43646Y-5720D01*
X42984Y-5278D01*
X42970Y-5237D01*
Y-4764D01*
X42984Y-4722D01*
X43646Y-4280D01*
X44191Y-3463D01*
X44333Y-2750D01*
X41866D01*
Y-2250D01*
X44333D01*
X44191Y-1537D01*
X43646Y-720D01*
X42984Y-278D01*
X42970Y-237D01*
Y237D01*
X42984Y278D01*
X43646Y720D01*
X44191Y1537D01*
X44383Y2500D01*
X44191Y3463D01*
X43646Y4280D01*
X43269Y4532D01*
X43421Y5032D01*
X44335D01*
Y9968D01*
X39398D01*
Y8775D01*
X37036D01*
X36548Y8677D01*
X36222Y8812D01*
X36149Y9183D01*
X35762Y9762D01*
X35183Y10148D01*
X34500Y10284D01*
X33817Y10148D01*
X33257Y9775D01*
X-28472D01*
X-32720Y14023D01*
X-32851Y14683D01*
X-33238Y15262D01*
X-33817Y15649D01*
X-34500Y15784D01*
D02*
G37*
G36*
X-36903Y-9345D02*
X-39120D01*
Y-11562D01*
X-38407Y-11420D01*
X-37590Y-10874D01*
X-37045Y-10058D01*
X-36903Y-9345D01*
D02*
G37*
G36*
X-39620D02*
X-41837D01*
X-41695Y-10058D01*
X-41150Y-10874D01*
X-40333Y-11420D01*
X-39620Y-11562D01*
Y-9345D01*
D02*
G37*
G36*
X3500Y-18716D02*
X2817Y-18851D01*
X2238Y-19238D01*
X1852Y-19817D01*
X1716Y-20500D01*
X1852Y-21183D01*
X2238Y-21762D01*
X2817Y-22149D01*
X3500Y-22284D01*
X4183Y-22149D01*
X4762Y-21762D01*
X5148Y-21183D01*
X5284Y-20500D01*
X5148Y-19817D01*
X4762Y-19238D01*
X4183Y-18851D01*
X3500Y-18716D01*
D02*
G37*
G36*
X-36000Y-13716D02*
X-36683Y-13851D01*
X-37262Y-14238D01*
X-37648Y-14817D01*
X-37784Y-15500D01*
X-37648Y-16183D01*
X-37262Y-16762D01*
X-36683Y-17149D01*
X-36000Y-17284D01*
X-35317Y-17149D01*
X-34758Y-16774D01*
X18472D01*
X33220Y-31523D01*
X33351Y-32183D01*
X33738Y-32762D01*
X34317Y-33149D01*
X35000Y-33284D01*
X35683Y-33149D01*
X36262Y-32762D01*
X36648Y-32183D01*
X36784Y-31500D01*
X36648Y-30817D01*
X36262Y-30238D01*
X35683Y-29851D01*
X35023Y-29720D01*
X19901Y-14599D01*
X19488Y-14322D01*
X19000Y-14225D01*
X-34758D01*
X-35317Y-13851D01*
X-36000Y-13716D01*
D02*
G37*
%LPD*%
D26*
X-27500Y47000D02*
X-13500D01*
X-8000Y38000D02*
Y41500D01*
X-13500Y47000D02*
X-8000Y41500D01*
X-633Y-6500D02*
X29500D01*
X34500Y-11500D01*
X-34000Y-6000D02*
X-1133D01*
X-633Y-6500D01*
X37036Y7500D02*
X41866D01*
X35535Y6000D02*
X37036Y7500D01*
X35438Y6000D02*
X35535D01*
X31438Y2000D02*
X35438Y6000D01*
X-33276Y2000D02*
X10281D01*
X10285Y2005D02*
X12356D01*
X10281Y2000D02*
X10285Y2005D01*
X12361Y2000D02*
X31438D01*
X12356Y2005D02*
X12361Y2000D01*
X-39370Y-4095D02*
X-33276Y2000D01*
X25751Y-15000D02*
X35000D01*
X38401Y-11599D01*
Y-965D01*
X-10262Y-495D02*
X11321D01*
X-11267Y-1500D02*
X-10262Y-495D01*
X-11500Y-1500D02*
X-11267D01*
X38401Y-965D02*
X41866Y2500D01*
X-28500Y-43000D02*
X-15000D01*
X-48500Y-23000D02*
Y26000D01*
Y-23000D02*
X-28500Y-43000D01*
X-48500Y26000D02*
X-27500Y47000D01*
X10500Y26568D02*
X10722Y26347D01*
X10500Y26568D02*
Y43000D01*
X-29000Y8500D02*
X34500D01*
X-34500Y14000D02*
X-29000Y8500D01*
X-2500Y19500D02*
X3500D01*
X-14000Y31000D02*
X-2500Y19500D01*
X19000Y-15500D02*
X35000Y-31500D01*
X-36000Y-15500D02*
X19000D01*
D27*
X41866Y-7500D02*
D03*
Y-2500D02*
D03*
Y2500D02*
D03*
D28*
Y7500D02*
D03*
D29*
X-39370Y-9094D02*
D03*
Y-4095D02*
D03*
Y905D02*
D03*
D30*
Y5906D02*
D03*
D31*
X-11500Y-1500D02*
D03*
X11321Y-495D02*
D03*
X25751Y-15000D02*
D03*
X3500Y-20500D02*
D03*
X-15000Y-43000D02*
D03*
X-8000Y38000D02*
D03*
X10722Y26347D02*
D03*
X10500Y43000D02*
D03*
X-34000Y-6000D02*
D03*
X-34500Y14000D02*
D03*
X3500Y19500D02*
D03*
X-14000Y31000D02*
D03*
X35000Y-31500D02*
D03*
X-36000Y-15500D02*
D03*
X34500Y8500D02*
D03*
Y-11500D02*
D03*
M02*
