G04*
G04 #@! TF.GenerationSoftware,Altium Limited,Altium Designer,22.0.2 (36)*
G04*
G04 Layer_Color=65535*
%FSLAX25Y25*%
%MOIN*%
G70*
G04*
G04 #@! TF.SameCoordinates,BDB2F5B1-1A73-40AD-AC5C-697C241133E4*
G04*
G04*
G04 #@! TF.FilePolarity,Positive*
G04*
G01*
G75*
%ADD10C,0.00787*%
%ADD11C,0.01000*%
D10*
X-16032Y33000D02*
X-10600D01*
X-16032Y41000D02*
X-10600D01*
Y33063D02*
Y40937D01*
X-25350Y33063D02*
Y40937D01*
X-25300Y33000D02*
X-19969D01*
X-25300Y41000D02*
X-19969D01*
X36354Y-8488D02*
Y8988D01*
X37209Y9843D01*
X38205D01*
X36354Y-8488D02*
X38366Y-10500D01*
X47378Y-8488D02*
Y8988D01*
X45366Y-10500D02*
X47378Y-8488D01*
X46524Y9843D02*
X47378Y8988D01*
X45528Y9843D02*
X46524D01*
X45528D02*
X46524D01*
X38366Y-10500D02*
X45366D01*
X-17717Y-37823D02*
X-12385D01*
X-17717Y-29823D02*
X-12385D01*
X-12335Y-37760D02*
Y-29886D01*
X-27085Y-37760D02*
Y-29886D01*
Y-37823D02*
X-21654D01*
X-27085Y-29823D02*
X-21654D01*
X-42913Y-12638D02*
X-35827D01*
Y9449D01*
X-42913D02*
X-35827D01*
X-42913Y-12638D02*
Y9449D01*
X12340Y39500D02*
X17772D01*
X12340Y31500D02*
X17772D01*
X12340Y31563D02*
Y39437D01*
X27090Y31563D02*
Y39437D01*
X21709Y39500D02*
X27040D01*
X21709Y31500D02*
X27040D01*
D11*
X30421Y-2887D02*
Y-2587D01*
X30421Y2713D02*
Y3512D01*
X16622Y2713D02*
Y3512D01*
X30421D01*
X16622Y-3187D02*
Y-2887D01*
Y-10287D02*
X30421D01*
X16622Y9402D02*
X30421D01*
X16622Y16502D02*
Y16802D01*
Y23201D02*
X30421D01*
X16622Y22402D02*
Y23201D01*
X30421Y22402D02*
Y23201D01*
X30421Y16802D02*
Y17102D01*
X6799Y29928D02*
Y30228D01*
X6799Y35528D02*
Y36327D01*
X-7000Y35528D02*
Y36327D01*
X6799D01*
X-7000Y29628D02*
Y29928D01*
Y22528D02*
X6799D01*
X-30622Y15965D02*
X-16823D01*
X-30622Y23065D02*
Y23365D01*
Y29764D02*
X-16823D01*
X-30622Y28965D02*
Y29764D01*
X-16823Y28965D02*
Y29764D01*
X-16823Y23365D02*
Y23665D01*
X-7000Y2839D02*
X6799D01*
X-7000Y9939D02*
Y10239D01*
Y16638D02*
X6799D01*
X-7000Y15839D02*
Y16638D01*
X6799Y15839D02*
Y16638D01*
X6799Y10239D02*
Y10539D01*
X-16823Y3676D02*
Y3976D01*
X-16823Y9276D02*
Y10075D01*
X-30622Y9276D02*
Y10075D01*
X-16823D01*
X-30622Y3376D02*
Y3676D01*
Y-3724D02*
X-16823D01*
X6799Y-9450D02*
Y-9150D01*
X6799Y-3850D02*
Y-3051D01*
X-7000Y-3850D02*
Y-3051D01*
X6799D01*
X-7000Y-9750D02*
Y-9450D01*
Y-16850D02*
X6799D01*
X-30622Y-23413D02*
X-16823D01*
X-30622Y-16313D02*
Y-16013D01*
Y-9614D02*
X-16823D01*
X-30622Y-10413D02*
Y-9614D01*
X-16823Y-10413D02*
Y-9614D01*
X-16823Y-16013D02*
Y-15713D01*
X30421Y-22576D02*
Y-22276D01*
X30421Y-16976D02*
Y-16177D01*
X16622Y-16976D02*
Y-16177D01*
X30421D01*
X16622Y-22876D02*
Y-22576D01*
Y-29976D02*
X30421D01*
X-7000Y-36528D02*
X6799D01*
X-7000Y-29428D02*
Y-29128D01*
Y-22728D02*
X6799D01*
X-7000Y-23528D02*
Y-22728D01*
X6799Y-23528D02*
Y-22728D01*
X6799Y-29128D02*
Y-28828D01*
X35251Y16000D02*
Y13001D01*
X36751D01*
X37251Y13500D01*
Y15500D01*
X36751Y16000D01*
X35251D01*
X38250Y13001D02*
X39250D01*
X38750D01*
Y16000D01*
X38250Y15500D01*
X42749Y13001D02*
X40749D01*
X42749Y15000D01*
Y15500D01*
X42249Y16000D01*
X41249D01*
X40749Y15500D01*
X-31500Y-32500D02*
X-32000Y-32000D01*
X-33000D01*
X-33499Y-32500D01*
Y-34500D01*
X-33000Y-34999D01*
X-32000D01*
X-31500Y-34500D01*
X-30500Y-34999D02*
X-29501D01*
X-30000D01*
Y-32000D01*
X-30500Y-32500D01*
X-6499Y41704D02*
Y38705D01*
X-5000D01*
X-4500Y39205D01*
Y41204D01*
X-5000Y41704D01*
X-6499D01*
X-3500Y38705D02*
X-2501D01*
X-3001D01*
Y41704D01*
X-3500Y41204D01*
X-37499Y33999D02*
Y31001D01*
X-36000D01*
X-35500Y31500D01*
Y33500D01*
X-36000Y33999D01*
X-37499D01*
X-32501Y31001D02*
X-34500D01*
X-32501Y33000D01*
Y33500D01*
X-33001Y33999D01*
X-34000D01*
X-34500Y33500D01*
X10501Y27000D02*
Y24001D01*
X12000D01*
X12500Y24500D01*
Y26500D01*
X12000Y27000D01*
X10501D01*
X13500Y26500D02*
X14000Y27000D01*
X14999D01*
X15499Y26500D01*
Y26000D01*
X14999Y25500D01*
X14500D01*
X14999D01*
X15499Y25000D01*
Y24500D01*
X14999Y24001D01*
X14000D01*
X13500Y24500D01*
X-13499Y21000D02*
Y18000D01*
X-12000D01*
X-11500Y18500D01*
Y20500D01*
X-12000Y21000D01*
X-13499D01*
X-9001Y18000D02*
Y21000D01*
X-10500Y19500D01*
X-8501D01*
X-37499Y14500D02*
Y11501D01*
X-36000D01*
X-35500Y12000D01*
Y14000D01*
X-36000Y14500D01*
X-37499D01*
X-32501D02*
X-34500D01*
Y13000D01*
X-33500Y13500D01*
X-33001D01*
X-32501Y13000D01*
Y12000D01*
X-33001Y11501D01*
X-34000D01*
X-34500Y12000D01*
X10501Y7500D02*
Y4501D01*
X12000D01*
X12500Y5000D01*
Y7000D01*
X12000Y7500D01*
X10501D01*
X15499D02*
X14500Y7000D01*
X13500Y6000D01*
Y5000D01*
X14000Y4501D01*
X14999D01*
X15499Y5000D01*
Y5500D01*
X14999Y6000D01*
X13500D01*
X-12999Y1000D02*
Y-2000D01*
X-11500D01*
X-11000Y-1500D01*
Y500D01*
X-11500Y1000D01*
X-12999D01*
X-10000D02*
X-8001D01*
Y500D01*
X-10000Y-1500D01*
Y-2000D01*
X-39499Y-18500D02*
Y-21499D01*
X-38000D01*
X-37500Y-21000D01*
Y-19000D01*
X-38000Y-18500D01*
X-39499D01*
X-36500Y-19000D02*
X-36000Y-18500D01*
X-35001D01*
X-34501Y-19000D01*
Y-19500D01*
X-35001Y-20000D01*
X-34501Y-20500D01*
Y-21000D01*
X-35001Y-21499D01*
X-36000D01*
X-36500Y-21000D01*
Y-20500D01*
X-36000Y-20000D01*
X-36500Y-19500D01*
Y-19000D01*
X-36000Y-20000D02*
X-35001D01*
X10001Y-13001D02*
Y-16000D01*
X11500D01*
X12000Y-15500D01*
Y-13500D01*
X11500Y-13001D01*
X10001D01*
X13000Y-15500D02*
X13500Y-16000D01*
X14499D01*
X14999Y-15500D01*
Y-13500D01*
X14499Y-13001D01*
X13500D01*
X13000Y-13500D01*
Y-14000D01*
X13500Y-14500D01*
X14999D01*
X-8749Y-39000D02*
Y-42000D01*
X-7249D01*
X-6749Y-41500D01*
Y-39500D01*
X-7249Y-39000D01*
X-8749D01*
X-5750Y-42000D02*
X-4750D01*
X-5250D01*
Y-39000D01*
X-5750Y-39500D01*
X-3251D02*
X-2751Y-39000D01*
X-1751D01*
X-1251Y-39500D01*
Y-41500D01*
X-1751Y-42000D01*
X-2751D01*
X-3251Y-41500D01*
Y-39500D01*
X-50999Y5001D02*
Y7999D01*
X-49500D01*
X-49000Y7500D01*
Y6500D01*
X-49500Y6000D01*
X-50999D01*
X-48000Y5001D02*
X-47001D01*
X-47501D01*
Y7999D01*
X-48000Y7500D01*
X-31499Y37501D02*
Y40499D01*
X-30000D01*
X-29500Y40000D01*
Y39000D01*
X-30000Y38500D01*
X-31499D01*
X-30500D02*
X-29500Y37501D01*
X-28500D02*
X-27501D01*
X-28001D01*
Y40499D01*
X-28500Y40000D01*
X8000Y43000D02*
X7500Y43499D01*
X6501D01*
X6001Y43000D01*
Y41000D01*
X6501Y40501D01*
X7500D01*
X8000Y41000D01*
X10999Y40501D02*
X9000D01*
X10999Y42500D01*
Y43000D01*
X10499Y43499D01*
X9500D01*
X9000Y43000D01*
M02*
