G04*
G04 #@! TF.GenerationSoftware,Altium Limited,Altium Designer,22.0.2 (36)*
G04*
G04 Layer_Color=32768*
%FSLAX25Y25*%
%MOIN*%
G70*
G04*
G04 #@! TF.SameCoordinates,BDB2F5B1-1A73-40AD-AC5C-697C241133E4*
G04*
G04*
G04 #@! TF.FilePolarity,Positive*
G04*
G01*
G75*
%ADD11C,0.01000*%
%ADD33C,0.00394*%
D11*
X16622Y-10287D02*
Y3512D01*
X30421Y-10287D02*
Y3512D01*
X16622D02*
X30421D01*
X16622Y-10287D02*
X30421D01*
X16622Y9402D02*
Y23201D01*
X30421Y9402D02*
Y23201D01*
X16622D02*
X30421D01*
X16622Y9402D02*
X30421D01*
X-7000Y22528D02*
X6799D01*
X-7000Y36327D02*
X6799D01*
Y22528D02*
Y36327D01*
X-7000Y22528D02*
Y36327D01*
X-30622Y15965D02*
X-16823D01*
X-30622Y29764D02*
X-16823D01*
Y15965D02*
Y29764D01*
X-30622Y15965D02*
Y29764D01*
X-7000Y2839D02*
X6799D01*
X-7000Y16638D02*
X6799D01*
Y2839D02*
Y16638D01*
X-7000Y2839D02*
Y16638D01*
X-30622Y-3724D02*
X-16823D01*
X-30622Y10075D02*
X-16823D01*
Y-3724D02*
Y10075D01*
X-30622Y-3724D02*
Y10075D01*
X-7000Y-16850D02*
X6799D01*
X-7000Y-3051D02*
X6799D01*
Y-16850D02*
Y-3051D01*
X-7000Y-16850D02*
Y-3051D01*
X-30622Y-23413D02*
X-16823D01*
X-30622Y-9614D02*
X-16823D01*
Y-23413D02*
Y-9614D01*
X-30622Y-23413D02*
Y-9614D01*
X16622Y-29976D02*
X30421D01*
X16622Y-16177D02*
X30421D01*
Y-29976D02*
Y-16177D01*
X16622Y-29976D02*
Y-16177D01*
X-7000Y-36528D02*
X6799D01*
X-7000Y-22728D02*
X6799D01*
Y-36528D02*
Y-22728D01*
X-7000Y-36528D02*
Y-22728D01*
D33*
X41866Y-1969D02*
Y1969D01*
X39898Y0D02*
X43835D01*
M02*
