M48
;Layer_Color=9474304
;FILE_FORMAT=2:5
INCH,TZ
;TYPE=PLATED
T1F00S00C0.02800
T2F00S00C0.03000
T3F00S00C0.03543
T4F00S00C0.03937
T5F00S00C0.13780
%
T01
X-62059Y-70500
X-66028Y-66000
X-70500Y-62000
X-56500Y-74500
X-52000Y-79500
X-28000Y-52000
X-52000Y-16000
X-75828Y-28672
X3000Y-18500
X-178336Y-35000
X-183500Y-31944
X-187500Y-27472
X-191500Y-23000
X-195500Y-17500
X-183271Y-66771
X-178786Y-62786
X-187500Y-71028
X-191500Y-75500
X-195500Y-81000
T02
X477283Y-46000
X487284
Y46000
X497284
X477283
X467283
X359488
X349488
X339488
X329488
X339488Y-46000
X349488
X211693
X201693
Y46000
X211693
X221693
X191693
X83898
X73898
Y-46000
X63898
Y46000
X53898
X-53898
X-63898
X-73898
X-83898
X-73898Y-46000
X-63898
X-201693
X-211693
Y46000
X-221693
X-201693
X-191693
X-329488
X-339488
X-349488
X-359488
X-349488Y-46000
X-339488
X-477283
X-487284
Y46000
X-497284
X-477283
X-467283
T03
X477283Y-70000
X487284
X285433Y-77067
X275590
X265748
X265591Y-45000
X275591
X285591
X-132795Y-25000
X-142795
Y-15000
Y-5000
Y5000
X-132795Y5000
X-132795Y15000
Y25000
X-142795Y25000
X-142795Y15000
X-132795Y-5000
Y-15000
X-275590Y-15000
Y-25000
Y-5000
Y5000
Y15000
Y25000
X-270591Y-61500
X-280591
T04
X118110Y-31496
X157480
Y31496
X118110
X30000Y29500
Y39500
Y19500
Y9500
Y-500
Y-10500
Y-20500
Y-30500
X-30000
Y-20500
Y-10500
Y-500
Y9500
Y19500
Y29500
Y39500
X132874Y79567
X142717
T05
X531496Y-78740
X0
X-531496
Y78740
X0
X531496
M30
