M48
;Layer_Color=9474304
;FILE_FORMAT=2:5
INCH,TZ
;TYPE=PLATED
T1F00S00C0.03543
T2F00S00C0.03937
;TYPE=NON_PLATED
T3F00S00C0.04331
%
T01
X-14764Y-76673
X-4921
X4921
X14764
X15500Y-56500
X5500Y-56500
X-4500Y-56500
X-14500
X63898Y-78740
X73898
X73898Y-46000
X63898
X63898Y46000
X73898
X83898
X53898
X-53898
X-63898
X-73898
X-83898
X-73898Y-46000
X-63898
X-14500Y-46500
X-4500
X5500Y-46500
X15500Y-46500
T02
X-4921Y80807
X4921
T03
X11220Y72933
M30
