G04*
G04 #@! TF.GenerationSoftware,Altium Limited,Altium Designer,22.0.2 (36)*
G04*
G04 Layer_Physical_Order=2*
G04 Layer_Color=16711680*
%FSLAX25Y25*%
%MOIN*%
G70*
G04*
G04 #@! TF.SameCoordinates,56459691-F754-409E-A27A-4289B83DE6E3*
G04*
G04*
G04 #@! TF.FilePolarity,Positive*
G04*
G01*
G75*
%ADD10C,0.01000*%
%ADD11R,0.06102X0.06102*%
%ADD12C,0.06102*%
%ADD19C,0.05512*%
%ADD20R,0.05512X0.05512*%
%ADD22C,0.06000*%
%ADD23C,0.19685*%
%ADD24R,0.05906X0.05906*%
%ADD25C,0.05906*%
%ADD26R,0.05906X0.05906*%
G04:AMPARAMS|DCode=27|XSize=149.61mil|YSize=86.61mil|CornerRadius=21.65mil|HoleSize=0mil|Usage=FLASHONLY|Rotation=90.000|XOffset=0mil|YOffset=0mil|HoleType=Round|Shape=RoundedRectangle|*
%AMROUNDEDRECTD27*
21,1,0.14961,0.04331,0,0,90.0*
21,1,0.10630,0.08661,0,0,90.0*
1,1,0.04331,0.02165,0.05315*
1,1,0.04331,0.02165,-0.05315*
1,1,0.04331,-0.02165,-0.05315*
1,1,0.04331,-0.02165,0.05315*
%
%ADD27ROUNDEDRECTD27*%
G04:AMPARAMS|DCode=28|XSize=149.61mil|YSize=86.61mil|CornerRadius=21.65mil|HoleSize=0mil|Usage=FLASHONLY|Rotation=180.000|XOffset=0mil|YOffset=0mil|HoleType=Round|Shape=RoundedRectangle|*
%AMROUNDEDRECTD28*
21,1,0.14961,0.04331,0,0,180.0*
21,1,0.10630,0.08661,0,0,180.0*
1,1,0.04331,-0.05315,0.02165*
1,1,0.04331,0.05315,0.02165*
1,1,0.04331,0.05315,-0.02165*
1,1,0.04331,-0.05315,-0.02165*
%
%ADD28ROUNDEDRECTD28*%
%ADD29C,0.05000*%
%ADD30R,0.05118X0.05906*%
G36*
X549417Y89083D02*
X550378Y88122D01*
Y46008D01*
X539928Y35557D01*
X186678D01*
X174928Y23808D01*
X74917D01*
Y42650D01*
X75249Y42739D01*
X76047Y43199D01*
X76698Y43851D01*
X77159Y44649D01*
X77398Y45539D01*
Y46461D01*
X77159Y47351D01*
X76698Y48149D01*
X76047Y48801D01*
X75249Y49262D01*
X74358Y49500D01*
X73437D01*
X72547Y49262D01*
X71749Y48801D01*
X71097Y48149D01*
X70636Y47351D01*
X70398Y46461D01*
Y45539D01*
X70636Y44649D01*
X71097Y43851D01*
X71749Y43199D01*
X72547Y42739D01*
X72878Y42650D01*
Y23808D01*
X68428D01*
X64917Y27318D01*
Y42650D01*
X65249Y42739D01*
X66047Y43199D01*
X66698Y43851D01*
X67159Y44649D01*
X67398Y45539D01*
Y46461D01*
X67159Y47351D01*
X66698Y48149D01*
X66047Y48801D01*
X65249Y49262D01*
X64358Y49500D01*
X63437D01*
X62547Y49262D01*
X61749Y48801D01*
X61097Y48149D01*
X60636Y47351D01*
X60398Y46461D01*
Y45539D01*
X60636Y44649D01*
X61097Y43851D01*
X61749Y43199D01*
X62547Y42739D01*
X62878Y42650D01*
Y30011D01*
X62416Y29819D01*
X58924Y33311D01*
X37928Y54308D01*
X-36572Y54308D01*
X-57572Y33307D01*
X-62878Y33309D01*
Y42650D01*
X-62547Y42739D01*
X-61749Y43199D01*
X-61097Y43851D01*
X-60636Y44649D01*
X-60398Y45539D01*
Y46461D01*
X-60636Y47351D01*
X-61097Y48149D01*
X-61749Y48801D01*
X-62547Y49262D01*
X-63437Y49500D01*
X-64358D01*
X-65249Y49262D01*
X-66047Y48801D01*
X-66698Y48149D01*
X-67159Y47351D01*
X-67398Y46461D01*
Y45539D01*
X-67159Y44649D01*
X-66698Y43851D01*
X-66047Y43199D01*
X-65249Y42739D01*
X-64917Y42650D01*
Y33663D01*
X-65271Y33309D01*
X-67625Y33310D01*
X-72878Y33311D01*
Y42650D01*
X-72547Y42739D01*
X-71749Y43199D01*
X-71097Y43851D01*
X-70636Y44649D01*
X-70398Y45539D01*
Y46461D01*
X-70636Y47351D01*
X-71097Y48149D01*
X-71749Y48801D01*
X-72547Y49262D01*
X-73437Y49500D01*
X-74358D01*
X-75249Y49262D01*
X-76047Y48801D01*
X-76698Y48149D01*
X-77159Y47351D01*
X-77398Y46461D01*
Y45539D01*
X-77159Y44649D01*
X-76698Y43851D01*
X-76047Y43199D01*
X-75249Y42739D01*
X-74917Y42650D01*
Y33665D01*
X-75271Y33312D01*
X-198593Y33339D01*
X-200673Y33340D01*
Y42650D01*
X-200342Y42739D01*
X-199544Y43199D01*
X-198892Y43851D01*
X-198431Y44649D01*
X-198193Y45539D01*
Y46461D01*
X-198431Y47351D01*
X-198892Y48149D01*
X-199544Y48801D01*
X-200342Y49262D01*
X-201232Y49500D01*
X-202154D01*
X-203044Y49262D01*
X-203842Y48801D01*
X-204494Y48149D01*
X-204954Y47351D01*
X-205193Y46461D01*
Y45539D01*
X-204954Y44649D01*
X-204494Y43851D01*
X-203842Y43199D01*
X-203044Y42739D01*
X-202712Y42650D01*
Y33694D01*
X-203066Y33340D01*
X-204520Y33341D01*
X-210673Y33342D01*
Y42650D01*
X-210342Y42739D01*
X-209544Y43199D01*
X-208892Y43851D01*
X-208431Y44649D01*
X-208193Y45539D01*
Y46461D01*
X-208431Y47351D01*
X-208892Y48149D01*
X-209544Y48801D01*
X-210342Y49262D01*
X-211232Y49500D01*
X-212154D01*
X-213044Y49262D01*
X-213842Y48801D01*
X-214494Y48149D01*
X-214954Y47351D01*
X-215193Y46461D01*
Y45539D01*
X-214954Y44649D01*
X-214494Y43851D01*
X-213842Y43199D01*
X-213044Y42739D01*
X-212713Y42650D01*
Y33696D01*
X-213066Y33343D01*
X-262025Y33354D01*
X-350020Y33373D01*
X-350211Y33835D01*
X-341136Y42910D01*
X-340839Y42739D01*
X-339949Y42500D01*
X-339027D01*
X-338137Y42739D01*
X-337339Y43199D01*
X-336687Y43851D01*
X-336227Y44649D01*
X-335988Y45539D01*
Y46461D01*
X-336227Y47351D01*
X-336687Y48149D01*
X-337339Y48801D01*
X-338137Y49262D01*
X-339027Y49500D01*
X-339949D01*
X-340839Y49262D01*
X-341637Y48801D01*
X-342289Y48149D01*
X-342750Y47351D01*
X-342988Y46461D01*
Y45539D01*
X-342750Y44649D01*
X-342578Y44352D01*
X-353556Y33374D01*
X-360017Y33376D01*
X-360209Y33838D01*
X-351136Y42910D01*
X-350839Y42739D01*
X-349949Y42500D01*
X-349027D01*
X-348137Y42739D01*
X-347339Y43199D01*
X-346688Y43851D01*
X-346227Y44649D01*
X-345988Y45539D01*
Y46461D01*
X-346227Y47351D01*
X-346688Y48149D01*
X-347339Y48801D01*
X-348137Y49262D01*
X-349027Y49500D01*
X-349949D01*
X-350839Y49262D01*
X-351637Y48801D01*
X-352289Y48149D01*
X-352750Y47351D01*
X-352988Y46461D01*
Y45539D01*
X-352750Y44649D01*
X-352578Y44352D01*
X-363554Y33377D01*
X-408480Y33387D01*
X-487784Y33405D01*
X-487975Y33867D01*
X-478932Y42910D01*
X-478634Y42739D01*
X-477744Y42500D01*
X-476823D01*
X-475933Y42739D01*
X-475134Y43199D01*
X-474483Y43851D01*
X-474022Y44649D01*
X-473783Y45539D01*
Y46461D01*
X-474022Y47351D01*
X-474483Y48149D01*
X-475134Y48801D01*
X-475933Y49262D01*
X-476823Y49500D01*
X-477744D01*
X-478634Y49262D01*
X-479432Y48801D01*
X-480084Y48149D01*
X-480545Y47351D01*
X-480784Y46461D01*
Y45539D01*
X-480545Y44649D01*
X-480373Y44352D01*
X-491320Y33405D01*
X-497782Y33407D01*
X-497973Y33869D01*
X-488932Y42910D01*
X-488634Y42739D01*
X-487744Y42500D01*
X-486823D01*
X-485932Y42739D01*
X-485134Y43199D01*
X-484483Y43851D01*
X-484022Y44649D01*
X-483783Y45539D01*
Y46461D01*
X-484022Y47351D01*
X-484483Y48149D01*
X-485134Y48801D01*
X-485932Y49262D01*
X-486823Y49500D01*
X-487744D01*
X-488634Y49262D01*
X-489432Y48801D01*
X-490084Y48149D01*
X-490545Y47351D01*
X-490784Y46461D01*
Y45539D01*
X-490545Y44649D01*
X-490373Y44352D01*
X-501318Y33408D01*
X-541572Y33417D01*
X-550378Y42223D01*
Y89680D01*
X-542273Y97622D01*
X540878D01*
X549417Y89083D01*
D02*
G37*
G36*
X-74917Y30036D02*
Y-3975D01*
X-108922Y-37980D01*
X-176499D01*
X-176633Y-37480D01*
X-176494Y-37401D01*
X-175936Y-36842D01*
X-175541Y-36158D01*
X-175336Y-35395D01*
Y-34605D01*
X-175541Y-33842D01*
X-175612Y-33718D01*
X-157914Y-16020D01*
X-146097D01*
X-146013Y-16333D01*
X-145558Y-17120D01*
X-144915Y-17763D01*
X-144128Y-18217D01*
X-143250Y-18453D01*
X-142341D01*
X-141463Y-18217D01*
X-140675Y-17763D01*
X-140032Y-17120D01*
X-139578Y-16333D01*
X-139343Y-15455D01*
Y-14545D01*
X-139578Y-13667D01*
X-140032Y-12880D01*
X-140675Y-12237D01*
X-141463Y-11783D01*
X-142341Y-11547D01*
X-143250D01*
X-144128Y-11783D01*
X-144915Y-12237D01*
X-145558Y-12880D01*
X-146013Y-13667D01*
X-146097Y-13980D01*
X-158336D01*
X-158727Y-14058D01*
X-159057Y-14279D01*
X-177054Y-32276D01*
X-177179Y-32204D01*
X-177942Y-32000D01*
X-178731D01*
X-179494Y-32204D01*
X-180029Y-32513D01*
X-180252Y-32431D01*
X-180440Y-32301D01*
X-180500Y-32233D01*
Y-31549D01*
X-180704Y-30786D01*
X-180776Y-30662D01*
X-156133Y-6020D01*
X-146097D01*
X-146013Y-6333D01*
X-145558Y-7120D01*
X-144915Y-7763D01*
X-144128Y-8217D01*
X-143250Y-8453D01*
X-142341D01*
X-141463Y-8217D01*
X-140675Y-7763D01*
X-140032Y-7120D01*
X-139578Y-6333D01*
X-139343Y-5455D01*
Y-4545D01*
X-139578Y-3667D01*
X-140032Y-2880D01*
X-140675Y-2237D01*
X-141463Y-1783D01*
X-142341Y-1547D01*
X-143250D01*
X-144128Y-1783D01*
X-144915Y-2237D01*
X-145558Y-2880D01*
X-146013Y-3667D01*
X-146097Y-3980D01*
X-156556D01*
X-156946Y-4058D01*
X-157277Y-4279D01*
X-182218Y-29220D01*
X-182342Y-29149D01*
X-183105Y-28944D01*
X-183895D01*
X-184384Y-29075D01*
X-184714Y-28646D01*
X-184704Y-28630D01*
X-184500Y-27867D01*
Y-27077D01*
X-184704Y-26314D01*
X-185099Y-25630D01*
X-185658Y-25071D01*
X-186342Y-24677D01*
X-186480Y-24640D01*
Y-13922D01*
X-168578Y3980D01*
X-146097D01*
X-146013Y3667D01*
X-145558Y2880D01*
X-144915Y2237D01*
X-144128Y1783D01*
X-143250Y1547D01*
X-142341D01*
X-141463Y1783D01*
X-140675Y2237D01*
X-140032Y2880D01*
X-139578Y3667D01*
X-139343Y4545D01*
Y5455D01*
X-139578Y6333D01*
X-140032Y7120D01*
X-140675Y7763D01*
X-141463Y8217D01*
X-142341Y8453D01*
X-143250D01*
X-144128Y8217D01*
X-144915Y7763D01*
X-145558Y7120D01*
X-146013Y6333D01*
X-146097Y6020D01*
X-169000D01*
X-169390Y5942D01*
X-169721Y5721D01*
X-188221Y-12779D01*
X-188442Y-13110D01*
X-188520Y-13500D01*
Y-21162D01*
X-189020Y-21296D01*
X-189099Y-21158D01*
X-189658Y-20599D01*
X-190342Y-20204D01*
X-190480Y-20167D01*
Y-4922D01*
X-171578Y13980D01*
X-146097D01*
X-146013Y13667D01*
X-145558Y12880D01*
X-144915Y12237D01*
X-144128Y11783D01*
X-143250Y11547D01*
X-142341D01*
X-141463Y11783D01*
X-140675Y12237D01*
X-140032Y12880D01*
X-139578Y13667D01*
X-139343Y14546D01*
Y15455D01*
X-139578Y16333D01*
X-140032Y17120D01*
X-140675Y17763D01*
X-141463Y18217D01*
X-142341Y18453D01*
X-143250D01*
X-144128Y18217D01*
X-144915Y17763D01*
X-145558Y17120D01*
X-146013Y16333D01*
X-146097Y16020D01*
X-172000D01*
X-172390Y15942D01*
X-172721Y15721D01*
X-192221Y-3779D01*
X-192442Y-4110D01*
X-192520Y-4500D01*
Y-15662D01*
X-193020Y-15796D01*
X-193099Y-15658D01*
X-193658Y-15099D01*
X-194342Y-14704D01*
X-194480Y-14667D01*
Y1078D01*
X-171578Y23980D01*
X-146097D01*
X-146013Y23667D01*
X-145558Y22880D01*
X-144915Y22237D01*
X-144128Y21783D01*
X-143250Y21547D01*
X-142341D01*
X-141463Y21783D01*
X-140675Y22237D01*
X-140032Y22880D01*
X-139578Y23667D01*
X-139343Y24545D01*
Y25455D01*
X-139578Y26333D01*
X-140032Y27120D01*
X-140675Y27763D01*
X-141463Y28218D01*
X-142341Y28453D01*
X-143250D01*
X-144128Y28218D01*
X-144915Y27763D01*
X-145558Y27120D01*
X-146013Y26333D01*
X-146097Y26020D01*
X-172000D01*
X-172390Y25942D01*
X-172721Y25721D01*
X-196221Y2221D01*
X-196442Y1890D01*
X-196520Y1500D01*
Y-14667D01*
X-196658Y-14704D01*
X-197342Y-15099D01*
X-197901Y-15658D01*
X-198296Y-16342D01*
X-198500Y-17105D01*
Y-17895D01*
X-198296Y-18658D01*
X-197901Y-19342D01*
X-197342Y-19901D01*
X-196658Y-20296D01*
X-195895Y-20500D01*
X-195105D01*
X-194342Y-20296D01*
X-193658Y-19901D01*
X-193099Y-19342D01*
X-193020Y-19204D01*
X-192520Y-19338D01*
Y-20167D01*
X-192658Y-20204D01*
X-193342Y-20599D01*
X-193901Y-21158D01*
X-194296Y-21842D01*
X-194500Y-22605D01*
Y-23395D01*
X-194296Y-24158D01*
X-193901Y-24842D01*
X-193342Y-25401D01*
X-192658Y-25796D01*
X-191895Y-26000D01*
X-191105D01*
X-190616Y-25869D01*
X-190286Y-26298D01*
X-190296Y-26314D01*
X-190500Y-27077D01*
Y-27867D01*
X-190296Y-28630D01*
X-189901Y-29314D01*
X-189342Y-29873D01*
X-188658Y-30268D01*
X-187895Y-30472D01*
X-187105D01*
X-186616Y-30341D01*
X-186286Y-30770D01*
X-186296Y-30786D01*
X-186500Y-31549D01*
Y-32339D01*
X-186296Y-33102D01*
X-185901Y-33786D01*
X-185342Y-34345D01*
X-184658Y-34740D01*
X-183895Y-34944D01*
X-183105D01*
X-182342Y-34740D01*
X-181807Y-34431D01*
X-181584Y-34514D01*
X-181396Y-34643D01*
X-181336Y-34712D01*
Y-35395D01*
X-181132Y-36158D01*
X-180737Y-36842D01*
X-180178Y-37401D01*
X-180040Y-37480D01*
X-180174Y-37980D01*
X-201057D01*
X-201447Y-38058D01*
X-201778Y-38279D01*
X-207615Y-44116D01*
X-208739D01*
X-208892Y-43851D01*
X-209544Y-43199D01*
X-210342Y-42739D01*
X-211232Y-42500D01*
X-212154D01*
X-213044Y-42739D01*
X-213842Y-43199D01*
X-214494Y-43851D01*
X-214954Y-44649D01*
X-215193Y-45539D01*
Y-46461D01*
X-214954Y-47351D01*
X-214494Y-48149D01*
X-213842Y-48801D01*
X-213531Y-48980D01*
X-213665Y-49480D01*
X-337516D01*
X-337650Y-48980D01*
X-337339Y-48801D01*
X-336687Y-48149D01*
X-336227Y-47351D01*
X-336138Y-47020D01*
X-264500D01*
X-264110Y-46942D01*
X-263779Y-46721D01*
X-200972Y16086D01*
X-200751Y16417D01*
X-200673Y16807D01*
Y29943D01*
X-200319Y30296D01*
X-74917Y30036D01*
D02*
G37*
G36*
X66000Y20000D02*
X72878D01*
Y-4822D01*
X65417Y-12283D01*
X64917Y-12076D01*
Y20429D01*
X65379Y20621D01*
X66000Y20000D01*
D02*
G37*
G36*
X-41153Y17335D02*
X-41061Y16639D01*
X-40793Y15991D01*
X-40365Y15434D01*
X-39809Y15007D01*
X-39213Y14760D01*
X-39160Y14599D01*
Y14401D01*
X-39213Y14241D01*
X-39809Y13994D01*
X-40365Y13566D01*
X-40793Y13010D01*
X-41061Y12361D01*
X-41153Y11665D01*
Y7335D01*
X-41061Y6639D01*
X-40793Y5991D01*
X-40365Y5434D01*
X-39809Y5006D01*
X-39213Y4760D01*
X-39160Y4599D01*
Y4401D01*
X-39213Y4241D01*
X-39809Y3994D01*
X-40365Y3566D01*
X-40793Y3009D01*
X-41061Y2361D01*
X-41153Y1665D01*
Y-2665D01*
X-41061Y-3361D01*
X-40793Y-4010D01*
X-40365Y-4566D01*
X-39809Y-4993D01*
X-39213Y-5240D01*
X-39160Y-5401D01*
Y-5599D01*
X-39213Y-5759D01*
X-39809Y-6007D01*
X-40365Y-6434D01*
X-40793Y-6990D01*
X-41061Y-7639D01*
X-41153Y-8335D01*
Y-12665D01*
X-41061Y-13361D01*
X-40793Y-14009D01*
X-40365Y-14566D01*
X-39809Y-14994D01*
X-39213Y-15240D01*
X-39160Y-15401D01*
Y-15599D01*
X-39213Y-15759D01*
X-39809Y-16006D01*
X-40365Y-16434D01*
X-40793Y-16991D01*
X-41061Y-17639D01*
X-41153Y-18335D01*
Y-19480D01*
X-51466D01*
X-51532Y-18980D01*
X-50842Y-18796D01*
X-50158Y-18401D01*
X-49599Y-17842D01*
X-49204Y-17158D01*
X-49000Y-16395D01*
Y-15605D01*
X-49204Y-14842D01*
X-49599Y-14158D01*
X-50158Y-13599D01*
X-50842Y-13204D01*
X-50980Y-13167D01*
Y12078D01*
X-44578Y18480D01*
X-41153D01*
Y17335D01*
D02*
G37*
G36*
X-59358Y30004D02*
X-57096Y29999D01*
X-56905Y29537D01*
X-59221Y27221D01*
X-59442Y26890D01*
X-59520Y26500D01*
Y-10921D01*
X-74546Y-25948D01*
X-74670Y-25876D01*
X-75433Y-25672D01*
X-76223D01*
X-76986Y-25876D01*
X-77671Y-26271D01*
X-78229Y-26829D01*
X-78624Y-27514D01*
X-78828Y-28277D01*
Y-29067D01*
X-78624Y-29829D01*
X-78229Y-30514D01*
X-77671Y-31072D01*
X-76986Y-31467D01*
X-76223Y-31672D01*
X-75433D01*
X-75279Y-31630D01*
X-75020Y-32079D01*
X-92422Y-49480D01*
X-199721D01*
X-199855Y-48980D01*
X-199544Y-48801D01*
X-198892Y-48149D01*
X-198431Y-47351D01*
X-198343Y-47020D01*
X-100500D01*
X-100110Y-46942D01*
X-99779Y-46721D01*
X-63177Y-10119D01*
X-62956Y-9788D01*
X-62878Y-9398D01*
Y29657D01*
X-62524Y30010D01*
X-59358Y30004D01*
D02*
G37*
G36*
X35500Y50500D02*
X62878Y23122D01*
Y-11994D01*
X41574Y-33298D01*
X41100Y-33064D01*
X41153Y-32665D01*
Y-28335D01*
X41061Y-27639D01*
X40793Y-26991D01*
X40365Y-26434D01*
X39809Y-26006D01*
X39213Y-25760D01*
X39160Y-25599D01*
Y-25401D01*
X39213Y-25240D01*
X39809Y-24994D01*
X40365Y-24566D01*
X40793Y-24010D01*
X41061Y-23361D01*
X41153Y-22665D01*
Y-18335D01*
X41061Y-17639D01*
X40793Y-16991D01*
X40365Y-16434D01*
X39809Y-16006D01*
X39213Y-15759D01*
X39160Y-15599D01*
Y-15401D01*
X39213Y-15240D01*
X39809Y-14994D01*
X40365Y-14566D01*
X40793Y-14009D01*
X41061Y-13361D01*
X41153Y-12665D01*
Y-8335D01*
X41061Y-7639D01*
X40793Y-6990D01*
X40365Y-6434D01*
X39809Y-6007D01*
X39213Y-5759D01*
X39160Y-5599D01*
Y-5401D01*
X39213Y-5240D01*
X39809Y-4993D01*
X40365Y-4566D01*
X40793Y-4010D01*
X41061Y-3361D01*
X41153Y-2665D01*
Y1665D01*
X41061Y2361D01*
X40793Y3009D01*
X40365Y3566D01*
X39809Y3994D01*
X39213Y4241D01*
X39160Y4401D01*
Y4599D01*
X39213Y4760D01*
X39809Y5006D01*
X40365Y5434D01*
X40793Y5991D01*
X41061Y6639D01*
X41153Y7335D01*
Y11665D01*
X41061Y12361D01*
X40793Y13010D01*
X40365Y13566D01*
X39809Y13994D01*
X39213Y14241D01*
X39160Y14401D01*
Y14599D01*
X39213Y14760D01*
X39809Y15007D01*
X40365Y15434D01*
X40793Y15991D01*
X41061Y16639D01*
X41153Y17335D01*
Y21665D01*
X41061Y22361D01*
X40793Y23009D01*
X40365Y23566D01*
X39809Y23993D01*
X39213Y24240D01*
X39160Y24401D01*
Y24599D01*
X39213Y24759D01*
X39809Y25006D01*
X40365Y25434D01*
X40793Y25991D01*
X41061Y26639D01*
X41153Y27335D01*
Y31665D01*
X41061Y32361D01*
X40793Y33009D01*
X40365Y33566D01*
X39809Y33994D01*
X39213Y34240D01*
X39160Y34401D01*
Y34599D01*
X39213Y34760D01*
X39809Y35006D01*
X40365Y35434D01*
X40793Y35991D01*
X41061Y36639D01*
X41153Y37335D01*
Y41665D01*
X41061Y42361D01*
X40793Y43009D01*
X40365Y43566D01*
X39809Y43993D01*
X39160Y44262D01*
X38465Y44354D01*
X27835D01*
X27139Y44262D01*
X26491Y43993D01*
X25934Y43566D01*
X25506Y43009D01*
X25238Y42361D01*
X25146Y41665D01*
Y37335D01*
X25238Y36639D01*
X25506Y35991D01*
X25934Y35434D01*
X26491Y35006D01*
X27087Y34760D01*
X27139Y34599D01*
Y34401D01*
X27087Y34240D01*
X26491Y33994D01*
X25934Y33566D01*
X25506Y33009D01*
X25238Y32361D01*
X25146Y31665D01*
Y27335D01*
X25238Y26639D01*
X25506Y25991D01*
X25934Y25434D01*
X26491Y25006D01*
X27087Y24759D01*
X27139Y24599D01*
Y24401D01*
X27087Y24240D01*
X26491Y23993D01*
X25934Y23566D01*
X25506Y23009D01*
X25238Y22361D01*
X25146Y21665D01*
Y17335D01*
X25238Y16639D01*
X25506Y15991D01*
X25934Y15434D01*
X26491Y15007D01*
X27087Y14760D01*
X27139Y14599D01*
Y14401D01*
X27087Y14241D01*
X26491Y13994D01*
X25934Y13566D01*
X25506Y13010D01*
X25238Y12361D01*
X25146Y11665D01*
Y7335D01*
X25238Y6639D01*
X25506Y5991D01*
X25934Y5434D01*
X26491Y5006D01*
X27087Y4760D01*
X27139Y4599D01*
Y4401D01*
X27087Y4241D01*
X26491Y3994D01*
X25934Y3566D01*
X25506Y3009D01*
X25238Y2361D01*
X25146Y1665D01*
Y-2665D01*
X25238Y-3361D01*
X25506Y-4010D01*
X25934Y-4566D01*
X26491Y-4993D01*
X27087Y-5240D01*
X27139Y-5401D01*
Y-5599D01*
X27087Y-5759D01*
X26491Y-6007D01*
X25934Y-6434D01*
X25506Y-6990D01*
X25238Y-7639D01*
X25146Y-8335D01*
Y-12665D01*
X25238Y-13361D01*
X25506Y-14009D01*
X25934Y-14566D01*
X26491Y-14994D01*
X27087Y-15240D01*
X27139Y-15401D01*
Y-15599D01*
X27087Y-15759D01*
X26491Y-16006D01*
X25934Y-16434D01*
X25506Y-16991D01*
X25238Y-17639D01*
X25146Y-18335D01*
Y-22665D01*
X25238Y-23361D01*
X25506Y-24010D01*
X25934Y-24566D01*
X26491Y-24994D01*
X27087Y-25240D01*
X27139Y-25401D01*
Y-25599D01*
X27087Y-25760D01*
X26491Y-26006D01*
X25934Y-26434D01*
X25506Y-26991D01*
X25238Y-27639D01*
X25146Y-28335D01*
Y-32665D01*
X25238Y-33361D01*
X25506Y-34010D01*
X25934Y-34566D01*
X26491Y-34993D01*
X27139Y-35262D01*
X27835Y-35354D01*
X38465D01*
X38863Y-35301D01*
X39097Y-35775D01*
X34891Y-39980D01*
X-68898D01*
X-69288Y-40058D01*
X-69619Y-40279D01*
X-72250Y-42910D01*
X-72547Y-42739D01*
X-73437Y-42500D01*
X-74358D01*
X-75249Y-42739D01*
X-76047Y-43199D01*
X-76698Y-43851D01*
X-77159Y-44649D01*
X-77398Y-45539D01*
Y-46461D01*
X-77159Y-47351D01*
X-76698Y-48149D01*
X-76047Y-48801D01*
X-75249Y-49262D01*
X-74358Y-49500D01*
X-73437D01*
X-72547Y-49262D01*
X-71749Y-48801D01*
X-71097Y-48149D01*
X-70636Y-47351D01*
X-70398Y-46461D01*
Y-45539D01*
X-70636Y-44649D01*
X-70808Y-44352D01*
X-68475Y-42020D01*
X-64497D01*
X-64432Y-42520D01*
X-65249Y-42739D01*
X-66047Y-43199D01*
X-66698Y-43851D01*
X-67159Y-44649D01*
X-67398Y-45539D01*
Y-46461D01*
X-67159Y-47351D01*
X-66698Y-48149D01*
X-66047Y-48801D01*
X-65249Y-49262D01*
X-64358Y-49500D01*
X-63437D01*
X-62547Y-49262D01*
X-61749Y-48801D01*
X-61097Y-48149D01*
X-60636Y-47351D01*
X-60547Y-47020D01*
X33142D01*
X33532Y-46942D01*
X33863Y-46721D01*
X74619Y-5965D01*
X74840Y-5635D01*
X74917Y-5244D01*
Y20000D01*
X177000Y20000D01*
X189502Y32502D01*
X542495D01*
X550378Y24619D01*
Y-87122D01*
X539878Y-97622D01*
X309498D01*
Y-51002D01*
X309499D01*
X309498Y-51002D01*
X309464Y-49955D01*
X309191Y-47880D01*
X308649Y-45858D01*
X307849Y-43925D01*
X306802Y-42112D01*
X305528Y-40452D01*
X304048Y-38972D01*
X302388Y-37698D01*
X300575Y-36652D01*
X298641Y-35851D01*
X296620Y-35309D01*
X294545Y-35036D01*
X293498Y-35002D01*
X257998Y-35002D01*
X257998Y-35002D01*
X256970Y-34985D01*
X254921Y-35167D01*
X252918Y-35632D01*
X250998Y-36370D01*
X249200Y-37368D01*
X247558Y-38606D01*
X246103Y-40061D01*
X244865Y-41703D01*
X243867Y-43501D01*
X243129Y-45421D01*
X242664Y-47424D01*
X242482Y-49473D01*
X242498Y-50502D01*
Y-97622D01*
X-535881D01*
X-550378Y-83125D01*
Y22122D01*
X-541496Y31004D01*
X-504451Y30927D01*
X-504260Y30465D01*
X-517721Y17004D01*
X-517942Y16674D01*
X-518020Y16284D01*
Y-39500D01*
X-517942Y-39890D01*
X-517721Y-40221D01*
X-500721Y-57221D01*
X-500390Y-57442D01*
X-500000Y-57520D01*
X-92500D01*
X-92110Y-57442D01*
X-91779Y-57221D01*
X-66078Y-31520D01*
X-41153D01*
Y-32665D01*
X-41061Y-33361D01*
X-40793Y-34010D01*
X-40365Y-34566D01*
X-39809Y-34993D01*
X-39160Y-35262D01*
X-38465Y-35354D01*
X-27835D01*
X-27139Y-35262D01*
X-26491Y-34993D01*
X-25934Y-34566D01*
X-25506Y-34010D01*
X-25238Y-33361D01*
X-25146Y-32665D01*
Y-28335D01*
X-25238Y-27639D01*
X-25506Y-26991D01*
X-25934Y-26434D01*
X-26491Y-26006D01*
X-27087Y-25760D01*
X-27139Y-25599D01*
Y-25401D01*
X-27087Y-25240D01*
X-26491Y-24994D01*
X-25934Y-24566D01*
X-25506Y-24010D01*
X-25238Y-23361D01*
X-25146Y-22665D01*
Y-18335D01*
X-25238Y-17639D01*
X-25506Y-16991D01*
X-25934Y-16434D01*
X-26491Y-16006D01*
X-27087Y-15759D01*
X-27139Y-15599D01*
Y-15401D01*
X-27087Y-15240D01*
X-26491Y-14994D01*
X-25934Y-14566D01*
X-25506Y-14009D01*
X-25238Y-13361D01*
X-25146Y-12665D01*
Y-8335D01*
X-25238Y-7639D01*
X-25506Y-6990D01*
X-25934Y-6434D01*
X-26491Y-6007D01*
X-27087Y-5759D01*
X-27139Y-5599D01*
Y-5401D01*
X-27087Y-5240D01*
X-26491Y-4993D01*
X-25934Y-4566D01*
X-25506Y-4010D01*
X-25238Y-3361D01*
X-25146Y-2665D01*
Y1665D01*
X-25238Y2361D01*
X-25506Y3009D01*
X-25934Y3566D01*
X-26491Y3994D01*
X-27087Y4241D01*
X-27139Y4401D01*
Y4599D01*
X-27087Y4760D01*
X-26491Y5006D01*
X-25934Y5434D01*
X-25506Y5991D01*
X-25238Y6639D01*
X-25146Y7335D01*
Y11665D01*
X-25238Y12361D01*
X-25506Y13010D01*
X-25934Y13566D01*
X-26491Y13994D01*
X-27087Y14241D01*
X-27139Y14401D01*
Y14599D01*
X-27087Y14760D01*
X-26491Y15007D01*
X-25934Y15434D01*
X-25506Y15991D01*
X-25238Y16639D01*
X-25146Y17335D01*
Y21665D01*
X-25238Y22361D01*
X-25506Y23009D01*
X-25934Y23566D01*
X-26491Y23993D01*
X-27087Y24240D01*
X-27139Y24401D01*
Y24599D01*
X-27087Y24759D01*
X-26491Y25006D01*
X-25934Y25434D01*
X-25506Y25991D01*
X-25238Y26639D01*
X-25146Y27335D01*
Y29250D01*
X-41153D01*
Y27335D01*
X-41061Y26639D01*
X-40793Y25991D01*
X-40365Y25434D01*
X-39809Y25006D01*
X-39213Y24759D01*
X-39160Y24599D01*
Y24401D01*
X-39213Y24240D01*
X-39809Y23993D01*
X-40365Y23566D01*
X-40793Y23009D01*
X-41061Y22361D01*
X-41153Y21665D01*
Y20520D01*
X-45000D01*
X-45390Y20442D01*
X-45721Y20221D01*
X-52721Y13221D01*
X-52942Y12890D01*
X-53020Y12500D01*
Y-13167D01*
X-53158Y-13204D01*
X-53842Y-13599D01*
X-54401Y-14158D01*
X-54796Y-14842D01*
X-55000Y-15605D01*
Y-16395D01*
X-54796Y-17158D01*
X-54401Y-17842D01*
X-53842Y-18401D01*
X-53158Y-18796D01*
X-52468Y-18980D01*
X-52534Y-19480D01*
X-62000D01*
X-62390Y-19558D01*
X-62721Y-19779D01*
X-72421Y-29480D01*
X-72870Y-29221D01*
X-72828Y-29067D01*
Y-28277D01*
X-73033Y-27514D01*
X-73105Y-27390D01*
X-57779Y-12064D01*
X-57558Y-11733D01*
X-57480Y-11343D01*
Y26078D01*
X-45078Y38480D01*
X-41153D01*
Y37335D01*
X-41061Y36639D01*
X-40793Y35991D01*
X-40365Y35434D01*
X-39809Y35006D01*
X-39213Y34760D01*
X-39160Y34599D01*
Y34401D01*
X-39213Y34240D01*
X-39809Y33994D01*
X-40365Y33566D01*
X-40793Y33009D01*
X-41061Y32361D01*
X-41153Y31665D01*
Y29750D01*
X-25146D01*
Y31665D01*
X-25238Y32361D01*
X-25399Y32750D01*
X-24975Y33033D01*
X2480Y5578D01*
Y-15533D01*
X1842Y-15704D01*
X1158Y-16099D01*
X599Y-16658D01*
X204Y-17342D01*
X0Y-18105D01*
Y-18895D01*
X204Y-19658D01*
X599Y-20342D01*
X1158Y-20901D01*
X1842Y-21296D01*
X2605Y-21500D01*
X3395D01*
X4158Y-21296D01*
X4842Y-20901D01*
X5401Y-20342D01*
X5796Y-19658D01*
X6000Y-18895D01*
Y-18105D01*
X5796Y-17342D01*
X5401Y-16658D01*
X4842Y-16099D01*
X4520Y-15913D01*
Y6000D01*
X4442Y6390D01*
X4221Y6721D01*
X-25372Y36314D01*
X-25238Y36639D01*
X-25146Y37335D01*
Y41665D01*
X-25238Y42361D01*
X-25506Y43009D01*
X-25934Y43566D01*
X-26491Y43993D01*
X-27139Y44262D01*
X-27835Y44354D01*
X-38465D01*
X-39160Y44262D01*
X-39809Y43993D01*
X-40365Y43566D01*
X-40793Y43009D01*
X-41061Y42361D01*
X-41153Y41665D01*
Y40520D01*
X-44327D01*
X-44519Y40982D01*
X-35000Y50500D01*
X35500Y50500D01*
D02*
G37*
G36*
X-212713Y30322D02*
Y18012D01*
X-268705Y-37980D01*
X-342488D01*
X-342878Y-38058D01*
X-343209Y-38279D01*
X-347840Y-42910D01*
X-348137Y-42739D01*
X-349027Y-42500D01*
X-349949D01*
X-350839Y-42739D01*
X-351637Y-43199D01*
X-352289Y-43851D01*
X-352750Y-44649D01*
X-352988Y-45539D01*
Y-46461D01*
X-352750Y-47351D01*
X-352289Y-48149D01*
X-351637Y-48801D01*
X-351326Y-48980D01*
X-351460Y-49480D01*
X-475312D01*
X-475446Y-48980D01*
X-475134Y-48801D01*
X-474483Y-48149D01*
X-474022Y-47351D01*
X-473783Y-46461D01*
Y-45539D01*
X-474022Y-44649D01*
X-474193Y-44352D01*
X-436861Y-7020D01*
X-391488D01*
X-391098Y-6942D01*
X-390767Y-6721D01*
X-353432Y30614D01*
X-212713Y30322D01*
D02*
G37*
G36*
X-356962Y30621D02*
X-356771Y30159D01*
X-391911Y-4980D01*
X-437284D01*
X-437674Y-5058D01*
X-438004Y-5279D01*
X-475635Y-42910D01*
X-475933Y-42739D01*
X-476823Y-42500D01*
X-477744D01*
X-478634Y-42739D01*
X-479432Y-43199D01*
X-480084Y-43851D01*
X-480545Y-44649D01*
X-480784Y-45539D01*
Y-46461D01*
X-480545Y-47351D01*
X-480084Y-48149D01*
X-479432Y-48801D01*
X-479121Y-48980D01*
X-479255Y-49480D01*
X-485312D01*
X-485446Y-48980D01*
X-485134Y-48801D01*
X-484483Y-48149D01*
X-484022Y-47351D01*
X-483783Y-46461D01*
Y-45539D01*
X-484022Y-44649D01*
X-484194Y-44352D01*
X-440861Y-1020D01*
X-395488D01*
X-395098Y-942D01*
X-394767Y-721D01*
X-363412Y30635D01*
X-356962Y30621D01*
D02*
G37*
G36*
X-462580Y30840D02*
X-366941Y30642D01*
X-366750Y30180D01*
X-395911Y1020D01*
X-441284D01*
X-441674Y942D01*
X-442004Y721D01*
X-485635Y-42910D01*
X-485932Y-42739D01*
X-486823Y-42500D01*
X-487744D01*
X-488634Y-42739D01*
X-489432Y-43199D01*
X-490084Y-43851D01*
X-490545Y-44649D01*
X-490784Y-45539D01*
Y-46461D01*
X-490545Y-47351D01*
X-490084Y-48149D01*
X-489432Y-48801D01*
X-489121Y-48980D01*
X-489255Y-49480D01*
X-494078D01*
X-506980Y-36578D01*
Y14861D01*
X-490942Y30899D01*
X-462580Y30840D01*
D02*
G37*
G36*
X35180Y-42520D02*
X32720Y-44980D01*
X-60547D01*
X-60636Y-44649D01*
X-61097Y-43851D01*
X-61749Y-43199D01*
X-62547Y-42739D01*
X-63364Y-42520D01*
X-63298Y-42020D01*
X34973D01*
X35180Y-42520D01*
D02*
G37*
G36*
X-64917Y30015D02*
Y-8975D01*
X-100922Y-44980D01*
X-198343D01*
X-198431Y-44649D01*
X-198892Y-43851D01*
X-199544Y-43199D01*
X-200342Y-42739D01*
X-201232Y-42500D01*
X-202154D01*
X-202501Y-42593D01*
X-202760Y-42145D01*
X-200635Y-40020D01*
X-108500D01*
X-108110Y-39942D01*
X-107779Y-39721D01*
X-73177Y-5119D01*
X-72956Y-4788D01*
X-72878Y-4398D01*
Y29678D01*
X-72524Y30031D01*
X-64917Y30015D01*
D02*
G37*
G36*
X-202712Y30301D02*
Y17229D01*
X-264922Y-44980D01*
X-336138D01*
X-336227Y-44649D01*
X-336687Y-43851D01*
X-337339Y-43199D01*
X-338137Y-42739D01*
X-339027Y-42500D01*
X-339949D01*
X-340839Y-42739D01*
X-341637Y-43199D01*
X-342289Y-43851D01*
X-342750Y-44649D01*
X-342988Y-45539D01*
Y-46461D01*
X-342750Y-47351D01*
X-342289Y-48149D01*
X-341637Y-48801D01*
X-341326Y-48980D01*
X-341460Y-49480D01*
X-347516D01*
X-347650Y-48980D01*
X-347339Y-48801D01*
X-346688Y-48149D01*
X-346227Y-47351D01*
X-345988Y-46461D01*
Y-45539D01*
X-346227Y-44649D01*
X-346398Y-44352D01*
X-342066Y-40020D01*
X-268283D01*
X-267893Y-39942D01*
X-267562Y-39721D01*
X-210972Y16869D01*
X-210751Y17200D01*
X-210673Y17590D01*
Y29964D01*
X-210319Y30317D01*
X-202712Y30301D01*
D02*
G37*
G36*
X-494472Y30907D02*
X-494281Y30444D01*
X-508721Y16004D01*
X-508942Y15674D01*
X-509020Y15283D01*
Y-37000D01*
X-508942Y-37390D01*
X-508721Y-37721D01*
X-495221Y-51221D01*
X-494890Y-51442D01*
X-494500Y-51520D01*
X-92000D01*
X-91610Y-51442D01*
X-91279Y-51221D01*
X-61578Y-21520D01*
X-41153D01*
Y-22665D01*
X-41061Y-23361D01*
X-40793Y-24010D01*
X-40365Y-24566D01*
X-39809Y-24994D01*
X-39213Y-25240D01*
X-39160Y-25401D01*
Y-25599D01*
X-39213Y-25760D01*
X-39809Y-26006D01*
X-40365Y-26434D01*
X-40793Y-26991D01*
X-41061Y-27639D01*
X-41153Y-28335D01*
Y-29480D01*
X-66500D01*
X-66890Y-29558D01*
X-67221Y-29779D01*
X-92922Y-55480D01*
X-499578D01*
X-515980Y-39078D01*
Y15861D01*
X-500922Y30920D01*
X-494472Y30907D01*
D02*
G37*
%LPC*%
G36*
X133342Y83118D02*
X133124D01*
Y79817D01*
X136425D01*
Y80035D01*
X136183Y80938D01*
X135716Y81747D01*
X135055Y82409D01*
X134245Y82876D01*
X133342Y83118D01*
D02*
G37*
G36*
X132624D02*
X132406D01*
X131503Y82876D01*
X130693Y82409D01*
X130032Y81747D01*
X129565Y80938D01*
X129323Y80035D01*
Y79817D01*
X132624D01*
Y83118D01*
D02*
G37*
G36*
X532310Y89083D02*
X530682D01*
X529074Y88828D01*
X527526Y88325D01*
X526075Y87586D01*
X524758Y86629D01*
X523607Y85478D01*
X522650Y84161D01*
X521911Y82710D01*
X521408Y81162D01*
X521153Y79554D01*
Y77926D01*
X521408Y76318D01*
X521911Y74770D01*
X522650Y73320D01*
X523607Y72003D01*
X524758Y70851D01*
X526075Y69894D01*
X527526Y69155D01*
X529074Y68652D01*
X530682Y68398D01*
X532310D01*
X533918Y68652D01*
X535466Y69155D01*
X536917Y69894D01*
X538234Y70851D01*
X539385Y72003D01*
X540342Y73320D01*
X541081Y74770D01*
X541584Y76318D01*
X541839Y77926D01*
Y79554D01*
X541584Y81162D01*
X541081Y82710D01*
X540342Y84161D01*
X539385Y85478D01*
X538234Y86629D01*
X536917Y87586D01*
X535466Y88325D01*
X533918Y88828D01*
X532310Y89083D01*
D02*
G37*
G36*
X814D02*
X-814D01*
X-2422Y88828D01*
X-3970Y88325D01*
X-5421Y87586D01*
X-6738Y86629D01*
X-7889Y85478D01*
X-8846Y84161D01*
X-9585Y82710D01*
X-10088Y81162D01*
X-10343Y79554D01*
Y77926D01*
X-10088Y76318D01*
X-9585Y74770D01*
X-8846Y73320D01*
X-7889Y72003D01*
X-6738Y70851D01*
X-5421Y69894D01*
X-3970Y69155D01*
X-2422Y68652D01*
X-814Y68398D01*
X814D01*
X2422Y68652D01*
X3970Y69155D01*
X5421Y69894D01*
X6738Y70851D01*
X7889Y72003D01*
X8846Y73320D01*
X9585Y74770D01*
X10088Y76318D01*
X10343Y77926D01*
Y79554D01*
X10088Y81162D01*
X9585Y82710D01*
X8846Y84161D01*
X7889Y85478D01*
X6738Y86629D01*
X5421Y87586D01*
X3970Y88325D01*
X2422Y88828D01*
X814Y89083D01*
D02*
G37*
G36*
X-530682D02*
X-532310D01*
X-533918Y88828D01*
X-535466Y88325D01*
X-536917Y87586D01*
X-538234Y86629D01*
X-539385Y85478D01*
X-540342Y84161D01*
X-541081Y82710D01*
X-541584Y81162D01*
X-541839Y79554D01*
Y77926D01*
X-541584Y76318D01*
X-541081Y74770D01*
X-540342Y73320D01*
X-539385Y72003D01*
X-538234Y70851D01*
X-536917Y69894D01*
X-535466Y69155D01*
X-533918Y68652D01*
X-532310Y68398D01*
X-530682D01*
X-529074Y68652D01*
X-527526Y69155D01*
X-526075Y69894D01*
X-524758Y70851D01*
X-523607Y72003D01*
X-522650Y73320D01*
X-521911Y74770D01*
X-521408Y76318D01*
X-521153Y77926D01*
Y79554D01*
X-521408Y81162D01*
X-521911Y82710D01*
X-522650Y84161D01*
X-523607Y85478D01*
X-524758Y86629D01*
X-526075Y87586D01*
X-527526Y88325D01*
X-529074Y88828D01*
X-530682Y89083D01*
D02*
G37*
G36*
X137114Y54750D02*
X134305D01*
Y51547D01*
X137114D01*
Y54750D01*
D02*
G37*
G36*
X136425Y79317D02*
X132874D01*
X129323D01*
Y79099D01*
X129565Y78196D01*
X130032Y77386D01*
X130693Y76725D01*
X131503Y76258D01*
X131854Y76164D01*
Y58453D01*
X130996D01*
Y56020D01*
X128000D01*
X127610Y55942D01*
X127279Y55721D01*
X117389Y45831D01*
X117168Y45500D01*
X117091Y45110D01*
Y42649D01*
X115945D01*
X115249Y42557D01*
X114601Y42289D01*
X114044Y41862D01*
X113617Y41305D01*
X113348Y40656D01*
X113257Y39961D01*
Y34896D01*
X118110D01*
X122964D01*
Y39961D01*
X122872Y40656D01*
X122604Y41305D01*
X122177Y41862D01*
X121620Y42289D01*
X120971Y42557D01*
X120276Y42649D01*
X119130D01*
Y44688D01*
X128422Y53980D01*
X130996D01*
Y51547D01*
X133805D01*
Y55000D01*
X134055D01*
Y55250D01*
X137114D01*
Y58453D01*
X133894D01*
Y76164D01*
X134245Y76258D01*
X135055Y76725D01*
X135716Y77386D01*
X136183Y78196D01*
X136425Y79099D01*
Y79317D01*
D02*
G37*
G36*
X497744Y49500D02*
X497534D01*
Y46250D01*
X500783D01*
Y46461D01*
X500545Y47351D01*
X500084Y48149D01*
X499433Y48801D01*
X498634Y49262D01*
X497744Y49500D01*
D02*
G37*
G36*
X497034D02*
X496823D01*
X495932Y49262D01*
X495134Y48801D01*
X494483Y48149D01*
X494022Y47351D01*
X493784Y46461D01*
Y46250D01*
X497034D01*
Y49500D01*
D02*
G37*
G36*
X359949D02*
X359738D01*
Y46250D01*
X362988D01*
Y46461D01*
X362750Y47351D01*
X362289Y48149D01*
X361637Y48801D01*
X360839Y49262D01*
X359949Y49500D01*
D02*
G37*
G36*
X359238D02*
X359027D01*
X358137Y49262D01*
X357339Y48801D01*
X356687Y48149D01*
X356227Y47351D01*
X355988Y46461D01*
Y46250D01*
X359238D01*
Y49500D01*
D02*
G37*
G36*
X222154D02*
X221943D01*
Y46250D01*
X225193D01*
Y46461D01*
X224954Y47351D01*
X224494Y48149D01*
X223842Y48801D01*
X223044Y49262D01*
X222154Y49500D01*
D02*
G37*
G36*
X221443D02*
X221232D01*
X220342Y49262D01*
X219544Y48801D01*
X218892Y48149D01*
X218431Y47351D01*
X218193Y46461D01*
Y46250D01*
X221443D01*
Y49500D01*
D02*
G37*
G36*
X84358D02*
X84148D01*
Y46250D01*
X87398D01*
Y46461D01*
X87159Y47351D01*
X86698Y48149D01*
X86047Y48801D01*
X85249Y49262D01*
X84358Y49500D01*
D02*
G37*
G36*
X83648D02*
X83437D01*
X82547Y49262D01*
X81749Y48801D01*
X81097Y48149D01*
X80636Y47351D01*
X80398Y46461D01*
Y46250D01*
X83648D01*
Y49500D01*
D02*
G37*
G36*
X-53437D02*
X-53648D01*
Y46250D01*
X-50398D01*
Y46461D01*
X-50636Y47351D01*
X-51097Y48149D01*
X-51749Y48801D01*
X-52547Y49262D01*
X-53437Y49500D01*
D02*
G37*
G36*
X-54148D02*
X-54358D01*
X-55249Y49262D01*
X-56047Y48801D01*
X-56698Y48149D01*
X-57159Y47351D01*
X-57398Y46461D01*
Y46250D01*
X-54148D01*
Y49500D01*
D02*
G37*
G36*
X-191232D02*
X-191443D01*
Y46250D01*
X-188193D01*
Y46461D01*
X-188431Y47351D01*
X-188892Y48149D01*
X-189544Y48801D01*
X-190342Y49262D01*
X-191232Y49500D01*
D02*
G37*
G36*
X-191943D02*
X-192154D01*
X-193044Y49262D01*
X-193842Y48801D01*
X-194494Y48149D01*
X-194954Y47351D01*
X-195193Y46461D01*
Y46250D01*
X-191943D01*
Y49500D01*
D02*
G37*
G36*
X-329027D02*
X-329238D01*
Y46250D01*
X-325988D01*
Y46461D01*
X-326227Y47351D01*
X-326688Y48149D01*
X-327339Y48801D01*
X-328137Y49262D01*
X-329027Y49500D01*
D02*
G37*
G36*
X-329738D02*
X-329949D01*
X-330839Y49262D01*
X-331637Y48801D01*
X-332289Y48149D01*
X-332750Y47351D01*
X-332988Y46461D01*
Y46250D01*
X-329738D01*
Y49500D01*
D02*
G37*
G36*
X-466823D02*
X-467033D01*
Y46250D01*
X-463784D01*
Y46461D01*
X-464022Y47351D01*
X-464483Y48149D01*
X-465134Y48801D01*
X-465933Y49262D01*
X-466823Y49500D01*
D02*
G37*
G36*
X-467533D02*
X-467744D01*
X-468634Y49262D01*
X-469432Y48801D01*
X-470084Y48149D01*
X-470545Y47351D01*
X-470784Y46461D01*
Y46250D01*
X-467533D01*
Y49500D01*
D02*
G37*
G36*
X500783Y45750D02*
X497534D01*
Y42500D01*
X497744D01*
X498634Y42739D01*
X499433Y43199D01*
X500084Y43851D01*
X500545Y44649D01*
X500783Y45539D01*
Y45750D01*
D02*
G37*
G36*
X497034D02*
X493784D01*
Y45539D01*
X494022Y44649D01*
X494483Y43851D01*
X495134Y43199D01*
X495932Y42739D01*
X496823Y42500D01*
X497034D01*
Y45750D01*
D02*
G37*
G36*
X487744Y49500D02*
X486823D01*
X485932Y49262D01*
X485134Y48801D01*
X484483Y48149D01*
X484022Y47351D01*
X483783Y46461D01*
Y45539D01*
X484022Y44649D01*
X484483Y43851D01*
X485134Y43199D01*
X485932Y42739D01*
X486823Y42500D01*
X487744D01*
X488634Y42739D01*
X489432Y43199D01*
X490084Y43851D01*
X490545Y44649D01*
X490784Y45539D01*
Y46461D01*
X490545Y47351D01*
X490084Y48149D01*
X489432Y48801D01*
X488634Y49262D01*
X487744Y49500D01*
D02*
G37*
G36*
X477744D02*
X476823D01*
X475933Y49262D01*
X475134Y48801D01*
X474483Y48149D01*
X474022Y47351D01*
X473783Y46461D01*
Y45539D01*
X474022Y44649D01*
X474483Y43851D01*
X475134Y43199D01*
X475933Y42739D01*
X476823Y42500D01*
X477744D01*
X478634Y42739D01*
X479432Y43199D01*
X480084Y43851D01*
X480545Y44649D01*
X480784Y45539D01*
Y46461D01*
X480545Y47351D01*
X480084Y48149D01*
X479432Y48801D01*
X478634Y49262D01*
X477744Y49500D01*
D02*
G37*
G36*
X467744D02*
X466823D01*
X465933Y49262D01*
X465134Y48801D01*
X464483Y48149D01*
X464022Y47351D01*
X463784Y46461D01*
Y45539D01*
X464022Y44649D01*
X464483Y43851D01*
X465134Y43199D01*
X465933Y42739D01*
X466823Y42500D01*
X467744D01*
X468634Y42739D01*
X469432Y43199D01*
X470084Y43851D01*
X470545Y44649D01*
X470784Y45539D01*
Y46461D01*
X470545Y47351D01*
X470084Y48149D01*
X469432Y48801D01*
X468634Y49262D01*
X467744Y49500D01*
D02*
G37*
G36*
X362988Y45750D02*
X359738D01*
Y42500D01*
X359949D01*
X360839Y42739D01*
X361637Y43199D01*
X362289Y43851D01*
X362750Y44649D01*
X362988Y45539D01*
Y45750D01*
D02*
G37*
G36*
X359238D02*
X355988D01*
Y45539D01*
X356227Y44649D01*
X356687Y43851D01*
X357339Y43199D01*
X358137Y42739D01*
X359027Y42500D01*
X359238D01*
Y45750D01*
D02*
G37*
G36*
X349949Y49500D02*
X349027D01*
X348137Y49262D01*
X347339Y48801D01*
X346688Y48149D01*
X346227Y47351D01*
X345988Y46461D01*
Y45539D01*
X346227Y44649D01*
X346688Y43851D01*
X347339Y43199D01*
X348137Y42739D01*
X349027Y42500D01*
X349949D01*
X350839Y42739D01*
X351637Y43199D01*
X352289Y43851D01*
X352750Y44649D01*
X352988Y45539D01*
Y46461D01*
X352750Y47351D01*
X352289Y48149D01*
X351637Y48801D01*
X350839Y49262D01*
X349949Y49500D01*
D02*
G37*
G36*
X339949D02*
X339027D01*
X338137Y49262D01*
X337339Y48801D01*
X336687Y48149D01*
X336227Y47351D01*
X335988Y46461D01*
Y45539D01*
X336227Y44649D01*
X336687Y43851D01*
X337339Y43199D01*
X338137Y42739D01*
X339027Y42500D01*
X339949D01*
X340839Y42739D01*
X341637Y43199D01*
X342289Y43851D01*
X342750Y44649D01*
X342988Y45539D01*
Y46461D01*
X342750Y47351D01*
X342289Y48149D01*
X341637Y48801D01*
X340839Y49262D01*
X339949Y49500D01*
D02*
G37*
G36*
X329949D02*
X329027D01*
X328137Y49262D01*
X327339Y48801D01*
X326688Y48149D01*
X326227Y47351D01*
X325988Y46461D01*
Y45539D01*
X326227Y44649D01*
X326688Y43851D01*
X327339Y43199D01*
X328137Y42739D01*
X329027Y42500D01*
X329949D01*
X330839Y42739D01*
X331637Y43199D01*
X332289Y43851D01*
X332750Y44649D01*
X332988Y45539D01*
Y46461D01*
X332750Y47351D01*
X332289Y48149D01*
X331637Y48801D01*
X330839Y49262D01*
X329949Y49500D01*
D02*
G37*
G36*
X225193Y45750D02*
X221943D01*
Y42500D01*
X222154D01*
X223044Y42739D01*
X223842Y43199D01*
X224494Y43851D01*
X224954Y44649D01*
X225193Y45539D01*
Y45750D01*
D02*
G37*
G36*
X221443D02*
X218193D01*
Y45539D01*
X218431Y44649D01*
X218892Y43851D01*
X219544Y43199D01*
X220342Y42739D01*
X221232Y42500D01*
X221443D01*
Y45750D01*
D02*
G37*
G36*
X212154Y49500D02*
X211232D01*
X210342Y49262D01*
X209544Y48801D01*
X208892Y48149D01*
X208431Y47351D01*
X208193Y46461D01*
Y45539D01*
X208431Y44649D01*
X208892Y43851D01*
X209544Y43199D01*
X210342Y42739D01*
X211232Y42500D01*
X212154D01*
X213044Y42739D01*
X213842Y43199D01*
X214494Y43851D01*
X214954Y44649D01*
X215193Y45539D01*
Y46461D01*
X214954Y47351D01*
X214494Y48149D01*
X213842Y48801D01*
X213044Y49262D01*
X212154Y49500D01*
D02*
G37*
G36*
X202154D02*
X201232D01*
X200342Y49262D01*
X199544Y48801D01*
X198892Y48149D01*
X198431Y47351D01*
X198193Y46461D01*
Y45539D01*
X198431Y44649D01*
X198892Y43851D01*
X199544Y43199D01*
X200342Y42739D01*
X201232Y42500D01*
X202154D01*
X203044Y42739D01*
X203842Y43199D01*
X204494Y43851D01*
X204954Y44649D01*
X205193Y45539D01*
Y46461D01*
X204954Y47351D01*
X204494Y48149D01*
X203842Y48801D01*
X203044Y49262D01*
X202154Y49500D01*
D02*
G37*
G36*
X192154D02*
X191232D01*
X190342Y49262D01*
X189544Y48801D01*
X188892Y48149D01*
X188431Y47351D01*
X188193Y46461D01*
Y45539D01*
X188431Y44649D01*
X188892Y43851D01*
X189544Y43199D01*
X190342Y42739D01*
X191232Y42500D01*
X192154D01*
X193044Y42739D01*
X193842Y43199D01*
X194494Y43851D01*
X194954Y44649D01*
X195193Y45539D01*
Y46461D01*
X194954Y47351D01*
X194494Y48149D01*
X193842Y48801D01*
X193044Y49262D01*
X192154Y49500D01*
D02*
G37*
G36*
X87398Y45750D02*
X84148D01*
Y42500D01*
X84358D01*
X85249Y42739D01*
X86047Y43199D01*
X86698Y43851D01*
X87159Y44649D01*
X87398Y45539D01*
Y45750D01*
D02*
G37*
G36*
X83648D02*
X80398D01*
Y45539D01*
X80636Y44649D01*
X81097Y43851D01*
X81749Y43199D01*
X82547Y42739D01*
X83437Y42500D01*
X83648D01*
Y45750D01*
D02*
G37*
G36*
X54358Y49500D02*
X53437D01*
X52547Y49262D01*
X51749Y48801D01*
X51097Y48149D01*
X50636Y47351D01*
X50398Y46461D01*
Y45539D01*
X50636Y44649D01*
X51097Y43851D01*
X51749Y43199D01*
X52547Y42739D01*
X53437Y42500D01*
X54358D01*
X55249Y42739D01*
X56047Y43199D01*
X56698Y43851D01*
X57159Y44649D01*
X57398Y45539D01*
Y46461D01*
X57159Y47351D01*
X56698Y48149D01*
X56047Y48801D01*
X55249Y49262D01*
X54358Y49500D01*
D02*
G37*
G36*
X-50398Y45750D02*
X-53648D01*
Y42500D01*
X-53437D01*
X-52547Y42739D01*
X-51749Y43199D01*
X-51097Y43851D01*
X-50636Y44649D01*
X-50398Y45539D01*
Y45750D01*
D02*
G37*
G36*
X-54148D02*
X-57398D01*
Y45539D01*
X-57159Y44649D01*
X-56698Y43851D01*
X-56047Y43199D01*
X-55249Y42739D01*
X-54358Y42500D01*
X-54148D01*
Y45750D01*
D02*
G37*
G36*
X-83437Y49500D02*
X-84358D01*
X-85249Y49262D01*
X-86047Y48801D01*
X-86698Y48149D01*
X-87159Y47351D01*
X-87398Y46461D01*
Y45539D01*
X-87159Y44649D01*
X-86698Y43851D01*
X-86047Y43199D01*
X-85249Y42739D01*
X-84358Y42500D01*
X-83437D01*
X-82547Y42739D01*
X-81749Y43199D01*
X-81097Y43851D01*
X-80636Y44649D01*
X-80398Y45539D01*
Y46461D01*
X-80636Y47351D01*
X-81097Y48149D01*
X-81749Y48801D01*
X-82547Y49262D01*
X-83437Y49500D01*
D02*
G37*
G36*
X-188193Y45750D02*
X-191443D01*
Y42500D01*
X-191232D01*
X-190342Y42739D01*
X-189544Y43199D01*
X-188892Y43851D01*
X-188431Y44649D01*
X-188193Y45539D01*
Y45750D01*
D02*
G37*
G36*
X-191943D02*
X-195193D01*
Y45539D01*
X-194954Y44649D01*
X-194494Y43851D01*
X-193842Y43199D01*
X-193044Y42739D01*
X-192154Y42500D01*
X-191943D01*
Y45750D01*
D02*
G37*
G36*
X-221232Y49500D02*
X-222154D01*
X-223044Y49262D01*
X-223842Y48801D01*
X-224494Y48149D01*
X-224954Y47351D01*
X-225193Y46461D01*
Y45539D01*
X-224954Y44649D01*
X-224494Y43851D01*
X-223842Y43199D01*
X-223044Y42739D01*
X-222154Y42500D01*
X-221232D01*
X-220342Y42739D01*
X-219544Y43199D01*
X-218892Y43851D01*
X-218431Y44649D01*
X-218193Y45539D01*
Y46461D01*
X-218431Y47351D01*
X-218892Y48149D01*
X-219544Y48801D01*
X-220342Y49262D01*
X-221232Y49500D01*
D02*
G37*
G36*
X-325988Y45750D02*
X-329238D01*
Y42500D01*
X-329027D01*
X-328137Y42739D01*
X-327339Y43199D01*
X-326688Y43851D01*
X-326227Y44649D01*
X-325988Y45539D01*
Y45750D01*
D02*
G37*
G36*
X-329738D02*
X-332988D01*
Y45539D01*
X-332750Y44649D01*
X-332289Y43851D01*
X-331637Y43199D01*
X-330839Y42739D01*
X-329949Y42500D01*
X-329738D01*
Y45750D01*
D02*
G37*
G36*
X-359027Y49500D02*
X-359949D01*
X-360839Y49262D01*
X-361637Y48801D01*
X-362289Y48149D01*
X-362750Y47351D01*
X-362988Y46461D01*
Y45539D01*
X-362750Y44649D01*
X-362289Y43851D01*
X-361637Y43199D01*
X-360839Y42739D01*
X-359949Y42500D01*
X-359027D01*
X-358137Y42739D01*
X-357339Y43199D01*
X-356687Y43851D01*
X-356227Y44649D01*
X-355988Y45539D01*
Y46461D01*
X-356227Y47351D01*
X-356687Y48149D01*
X-357339Y48801D01*
X-358137Y49262D01*
X-359027Y49500D01*
D02*
G37*
G36*
X-463784Y45750D02*
X-467033D01*
Y42500D01*
X-466823D01*
X-465933Y42739D01*
X-465134Y43199D01*
X-464483Y43851D01*
X-464022Y44649D01*
X-463784Y45539D01*
Y45750D01*
D02*
G37*
G36*
X-467533D02*
X-470784D01*
Y45539D01*
X-470545Y44649D01*
X-470084Y43851D01*
X-469432Y43199D01*
X-468634Y42739D01*
X-467744Y42500D01*
X-467533D01*
Y45750D01*
D02*
G37*
G36*
X-496823Y49500D02*
X-497744D01*
X-498634Y49262D01*
X-499433Y48801D01*
X-500084Y48149D01*
X-500545Y47351D01*
X-500783Y46461D01*
Y45539D01*
X-500545Y44649D01*
X-500084Y43851D01*
X-499433Y43199D01*
X-498634Y42739D01*
X-497744Y42500D01*
X-496823D01*
X-495932Y42739D01*
X-495134Y43199D01*
X-494483Y43851D01*
X-494022Y44649D01*
X-493784Y45539D01*
Y46461D01*
X-494022Y47351D01*
X-494483Y48149D01*
X-495134Y48801D01*
X-495932Y49262D01*
X-496823Y49500D01*
D02*
G37*
G36*
X146268Y83118D02*
X139165D01*
Y76016D01*
X141697D01*
Y58453D01*
X138476D01*
Y51547D01*
X144595D01*
Y53980D01*
X146578D01*
X156461Y44097D01*
Y42649D01*
X155315D01*
X154619Y42557D01*
X153971Y42289D01*
X153414Y41862D01*
X152987Y41305D01*
X152718Y40656D01*
X152627Y39961D01*
Y29331D01*
X152718Y28635D01*
X152987Y27986D01*
X153414Y27430D01*
X153971Y27003D01*
X154619Y26734D01*
X155315Y26642D01*
X159646D01*
X160342Y26734D01*
X160990Y27003D01*
X161547Y27430D01*
X161974Y27986D01*
X162242Y28635D01*
X162334Y29331D01*
Y39961D01*
X162242Y40656D01*
X161974Y41305D01*
X161547Y41862D01*
X160990Y42289D01*
X160342Y42557D01*
X159646Y42649D01*
X158500D01*
Y44520D01*
X158422Y44910D01*
X158201Y45241D01*
X147721Y55721D01*
X147390Y55942D01*
X147000Y56020D01*
X144595D01*
Y58453D01*
X143736D01*
Y76016D01*
X146268D01*
Y83118D01*
D02*
G37*
G36*
X122964Y34396D02*
X118360D01*
Y26642D01*
X120276D01*
X120971Y26734D01*
X121620Y27003D01*
X122177Y27430D01*
X122604Y27986D01*
X122872Y28635D01*
X122964Y29331D01*
Y34396D01*
D02*
G37*
G36*
X117860D02*
X113257D01*
Y29331D01*
X113348Y28635D01*
X113617Y27986D01*
X114044Y27430D01*
X114601Y27003D01*
X115249Y26734D01*
X115945Y26642D01*
X117860D01*
Y34396D01*
D02*
G37*
G36*
X-132341Y28453D02*
X-132545D01*
Y25250D01*
X-129342D01*
Y25455D01*
X-129578Y26333D01*
X-130032Y27120D01*
X-130675Y27763D01*
X-131463Y28217D01*
X-132341Y28453D01*
D02*
G37*
G36*
X-133045D02*
X-133250D01*
X-134128Y28217D01*
X-134915Y27763D01*
X-135558Y27120D01*
X-136013Y26333D01*
X-136248Y25455D01*
Y25250D01*
X-133045D01*
Y28453D01*
D02*
G37*
G36*
X-129342Y24750D02*
X-132545D01*
Y21547D01*
X-132341D01*
X-131463Y21782D01*
X-130675Y22237D01*
X-130032Y22880D01*
X-129578Y23667D01*
X-129342Y24545D01*
Y24750D01*
D02*
G37*
G36*
X-133045D02*
X-136248D01*
Y24545D01*
X-136013Y23667D01*
X-135558Y22880D01*
X-134915Y22237D01*
X-134128Y21782D01*
X-133250Y21547D01*
X-133045D01*
Y24750D01*
D02*
G37*
G36*
X-132341Y18453D02*
X-133250D01*
X-134128Y18217D01*
X-134915Y17763D01*
X-135558Y17120D01*
X-136013Y16333D01*
X-136248Y15455D01*
Y14545D01*
X-136013Y13667D01*
X-135558Y12880D01*
X-134915Y12237D01*
X-134128Y11783D01*
X-133250Y11547D01*
X-132341D01*
X-131463Y11783D01*
X-130675Y12237D01*
X-130032Y12880D01*
X-129578Y13667D01*
X-129342Y14545D01*
Y15455D01*
X-129578Y16333D01*
X-130032Y17120D01*
X-130675Y17763D01*
X-131463Y18217D01*
X-132341Y18453D01*
D02*
G37*
G36*
X-132341Y8453D02*
X-133250D01*
X-134128Y8218D01*
X-134915Y7763D01*
X-135558Y7120D01*
X-136013Y6333D01*
X-136248Y5455D01*
Y4546D01*
X-136013Y3667D01*
X-135558Y2880D01*
X-134915Y2237D01*
X-134128Y1783D01*
X-133250Y1547D01*
X-132341D01*
X-131463Y1783D01*
X-130675Y2237D01*
X-130032Y2880D01*
X-129578Y3667D01*
X-129343Y4546D01*
Y5455D01*
X-129578Y6333D01*
X-130032Y7120D01*
X-130675Y7763D01*
X-131463Y8218D01*
X-132341Y8453D01*
D02*
G37*
G36*
Y-1547D02*
X-133250D01*
X-134128Y-1783D01*
X-134915Y-2237D01*
X-135558Y-2880D01*
X-136013Y-3667D01*
X-136248Y-4545D01*
Y-5455D01*
X-136013Y-6333D01*
X-135558Y-7120D01*
X-134915Y-7763D01*
X-134128Y-8217D01*
X-133250Y-8453D01*
X-132341D01*
X-131463Y-8217D01*
X-130675Y-7763D01*
X-130032Y-7120D01*
X-129578Y-6333D01*
X-129343Y-5455D01*
Y-4545D01*
X-129578Y-3667D01*
X-130032Y-2880D01*
X-130675Y-2237D01*
X-131463Y-1783D01*
X-132341Y-1547D01*
D02*
G37*
G36*
Y-11547D02*
X-133250D01*
X-134128Y-11783D01*
X-134915Y-12237D01*
X-135558Y-12880D01*
X-136013Y-13667D01*
X-136248Y-14545D01*
Y-15455D01*
X-136013Y-16333D01*
X-135558Y-17120D01*
X-134915Y-17763D01*
X-134128Y-18217D01*
X-133250Y-18453D01*
X-132341D01*
X-131463Y-18217D01*
X-130675Y-17763D01*
X-130032Y-17120D01*
X-129578Y-16333D01*
X-129343Y-15455D01*
Y-14545D01*
X-129578Y-13667D01*
X-130032Y-12880D01*
X-130675Y-12237D01*
X-131463Y-11783D01*
X-132341Y-11547D01*
D02*
G37*
G36*
Y-21547D02*
X-133250D01*
X-134128Y-21783D01*
X-134915Y-22237D01*
X-135558Y-22880D01*
X-136013Y-23667D01*
X-136248Y-24545D01*
Y-25455D01*
X-136013Y-26333D01*
X-135558Y-27120D01*
X-134915Y-27763D01*
X-134128Y-28218D01*
X-133250Y-28453D01*
X-132341D01*
X-131463Y-28218D01*
X-130675Y-27763D01*
X-130032Y-27120D01*
X-129578Y-26333D01*
X-129343Y-25455D01*
Y-24545D01*
X-129578Y-23667D01*
X-130032Y-22880D01*
X-130675Y-22237D01*
X-131463Y-21783D01*
X-132341Y-21547D01*
D02*
G37*
G36*
X-139343D02*
X-146248D01*
Y-28453D01*
X-139343D01*
Y-21547D01*
D02*
G37*
G36*
X120276Y-26642D02*
X118360D01*
Y-34396D01*
X122964D01*
Y-29331D01*
X122872Y-28635D01*
X122604Y-27986D01*
X122177Y-27430D01*
X121620Y-27003D01*
X120971Y-26734D01*
X120276Y-26642D01*
D02*
G37*
G36*
X117860D02*
X115945D01*
X115249Y-26734D01*
X114601Y-27003D01*
X114044Y-27430D01*
X113617Y-27986D01*
X113348Y-28635D01*
X113257Y-29331D01*
Y-34396D01*
X117860D01*
Y-26642D01*
D02*
G37*
G36*
X487744Y-42500D02*
X486823D01*
X485932Y-42739D01*
X485134Y-43199D01*
X484483Y-43851D01*
X484022Y-44649D01*
X483783Y-45539D01*
Y-46461D01*
X484022Y-47351D01*
X484483Y-48149D01*
X485134Y-48801D01*
X485932Y-49262D01*
X486823Y-49500D01*
X487744D01*
X488634Y-49262D01*
X489432Y-48801D01*
X490084Y-48149D01*
X490545Y-47351D01*
X490784Y-46461D01*
Y-45539D01*
X490545Y-44649D01*
X490084Y-43851D01*
X489432Y-43199D01*
X488634Y-42739D01*
X487744Y-42500D01*
D02*
G37*
G36*
X477744D02*
X476823D01*
X475933Y-42739D01*
X475134Y-43199D01*
X474483Y-43851D01*
X474022Y-44649D01*
X473783Y-45539D01*
Y-46461D01*
X474022Y-47351D01*
X474483Y-48149D01*
X475134Y-48801D01*
X475933Y-49262D01*
X476823Y-49500D01*
X477744D01*
X478634Y-49262D01*
X479432Y-48801D01*
X480084Y-48149D01*
X480545Y-47351D01*
X480784Y-46461D01*
Y-45539D01*
X480545Y-44649D01*
X480084Y-43851D01*
X479432Y-43199D01*
X478634Y-42739D01*
X477744Y-42500D01*
D02*
G37*
G36*
X349949D02*
X349027D01*
X348137Y-42739D01*
X347339Y-43199D01*
X346688Y-43851D01*
X346227Y-44649D01*
X345988Y-45539D01*
Y-46461D01*
X346227Y-47351D01*
X346688Y-48149D01*
X347339Y-48801D01*
X348137Y-49262D01*
X349027Y-49500D01*
X349949D01*
X350839Y-49262D01*
X351637Y-48801D01*
X352289Y-48149D01*
X352750Y-47351D01*
X352988Y-46461D01*
Y-45539D01*
X352750Y-44649D01*
X352289Y-43851D01*
X351637Y-43199D01*
X350839Y-42739D01*
X349949Y-42500D01*
D02*
G37*
G36*
X339949D02*
X339027D01*
X338137Y-42739D01*
X337339Y-43199D01*
X336687Y-43851D01*
X336227Y-44649D01*
X335988Y-45539D01*
Y-46461D01*
X336227Y-47351D01*
X336687Y-48149D01*
X337339Y-48801D01*
X338137Y-49262D01*
X339027Y-49500D01*
X339949D01*
X340839Y-49262D01*
X341637Y-48801D01*
X342289Y-48149D01*
X342750Y-47351D01*
X342988Y-46461D01*
Y-45539D01*
X342750Y-44649D01*
X342289Y-43851D01*
X341637Y-43199D01*
X340839Y-42739D01*
X339949Y-42500D01*
D02*
G37*
G36*
X212154D02*
X211232D01*
X210342Y-42739D01*
X209544Y-43199D01*
X208892Y-43851D01*
X208431Y-44649D01*
X208193Y-45539D01*
Y-46461D01*
X208431Y-47351D01*
X208892Y-48149D01*
X209544Y-48801D01*
X210342Y-49262D01*
X211232Y-49500D01*
X212154D01*
X213044Y-49262D01*
X213842Y-48801D01*
X214494Y-48149D01*
X214954Y-47351D01*
X215193Y-46461D01*
Y-45539D01*
X214954Y-44649D01*
X214494Y-43851D01*
X213842Y-43199D01*
X213044Y-42739D01*
X212154Y-42500D01*
D02*
G37*
G36*
X202154D02*
X201232D01*
X200342Y-42739D01*
X199544Y-43199D01*
X198892Y-43851D01*
X198431Y-44649D01*
X198193Y-45539D01*
Y-46461D01*
X198431Y-47351D01*
X198892Y-48149D01*
X199544Y-48801D01*
X200342Y-49262D01*
X201232Y-49500D01*
X202154D01*
X203044Y-49262D01*
X203842Y-48801D01*
X204494Y-48149D01*
X204954Y-47351D01*
X205193Y-46461D01*
Y-45539D01*
X204954Y-44649D01*
X204494Y-43851D01*
X203842Y-43199D01*
X203044Y-42739D01*
X202154Y-42500D01*
D02*
G37*
G36*
X74358D02*
X73437D01*
X72547Y-42739D01*
X71749Y-43199D01*
X71097Y-43851D01*
X70636Y-44649D01*
X70398Y-45539D01*
Y-46461D01*
X70636Y-47351D01*
X71097Y-48149D01*
X71749Y-48801D01*
X72547Y-49262D01*
X73437Y-49500D01*
X74358D01*
X75249Y-49262D01*
X76047Y-48801D01*
X76698Y-48149D01*
X77159Y-47351D01*
X77398Y-46461D01*
Y-45539D01*
X77159Y-44649D01*
X76698Y-43851D01*
X76047Y-43199D01*
X75249Y-42739D01*
X74358Y-42500D01*
D02*
G37*
G36*
X64358D02*
X63437D01*
X62547Y-42739D01*
X61749Y-43199D01*
X61097Y-43851D01*
X60636Y-44649D01*
X60398Y-45539D01*
Y-46461D01*
X60636Y-47351D01*
X61097Y-48149D01*
X61749Y-48801D01*
X62547Y-49262D01*
X63437Y-49500D01*
X64358D01*
X65249Y-49262D01*
X66047Y-48801D01*
X66698Y-48149D01*
X67159Y-47351D01*
X67398Y-46461D01*
Y-45539D01*
X67159Y-44649D01*
X66698Y-43851D01*
X66047Y-43199D01*
X65249Y-42739D01*
X64358Y-42500D01*
D02*
G37*
G36*
X159646Y-26642D02*
X155315D01*
X154619Y-26734D01*
X153971Y-27003D01*
X153414Y-27430D01*
X152987Y-27986D01*
X152718Y-28635D01*
X152627Y-29331D01*
Y-39961D01*
X152718Y-40656D01*
X152987Y-41305D01*
X153414Y-41862D01*
X153971Y-42289D01*
X154619Y-42557D01*
X155315Y-42649D01*
X156461D01*
Y-45097D01*
X147578Y-53980D01*
X144595D01*
Y-51547D01*
X138476D01*
Y-56617D01*
X137614Y-57479D01*
X137114Y-57272D01*
Y-55250D01*
X134305D01*
Y-58453D01*
X135934D01*
X136141Y-58953D01*
X131178Y-63916D01*
X75231D01*
X62595Y-51279D01*
X62264Y-51058D01*
X61874Y-50980D01*
X-25167D01*
X-25204Y-50842D01*
X-25599Y-50158D01*
X-26158Y-49599D01*
X-26842Y-49204D01*
X-27605Y-49000D01*
X-28395D01*
X-29158Y-49204D01*
X-29842Y-49599D01*
X-30401Y-50158D01*
X-30796Y-50842D01*
X-31000Y-51605D01*
Y-52395D01*
X-30796Y-53158D01*
X-30401Y-53842D01*
X-29842Y-54401D01*
X-29158Y-54796D01*
X-28395Y-55000D01*
X-27605D01*
X-26842Y-54796D01*
X-26158Y-54401D01*
X-25599Y-53842D01*
X-25204Y-53158D01*
X-25167Y-53020D01*
X61451D01*
X74088Y-65656D01*
X74419Y-65877D01*
X74809Y-65955D01*
X131600D01*
X131991Y-65877D01*
X132321Y-65656D01*
X137572Y-60405D01*
X137626Y-60395D01*
X137957Y-60174D01*
X138835Y-59295D01*
X139056Y-58964D01*
X139067Y-58911D01*
X139525Y-58453D01*
X144595D01*
Y-56020D01*
X148000D01*
X148390Y-55942D01*
X148721Y-55721D01*
X158201Y-46241D01*
X158422Y-45910D01*
X158500Y-45520D01*
Y-42649D01*
X159646D01*
X160342Y-42557D01*
X160990Y-42289D01*
X161547Y-41862D01*
X161974Y-41305D01*
X162242Y-40656D01*
X162334Y-39961D01*
Y-29331D01*
X162242Y-28635D01*
X161974Y-27986D01*
X161547Y-27430D01*
X160990Y-27003D01*
X160342Y-26734D01*
X159646Y-26642D01*
D02*
G37*
G36*
X137114Y-51547D02*
X134305D01*
Y-54750D01*
X137114D01*
Y-51547D01*
D02*
G37*
G36*
X122964Y-34896D02*
X118110D01*
X113257D01*
Y-39961D01*
X113348Y-40656D01*
X113617Y-41305D01*
X114044Y-41862D01*
X114601Y-42289D01*
X115249Y-42557D01*
X115945Y-42649D01*
X117091D01*
Y-45610D01*
X117168Y-46000D01*
X117389Y-46331D01*
X126779Y-55721D01*
X127110Y-55942D01*
X127500Y-56020D01*
X130996D01*
Y-58453D01*
X133805D01*
Y-55000D01*
Y-51547D01*
X130996D01*
Y-53980D01*
X127922D01*
X119130Y-45188D01*
Y-42649D01*
X120276D01*
X120971Y-42557D01*
X121620Y-42289D01*
X122177Y-41862D01*
X122604Y-41305D01*
X122872Y-40656D01*
X122964Y-39961D01*
Y-34896D01*
D02*
G37*
G36*
X-70105Y-59000D02*
X-70895D01*
X-71658Y-59204D01*
X-72342Y-59599D01*
X-72901Y-60158D01*
X-73296Y-60842D01*
X-73438Y-61373D01*
X-176137D01*
X-176385Y-60944D01*
X-176944Y-60386D01*
X-177628Y-59991D01*
X-178391Y-59786D01*
X-179181D01*
X-179944Y-59991D01*
X-180628Y-60386D01*
X-181187Y-60944D01*
X-181582Y-61628D01*
X-181786Y-62391D01*
Y-63181D01*
X-181657Y-63662D01*
X-182087Y-63991D01*
X-182113Y-63976D01*
X-182876Y-63771D01*
X-183666D01*
X-184429Y-63976D01*
X-185113Y-64371D01*
X-185672Y-64929D01*
X-186067Y-65613D01*
X-186271Y-66376D01*
Y-67166D01*
X-186102Y-67798D01*
X-186179Y-67937D01*
X-186320Y-68086D01*
X-186493Y-68192D01*
X-187105Y-68028D01*
X-187895D01*
X-188658Y-68232D01*
X-189342Y-68627D01*
X-189901Y-69186D01*
X-190296Y-69870D01*
X-190500Y-70633D01*
Y-71423D01*
X-190296Y-72186D01*
X-190286Y-72202D01*
X-190616Y-72631D01*
X-191105Y-72500D01*
X-191895D01*
X-192658Y-72704D01*
X-193342Y-73099D01*
X-193901Y-73658D01*
X-194296Y-74342D01*
X-194500Y-75105D01*
Y-75895D01*
X-194296Y-76658D01*
X-193901Y-77342D01*
X-193342Y-77901D01*
X-192658Y-78296D01*
X-191895Y-78500D01*
X-191105D01*
X-190342Y-78296D01*
X-189658Y-77901D01*
X-189099Y-77342D01*
X-188704Y-76658D01*
X-188600Y-76270D01*
X-58942D01*
X-58901Y-76342D01*
X-58342Y-76901D01*
X-57658Y-77296D01*
X-56895Y-77500D01*
X-56105D01*
X-55342Y-77296D01*
X-54658Y-76901D01*
X-54099Y-76342D01*
X-53704Y-75658D01*
X-53500Y-74895D01*
Y-74105D01*
X-53704Y-73342D01*
X-54099Y-72658D01*
X-54658Y-72099D01*
X-55342Y-71704D01*
X-56105Y-71500D01*
X-56895D01*
X-57658Y-71704D01*
X-58342Y-72099D01*
X-58901Y-72658D01*
X-59296Y-73342D01*
X-59500Y-74105D01*
Y-74230D01*
X-186047D01*
X-186181Y-73730D01*
X-185658Y-73428D01*
X-185099Y-72870D01*
X-184704Y-72186D01*
X-184599Y-71791D01*
X-64778D01*
X-64460Y-72342D01*
X-63901Y-72901D01*
X-63217Y-73296D01*
X-62454Y-73500D01*
X-61664D01*
X-60901Y-73296D01*
X-60217Y-72901D01*
X-59659Y-72342D01*
X-59264Y-71658D01*
X-59059Y-70895D01*
Y-70105D01*
X-59264Y-69342D01*
X-59659Y-68658D01*
X-60217Y-68099D01*
X-60901Y-67704D01*
X-61664Y-67500D01*
X-62454D01*
X-62925Y-67626D01*
X-63255Y-67197D01*
X-63232Y-67158D01*
X-63028Y-66395D01*
Y-65605D01*
X-63232Y-64842D01*
X-63627Y-64158D01*
X-64186Y-63599D01*
X-64870Y-63204D01*
X-65633Y-63000D01*
X-66423D01*
X-67186Y-63204D01*
X-67202Y-63214D01*
X-67631Y-62884D01*
X-67500Y-62395D01*
Y-61605D01*
X-67704Y-60842D01*
X-68099Y-60158D01*
X-68658Y-59599D01*
X-69342Y-59204D01*
X-70105Y-59000D01*
D02*
G37*
G36*
X-270136Y-58047D02*
X-271045D01*
X-271923Y-58283D01*
X-272711Y-58737D01*
X-273354Y-59380D01*
X-273808Y-60167D01*
X-274043Y-61045D01*
Y-61955D01*
X-273808Y-62833D01*
X-273354Y-63620D01*
X-272711Y-64263D01*
X-271923Y-64717D01*
X-271045Y-64953D01*
X-270136D01*
X-269258Y-64717D01*
X-268471Y-64263D01*
X-267828Y-63620D01*
X-267373Y-62833D01*
X-267138Y-61955D01*
Y-61045D01*
X-267373Y-60167D01*
X-267828Y-59380D01*
X-268471Y-58737D01*
X-269258Y-58283D01*
X-270136Y-58047D01*
D02*
G37*
G36*
X-277138D02*
X-284043D01*
Y-64953D01*
X-277138D01*
Y-58047D01*
D02*
G37*
G36*
X487738Y-66547D02*
X486829D01*
X485951Y-66783D01*
X485163Y-67237D01*
X484521Y-67880D01*
X484066Y-68667D01*
X483831Y-69545D01*
Y-70455D01*
X484066Y-71333D01*
X484521Y-72120D01*
X485163Y-72763D01*
X485951Y-73217D01*
X486829Y-73453D01*
X487738D01*
X488616Y-73217D01*
X489403Y-72763D01*
X490046Y-72120D01*
X490501Y-71333D01*
X490736Y-70455D01*
Y-69545D01*
X490501Y-68667D01*
X490046Y-67880D01*
X489403Y-67237D01*
X488616Y-66783D01*
X487738Y-66547D01*
D02*
G37*
G36*
X480736D02*
X473831D01*
Y-73453D01*
X480736D01*
Y-66547D01*
D02*
G37*
G36*
X-51605Y-76500D02*
X-52395D01*
X-53158Y-76704D01*
X-53842Y-77099D01*
X-54401Y-77658D01*
X-54796Y-78342D01*
X-55000Y-79105D01*
Y-79230D01*
X-193058D01*
X-193099Y-79158D01*
X-193658Y-78599D01*
X-194342Y-78204D01*
X-195105Y-78000D01*
X-195895D01*
X-196658Y-78204D01*
X-197342Y-78599D01*
X-197901Y-79158D01*
X-198296Y-79842D01*
X-198500Y-80605D01*
Y-81395D01*
X-198296Y-82158D01*
X-197901Y-82842D01*
X-197342Y-83401D01*
X-196658Y-83796D01*
X-195895Y-84000D01*
X-195105D01*
X-194342Y-83796D01*
X-193658Y-83401D01*
X-193099Y-82842D01*
X-192704Y-82158D01*
X-192500Y-81395D01*
Y-81270D01*
X-54442D01*
X-54401Y-81342D01*
X-53842Y-81901D01*
X-53158Y-82296D01*
X-52395Y-82500D01*
X-51605D01*
X-50842Y-82296D01*
X-50158Y-81901D01*
X-49599Y-81342D01*
X-49204Y-80658D01*
X-49000Y-79895D01*
Y-79105D01*
X-49204Y-78342D01*
X-49599Y-77658D01*
X-50158Y-77099D01*
X-50842Y-76704D01*
X-51605Y-76500D01*
D02*
G37*
G36*
X532310Y-68398D02*
X530682D01*
X529074Y-68652D01*
X527526Y-69155D01*
X526075Y-69894D01*
X524758Y-70851D01*
X523607Y-72003D01*
X522650Y-73320D01*
X521911Y-74770D01*
X521408Y-76318D01*
X521153Y-77926D01*
Y-79554D01*
X521408Y-81162D01*
X521911Y-82710D01*
X522650Y-84161D01*
X523607Y-85478D01*
X524758Y-86629D01*
X526075Y-87586D01*
X527526Y-88325D01*
X529074Y-88828D01*
X530682Y-89083D01*
X532310D01*
X533918Y-88828D01*
X535466Y-88325D01*
X536917Y-87586D01*
X538234Y-86629D01*
X539385Y-85478D01*
X540342Y-84161D01*
X541081Y-82710D01*
X541584Y-81162D01*
X541839Y-79554D01*
Y-77926D01*
X541584Y-76318D01*
X541081Y-74770D01*
X540342Y-73320D01*
X539385Y-72003D01*
X538234Y-70851D01*
X536917Y-69894D01*
X535466Y-69155D01*
X533918Y-68652D01*
X532310Y-68398D01*
D02*
G37*
G36*
X814D02*
X-814D01*
X-2422Y-68652D01*
X-3970Y-69155D01*
X-5421Y-69894D01*
X-6738Y-70851D01*
X-7889Y-72003D01*
X-8846Y-73320D01*
X-9585Y-74770D01*
X-10088Y-76318D01*
X-10343Y-77926D01*
Y-79554D01*
X-10088Y-81162D01*
X-9585Y-82710D01*
X-8846Y-84161D01*
X-7889Y-85478D01*
X-6738Y-86629D01*
X-5421Y-87586D01*
X-3970Y-88325D01*
X-2422Y-88828D01*
X-814Y-89083D01*
X814D01*
X2422Y-88828D01*
X3970Y-88325D01*
X5421Y-87586D01*
X6738Y-86629D01*
X7889Y-85478D01*
X8846Y-84161D01*
X9585Y-82710D01*
X10088Y-81162D01*
X10343Y-79554D01*
Y-77926D01*
X10088Y-76318D01*
X9585Y-74770D01*
X8846Y-73320D01*
X7889Y-72003D01*
X6738Y-70851D01*
X5421Y-69894D01*
X3970Y-69155D01*
X2422Y-68652D01*
X814Y-68398D01*
D02*
G37*
G36*
X-530682D02*
X-532310D01*
X-533918Y-68652D01*
X-535466Y-69155D01*
X-536917Y-69894D01*
X-538234Y-70851D01*
X-539385Y-72003D01*
X-540342Y-73320D01*
X-541081Y-74770D01*
X-541584Y-76318D01*
X-541839Y-77926D01*
Y-79554D01*
X-541584Y-81162D01*
X-541081Y-82710D01*
X-540342Y-84161D01*
X-539385Y-85478D01*
X-538234Y-86629D01*
X-536917Y-87586D01*
X-535466Y-88325D01*
X-533918Y-88828D01*
X-532310Y-89083D01*
X-530682D01*
X-529074Y-88828D01*
X-527526Y-88325D01*
X-526075Y-87586D01*
X-524758Y-86629D01*
X-523607Y-85478D01*
X-522650Y-84161D01*
X-521911Y-82710D01*
X-521408Y-81162D01*
X-521153Y-79554D01*
Y-77926D01*
X-521408Y-76318D01*
X-521911Y-74770D01*
X-522650Y-73320D01*
X-523607Y-72003D01*
X-524758Y-70851D01*
X-526075Y-69894D01*
X-527526Y-69155D01*
X-529074Y-68652D01*
X-530682Y-68398D01*
D02*
G37*
%LPD*%
G36*
X-72901Y-63842D02*
X-72342Y-64401D01*
X-71658Y-64796D01*
X-70895Y-65000D01*
X-70105D01*
X-69342Y-64796D01*
X-69326Y-64786D01*
X-68897Y-65116D01*
X-69028Y-65605D01*
Y-65767D01*
X-176948D01*
X-177082Y-65267D01*
X-176944Y-65187D01*
X-176385Y-64628D01*
X-175990Y-63944D01*
X-175848Y-63413D01*
X-73149D01*
X-72901Y-63842D01*
D02*
G37*
G36*
X-68428Y-67842D02*
X-67870Y-68401D01*
X-67186Y-68796D01*
X-66423Y-69000D01*
X-65633D01*
X-65162Y-68874D01*
X-64832Y-69303D01*
X-64855Y-69342D01*
X-64965Y-69752D01*
X-181433D01*
X-181568Y-69252D01*
X-181429Y-69172D01*
X-180871Y-68613D01*
X-180476Y-67929D01*
X-180443Y-67806D01*
X-68449D01*
X-68428Y-67842D01*
D02*
G37*
%LPC*%
G36*
X-275136Y28453D02*
X-275341D01*
Y25250D01*
X-272138D01*
Y25455D01*
X-272373Y26333D01*
X-272828Y27120D01*
X-273470Y27763D01*
X-274258Y28218D01*
X-275136Y28453D01*
D02*
G37*
G36*
X-275841D02*
X-276045D01*
X-276923Y28218D01*
X-277711Y27763D01*
X-278353Y27120D01*
X-278808Y26333D01*
X-279043Y25455D01*
Y25250D01*
X-275841D01*
Y28453D01*
D02*
G37*
G36*
X-272138Y24750D02*
X-275341D01*
Y21547D01*
X-275136D01*
X-274258Y21783D01*
X-273470Y22237D01*
X-272828Y22880D01*
X-272373Y23667D01*
X-272138Y24545D01*
Y24750D01*
D02*
G37*
G36*
X-275841D02*
X-279043D01*
Y24545D01*
X-278808Y23667D01*
X-278353Y22880D01*
X-277711Y22237D01*
X-276923Y21783D01*
X-276045Y21547D01*
X-275841D01*
Y24750D01*
D02*
G37*
G36*
X-275136Y18453D02*
X-276045D01*
X-276923Y18217D01*
X-277711Y17763D01*
X-278353Y17120D01*
X-278808Y16333D01*
X-279043Y15455D01*
Y14545D01*
X-278808Y13667D01*
X-278353Y12880D01*
X-277711Y12237D01*
X-276923Y11783D01*
X-276045Y11547D01*
X-275136D01*
X-274258Y11783D01*
X-273470Y12237D01*
X-272828Y12880D01*
X-272373Y13667D01*
X-272138Y14545D01*
Y15455D01*
X-272373Y16333D01*
X-272828Y17120D01*
X-273470Y17763D01*
X-274258Y18217D01*
X-275136Y18453D01*
D02*
G37*
G36*
Y8453D02*
X-276045D01*
X-276923Y8217D01*
X-277711Y7763D01*
X-278353Y7120D01*
X-278808Y6333D01*
X-279043Y5455D01*
Y4545D01*
X-278808Y3667D01*
X-278353Y2880D01*
X-277711Y2237D01*
X-276923Y1783D01*
X-276045Y1547D01*
X-275136D01*
X-274258Y1783D01*
X-273470Y2237D01*
X-272828Y2880D01*
X-272373Y3667D01*
X-272138Y4545D01*
Y5455D01*
X-272373Y6333D01*
X-272828Y7120D01*
X-273470Y7763D01*
X-274258Y8217D01*
X-275136Y8453D01*
D02*
G37*
G36*
Y-1547D02*
X-276045D01*
X-276923Y-1783D01*
X-277711Y-2237D01*
X-278353Y-2880D01*
X-278808Y-3667D01*
X-279043Y-4545D01*
Y-5455D01*
X-278808Y-6333D01*
X-278353Y-7120D01*
X-277711Y-7763D01*
X-276923Y-8217D01*
X-276045Y-8453D01*
X-275136D01*
X-274258Y-8217D01*
X-273470Y-7763D01*
X-272828Y-7120D01*
X-272373Y-6333D01*
X-272138Y-5455D01*
Y-4545D01*
X-272373Y-3667D01*
X-272828Y-2880D01*
X-273470Y-2237D01*
X-274258Y-1783D01*
X-275136Y-1547D01*
D02*
G37*
G36*
Y-11547D02*
X-276045D01*
X-276923Y-11783D01*
X-277711Y-12237D01*
X-278353Y-12880D01*
X-278808Y-13667D01*
X-279043Y-14545D01*
Y-15455D01*
X-278808Y-16333D01*
X-278353Y-17120D01*
X-277711Y-17763D01*
X-276923Y-18217D01*
X-276045Y-18453D01*
X-275136D01*
X-274258Y-18217D01*
X-273470Y-17763D01*
X-272828Y-17120D01*
X-272373Y-16333D01*
X-272138Y-15455D01*
Y-14545D01*
X-272373Y-13667D01*
X-272828Y-12880D01*
X-273470Y-12237D01*
X-274258Y-11783D01*
X-275136Y-11547D01*
D02*
G37*
G36*
X-272138Y-21547D02*
X-279043D01*
Y-28453D01*
X-272138D01*
Y-21547D01*
D02*
G37*
%LPD*%
D10*
X-339488Y-46000D02*
X-264500D01*
X-391488Y-6000D02*
X-339488Y46000D01*
X-349488Y-46000D02*
X-342488Y-39000D01*
X-211693Y17590D02*
Y46000D01*
X-268283Y-39000D02*
X-211693Y17590D01*
X-342488Y-39000D02*
X-268283D01*
X-395488Y0D02*
X-349488Y46000D01*
X-441284Y0D02*
X-395488D01*
X-487284Y-46000D02*
X-441284Y0D01*
X-437284Y-6000D02*
X-391488D01*
X-477283Y-46000D02*
X-437284Y-6000D01*
X-201693Y16807D02*
Y46000D01*
X-264500Y-46000D02*
X-201693Y16807D01*
X3500Y-18000D02*
Y6000D01*
X3000Y-18500D02*
X3500Y-18000D01*
X-30000Y39500D02*
X3500Y6000D01*
X-28000Y-52000D02*
X61874D01*
X74809Y-64935D01*
X-52750Y-80250D02*
X-52000Y-79500D01*
X-194750Y-80250D02*
X-52750D01*
X-195500Y-81000D02*
X-194750Y-80250D01*
X-57250Y-75250D02*
X-56500Y-74500D01*
X-191250Y-75250D02*
X-57250D01*
X-191500Y-75500D02*
X-191250Y-75250D01*
X-187500Y-71028D02*
X-187243Y-70771D01*
X-62331D02*
X-62059Y-70500D01*
X-187243Y-70771D02*
X-62331D01*
X-67896Y-66786D02*
X-67110Y-66000D01*
X-183257Y-66786D02*
X-67896D01*
X-67110Y-66000D02*
X-66028D01*
X-178786Y-62786D02*
X-178393Y-62393D01*
X-70893D02*
X-70500Y-62000D01*
X-178393Y-62393D02*
X-70893D01*
X-183271Y-66771D02*
X-183257Y-66786D01*
X-52000Y-16000D02*
Y12500D01*
X-45000Y19500D02*
X-30000D01*
X-52000Y12500D02*
X-45000Y19500D01*
X-58500Y26500D02*
X-45500Y39500D01*
X-58500Y-11343D02*
Y26500D01*
X-45500Y39500D02*
X-30000D01*
X-92500Y-56500D02*
X-66500Y-30500D01*
X-30000D01*
X-63898Y-46000D02*
X33142D01*
X-68898Y-41000D02*
X35313D01*
X63898Y-12416D01*
X-73898Y-4398D02*
Y46000D01*
X-63898Y-9398D02*
Y46000D01*
X-73898Y-46000D02*
X-68898Y-41000D01*
X-100500Y-46000D02*
X-63898Y-9398D01*
X-201693Y-46000D02*
X-100500D01*
X-108500Y-39000D02*
X-73898Y-4398D01*
X-201057Y-39000D02*
X-108500D01*
X-207193Y-45136D02*
X-201057Y-39000D01*
X-210829Y-45136D02*
X-207193D01*
X-211693Y-46000D02*
X-210829Y-45136D01*
X63898Y-12416D02*
Y46000D01*
X73898Y-5244D02*
Y46000D01*
X33142Y-46000D02*
X73898Y-5244D01*
X-92000Y-50500D02*
X-62000Y-20500D01*
X-75828Y-28672D02*
X-58500Y-11343D01*
X-494500Y-50500D02*
X-92000D01*
X-62000Y-20500D02*
X-30000D01*
X-500000Y-56500D02*
X-92500D01*
X-158336Y-15000D02*
X-142795D01*
X-178336Y-35000D02*
X-158336Y-15000D01*
X-183500Y-31944D02*
X-156556Y-5000D01*
X-142795D01*
X-187500Y-27472D02*
Y-13500D01*
X-169000Y5000D01*
X-191500Y-23000D02*
Y-4500D01*
X-172000Y15000D01*
X-195500Y-17500D02*
Y1500D01*
X-172000Y25000D01*
X114406Y39461D02*
X118110Y35757D01*
X-169000Y5000D02*
X-142795D01*
X-508000Y-37000D02*
X-494500Y-50500D01*
X-172000Y15000D02*
X-142795D01*
X-172000Y25000D02*
X-142795D01*
X74809Y-64935D02*
X131600D01*
X137083Y-59453D01*
X138114Y-58574D02*
Y-58421D01*
X137235Y-59453D02*
X138114Y-58574D01*
Y-58421D02*
X141535Y-55000D01*
X137083Y-59453D02*
X137235D01*
X157480Y31496D02*
Y35757D01*
X118110D02*
Y45110D01*
Y31496D02*
Y35757D01*
X157480D02*
Y44520D01*
Y35757D02*
X161184Y39461D01*
X148000Y-55000D02*
X157480Y-45520D01*
X141535Y-55000D02*
X148000D01*
X127500D02*
X134055D01*
X118110Y-45610D02*
X127500Y-55000D01*
X142717Y56181D02*
Y79567D01*
X132874Y56181D02*
Y79567D01*
Y56181D02*
X134055Y55000D01*
X141535D02*
X142717Y56181D01*
X-517000Y16284D02*
X-487284Y46000D01*
X-517000Y-39500D02*
X-500000Y-56500D01*
X157480Y-45520D02*
Y-31496D01*
X118110Y-45610D02*
Y-31496D01*
X128000Y55000D02*
X134055D01*
X118110Y45110D02*
X128000Y55000D01*
X147000Y55000D02*
X157480Y44520D01*
X141535Y55000D02*
X147000Y55000D01*
X-517000Y-39500D02*
Y16284D01*
X-508000Y15283D02*
X-477283Y46000D01*
X-508000Y-37000D02*
Y15283D01*
D11*
X142717Y79567D02*
D03*
D12*
X132874D02*
D03*
D19*
X285433Y-77067D02*
D03*
X275590D02*
D03*
D20*
X265748D02*
D03*
D22*
X221693Y46000D02*
D03*
X211693D02*
D03*
X191693D02*
D03*
X201693D02*
D03*
X211693Y-46000D02*
D03*
X201693D02*
D03*
X-487284D02*
D03*
X-477283D02*
D03*
X-487284Y46000D02*
D03*
X-497284D02*
D03*
X-477283D02*
D03*
X-467283D02*
D03*
X-329488D02*
D03*
X-339488D02*
D03*
X-359488D02*
D03*
X-349488D02*
D03*
X-339488Y-46000D02*
D03*
X-349488D02*
D03*
X-211693D02*
D03*
X-201693D02*
D03*
X-211693Y46000D02*
D03*
X-221693D02*
D03*
X-201693D02*
D03*
X-191693D02*
D03*
X-53898D02*
D03*
X-63898D02*
D03*
X-83898D02*
D03*
X-73898D02*
D03*
X-63898Y-46000D02*
D03*
X-73898D02*
D03*
X63898D02*
D03*
X73898D02*
D03*
X63898Y46000D02*
D03*
X53898D02*
D03*
X73898D02*
D03*
X83898D02*
D03*
X339488Y-46000D02*
D03*
X349488D02*
D03*
X339488Y46000D02*
D03*
X329488D02*
D03*
X349488D02*
D03*
X359488D02*
D03*
X497284D02*
D03*
X487284D02*
D03*
X467283D02*
D03*
X477283D02*
D03*
X487284Y-46000D02*
D03*
X477283D02*
D03*
D23*
X-531496Y-78740D02*
D03*
Y78740D02*
D03*
X531496D02*
D03*
Y-78740D02*
D03*
X0Y78740D02*
D03*
Y-78740D02*
D03*
D24*
X477283Y-70000D02*
D03*
X-280591Y-61500D02*
D03*
X265591Y-45000D02*
D03*
D25*
X487284Y-70000D02*
D03*
X-132795Y25000D02*
D03*
X-142795Y25000D02*
D03*
X-132795Y15000D02*
D03*
X-142795Y15000D02*
D03*
X-132795Y5000D02*
D03*
X-142795Y5000D02*
D03*
X-132795Y-5000D02*
D03*
X-142795D02*
D03*
X-132795Y-15000D02*
D03*
X-142795Y-15000D02*
D03*
X-132795Y-25000D02*
D03*
X-270591Y-61500D02*
D03*
X275591Y-45000D02*
D03*
X285591D02*
D03*
X-275590Y-15000D02*
D03*
Y-5000D02*
D03*
Y5000D02*
D03*
Y15000D02*
D03*
Y25000D02*
D03*
D26*
X-142795Y-25000D02*
D03*
X-275590D02*
D03*
D27*
X118110Y-34646D02*
D03*
X157480D02*
D03*
X118110Y34646D02*
D03*
X157480D02*
D03*
D28*
X33150Y-30500D02*
D03*
Y39500D02*
D03*
Y29500D02*
D03*
Y19500D02*
D03*
Y9500D02*
D03*
Y-500D02*
D03*
Y-10500D02*
D03*
Y-20500D02*
D03*
X-33150Y-30500D02*
D03*
Y-20500D02*
D03*
Y-10500D02*
D03*
Y-500D02*
D03*
Y9500D02*
D03*
Y19500D02*
D03*
Y29500D02*
D03*
Y39500D02*
D03*
D29*
X3000Y-18500D02*
D03*
X-28000Y-52000D02*
D03*
X-52000Y-79500D02*
D03*
X-56500Y-74500D02*
D03*
X-62059Y-70500D02*
D03*
X-66028Y-66000D02*
D03*
X-70500Y-62000D02*
D03*
X-52000Y-16000D02*
D03*
X-75828Y-28672D02*
D03*
X-178336Y-35000D02*
D03*
X-178786Y-62786D02*
D03*
X-183271Y-66771D02*
D03*
X-187500Y-71028D02*
D03*
X-191500Y-75500D02*
D03*
X-195500Y-81000D02*
D03*
X-183500Y-31944D02*
D03*
X-187500Y-27472D02*
D03*
X-191500Y-23000D02*
D03*
X-195500Y-17500D02*
D03*
D30*
X134055Y-55000D02*
D03*
X141535D02*
D03*
X134055Y55000D02*
D03*
X141535D02*
D03*
M02*
