G04*
G04 #@! TF.GenerationSoftware,Altium Limited,Altium Designer,22.0.2 (36)*
G04*
G04 Layer_Color=65535*
%FSLAX25Y25*%
%MOIN*%
G70*
G04*
G04 #@! TF.SameCoordinates,06193FC8-5D6C-4A92-8117-1C24C744AA4C*
G04*
G04*
G04 #@! TF.FilePolarity,Positive*
G04*
G01*
G75*
%ADD10C,0.01000*%
%ADD11C,0.00787*%
D10*
X127953Y0D02*
G03*
X127953Y0I-59055J0D01*
G01*
X-9843D02*
G03*
X-9843Y0I-59055J0D01*
G01*
X-2777Y63624D02*
X-3776Y64623D01*
X-5776D01*
X-6775Y63624D01*
Y59625D01*
X-5776Y58625D01*
X-3776D01*
X-2777Y59625D01*
X-777Y63624D02*
X222Y64623D01*
X2222D01*
X3221Y63624D01*
Y62624D01*
X2222Y61624D01*
X1222D01*
X2222D01*
X3221Y60625D01*
Y59625D01*
X2222Y58625D01*
X222D01*
X-777Y59625D01*
X26625Y12825D02*
Y18823D01*
X29624D01*
X30623Y17824D01*
Y15824D01*
X29624Y14825D01*
X26625D01*
X36622Y12825D02*
X32623D01*
X36622Y16824D01*
Y17824D01*
X35622Y18823D01*
X33623D01*
X32623Y17824D01*
X-111175Y12825D02*
Y18823D01*
X-108176D01*
X-107176Y17824D01*
Y15824D01*
X-108176Y14825D01*
X-111175D01*
X-105177Y17824D02*
X-104177Y18823D01*
X-102178D01*
X-101178Y17824D01*
Y16824D01*
X-102178Y15824D01*
X-103178D01*
X-102178D01*
X-101178Y14825D01*
Y13825D01*
X-102178Y12825D01*
X-104177D01*
X-105177Y13825D01*
D11*
X-7300Y55183D02*
X-1969D01*
X-7300Y47183D02*
X-1969D01*
X-7350Y47246D02*
Y55120D01*
X7400Y47246D02*
Y55120D01*
X1969Y55183D02*
X7400D01*
X1969Y47183D02*
X7400D01*
X-111811Y-12638D02*
Y9449D01*
X-104724D01*
Y-12638D02*
Y9449D01*
X-111811Y-12638D02*
X-104724D01*
X25984D02*
Y9449D01*
X33071D01*
Y-12638D02*
Y9449D01*
X25984Y-12638D02*
X33071D01*
M02*
