G04*
G04 #@! TF.GenerationSoftware,Altium Limited,Altium Designer,22.0.2 (36)*
G04*
G04 Layer_Physical_Order=2*
G04 Layer_Color=16711680*
%FSLAX25Y25*%
%MOIN*%
G70*
G04*
G04 #@! TF.SameCoordinates,06193FC8-5D6C-4A92-8117-1C24C744AA4C*
G04*
G04*
G04 #@! TF.FilePolarity,Positive*
G04*
G01*
G75*
%ADD10C,0.01000*%
%ADD14C,0.05512*%
%ADD15R,0.05512X0.05512*%
%ADD16R,0.06102X0.06102*%
%ADD17C,0.06102*%
%ADD18C,0.04331*%
%ADD22C,0.19685*%
%ADD23R,0.03937X0.03937*%
%ADD24C,0.03937*%
G36*
X136872Y-97622D02*
X-136872D01*
Y97622D01*
X136872D01*
Y-97622D01*
D02*
G37*
%LPC*%
G36*
X-4671Y84356D02*
Y81057D01*
X-1372D01*
X-1462Y81734D01*
X-1819Y82598D01*
X-2389Y83340D01*
X-3130Y83909D01*
X-3994Y84267D01*
X-4671Y84356D01*
D02*
G37*
G36*
X-5171D02*
X-5848Y84267D01*
X-6712Y83909D01*
X-7454Y83340D01*
X-8023Y82598D01*
X-8381Y81734D01*
X-8470Y81057D01*
X-5171D01*
Y84356D01*
D02*
G37*
G36*
X118360Y89095D02*
Y78990D01*
X128465D01*
X128357Y80363D01*
X127977Y81946D01*
X127354Y83450D01*
X126503Y84838D01*
X125446Y86076D01*
X124208Y87133D01*
X122820Y87984D01*
X121316Y88607D01*
X119733Y88987D01*
X118360Y89095D01*
D02*
G37*
G36*
X117860D02*
X116487Y88987D01*
X114904Y88607D01*
X113400Y87984D01*
X112012Y87133D01*
X110774Y86076D01*
X109717Y84838D01*
X108867Y83450D01*
X108244Y81946D01*
X107863Y80363D01*
X107755Y78990D01*
X117860D01*
Y89095D01*
D02*
G37*
G36*
X-117860D02*
Y78990D01*
X-107755D01*
X-107863Y80363D01*
X-108244Y81946D01*
X-108867Y83450D01*
X-109717Y84838D01*
X-110774Y86076D01*
X-112012Y87133D01*
X-113400Y87984D01*
X-114904Y88607D01*
X-116487Y88987D01*
X-117860Y89095D01*
D02*
G37*
G36*
X-118360D02*
X-119733Y88987D01*
X-121316Y88607D01*
X-122820Y87984D01*
X-124208Y87133D01*
X-125446Y86076D01*
X-126503Y84838D01*
X-127354Y83450D01*
X-127977Y81946D01*
X-128357Y80363D01*
X-128465Y78990D01*
X-118360D01*
Y89095D01*
D02*
G37*
G36*
X-1372Y80557D02*
X-4671D01*
Y77258D01*
X-3994Y77347D01*
X-3130Y77705D01*
X-2389Y78274D01*
X-1819Y79016D01*
X-1462Y79880D01*
X-1372Y80557D01*
D02*
G37*
G36*
X-5171D02*
X-8470D01*
X-8381Y79880D01*
X-8023Y79016D01*
X-7454Y78274D01*
X-6712Y77705D01*
X-5848Y77347D01*
X-5171Y77258D01*
Y80557D01*
D02*
G37*
G36*
X8472Y84358D02*
X1370D01*
Y77256D01*
X8472D01*
Y84358D01*
D02*
G37*
G36*
X11220Y76126D02*
X10394Y76017D01*
X9624Y75698D01*
X8963Y75191D01*
X8456Y74529D01*
X8137Y73759D01*
X8028Y72933D01*
X8137Y72107D01*
X8456Y71337D01*
X8963Y70675D01*
X9624Y70168D01*
X10394Y69849D01*
X11220Y69740D01*
X12047Y69849D01*
X12817Y70168D01*
X13478Y70675D01*
X13985Y71337D01*
X14304Y72107D01*
X14413Y72933D01*
X14304Y73759D01*
X13985Y74529D01*
X13478Y75191D01*
X12817Y75698D01*
X12047Y76017D01*
X11220Y76126D01*
D02*
G37*
G36*
X128465Y78490D02*
X118360D01*
Y68385D01*
X119733Y68493D01*
X121316Y68873D01*
X122820Y69496D01*
X124208Y70347D01*
X125446Y71404D01*
X126503Y72642D01*
X127354Y74030D01*
X127977Y75534D01*
X128357Y77117D01*
X128465Y78490D01*
D02*
G37*
G36*
X117860D02*
X107755D01*
X107863Y77117D01*
X108244Y75534D01*
X108867Y74030D01*
X109717Y72642D01*
X110774Y71404D01*
X112012Y70347D01*
X113400Y69496D01*
X114904Y68873D01*
X116487Y68493D01*
X117860Y68385D01*
Y78490D01*
D02*
G37*
G36*
X-107755D02*
X-117860D01*
Y68385D01*
X-116487Y68493D01*
X-114904Y68873D01*
X-113400Y69496D01*
X-112012Y70347D01*
X-110774Y71404D01*
X-109717Y72642D01*
X-108867Y74030D01*
X-108244Y75534D01*
X-107863Y77117D01*
X-107755Y78490D01*
D02*
G37*
G36*
X-118360D02*
X-128465D01*
X-128357Y77117D01*
X-127977Y75534D01*
X-127354Y74030D01*
X-126503Y72642D01*
X-125446Y71404D01*
X-124208Y70347D01*
X-122820Y69496D01*
X-121316Y68873D01*
X-119733Y68493D01*
X-118360Y68385D01*
Y78490D01*
D02*
G37*
G36*
X31995Y-9345D02*
X29778D01*
Y-11562D01*
X30491Y-11420D01*
X31307Y-10874D01*
X31853Y-10058D01*
X31995Y-9345D01*
D02*
G37*
G36*
X-105801D02*
X-108018D01*
Y-11562D01*
X-107305Y-11420D01*
X-106488Y-10874D01*
X-105942Y-10058D01*
X-105801Y-9345D01*
D02*
G37*
G36*
X29278D02*
X27060D01*
X27202Y-10058D01*
X27748Y-10874D01*
X28564Y-11420D01*
X29278Y-11562D01*
Y-9345D01*
D02*
G37*
G36*
X-108518D02*
X-110735D01*
X-110593Y-10058D01*
X-110047Y-10874D01*
X-109231Y-11420D01*
X-108518Y-11562D01*
Y-9345D01*
D02*
G37*
G36*
X118360Y-68385D02*
Y-78490D01*
X128465D01*
X128357Y-77117D01*
X127977Y-75534D01*
X127354Y-74030D01*
X126503Y-72642D01*
X125446Y-71404D01*
X124208Y-70347D01*
X122820Y-69496D01*
X121316Y-68873D01*
X119733Y-68493D01*
X118360Y-68385D01*
D02*
G37*
G36*
X117860D02*
X116487Y-68493D01*
X114904Y-68873D01*
X113400Y-69496D01*
X112012Y-70347D01*
X110774Y-71404D01*
X109717Y-72642D01*
X108867Y-74030D01*
X108244Y-75534D01*
X107863Y-77117D01*
X107755Y-78490D01*
X117860D01*
Y-68385D01*
D02*
G37*
G36*
X-117860D02*
Y-78490D01*
X-107755D01*
X-107863Y-77117D01*
X-108244Y-75534D01*
X-108867Y-74030D01*
X-109717Y-72642D01*
X-110774Y-71404D01*
X-112012Y-70347D01*
X-113400Y-69496D01*
X-114904Y-68873D01*
X-116487Y-68493D01*
X-117860Y-68385D01*
D02*
G37*
G36*
X-118360D02*
X-119733Y-68493D01*
X-121316Y-68873D01*
X-122820Y-69496D01*
X-124208Y-70347D01*
X-125446Y-71404D01*
X-126503Y-72642D01*
X-127354Y-74030D01*
X-127977Y-75534D01*
X-128357Y-77117D01*
X-128465Y-78490D01*
X-118360D01*
Y-68385D01*
D02*
G37*
G36*
X31996Y8374D02*
X27059D01*
Y3437D01*
X27973D01*
X28125Y2937D01*
X27748Y2685D01*
X27202Y1869D01*
X27011Y905D01*
X27202Y-58D01*
X27748Y-874D01*
X28410Y-1317D01*
X28424Y-1358D01*
Y-1831D01*
X28410Y-1872D01*
X27748Y-2315D01*
X27202Y-3131D01*
X27011Y-4095D01*
X27202Y-5058D01*
X27748Y-5874D01*
X28410Y-6317D01*
X28424Y-6358D01*
Y-6831D01*
X28410Y-6872D01*
X27748Y-7315D01*
X27202Y-8131D01*
X27060Y-8845D01*
X29528D01*
X31995D01*
X31853Y-8131D01*
X31307Y-7315D01*
X30645Y-6872D01*
X30631Y-6831D01*
Y-6358D01*
X30645Y-6317D01*
X31307Y-5874D01*
X31815Y-5114D01*
X33172D01*
X37480Y-9422D01*
Y-42672D01*
X6394Y-73759D01*
X5771Y-73501D01*
X4921Y-73389D01*
X4071Y-73501D01*
X3279Y-73829D01*
X2599Y-74351D01*
X2077Y-75031D01*
X1749Y-75823D01*
X1637Y-76673D01*
X1749Y-77523D01*
X2077Y-78315D01*
X2599Y-78995D01*
X3279Y-79517D01*
X4071Y-79845D01*
X4921Y-79957D01*
X5771Y-79845D01*
X6563Y-79517D01*
X7243Y-78995D01*
X7765Y-78315D01*
X8093Y-77523D01*
X8205Y-76673D01*
X8093Y-75823D01*
X7836Y-75201D01*
X39221Y-43815D01*
X39442Y-43485D01*
X39520Y-43095D01*
Y-9000D01*
X39442Y-8610D01*
X39221Y-8279D01*
X34315Y-3373D01*
X33985Y-3153D01*
X33595Y-3075D01*
X31815D01*
X31307Y-2315D01*
X30645Y-1872D01*
X30631Y-1831D01*
Y-1358D01*
X30645Y-1317D01*
X31307Y-874D01*
X31815Y-114D01*
X35672D01*
X41480Y-5922D01*
Y-48515D01*
X16578Y-73417D01*
X11508D01*
Y-79929D01*
X18020D01*
Y-74859D01*
X43221Y-49658D01*
X43442Y-49327D01*
X43520Y-48937D01*
Y-5500D01*
X43442Y-5110D01*
X43221Y-4779D01*
X36816Y1626D01*
X36485Y1847D01*
X36094Y1925D01*
X31815D01*
X31307Y2685D01*
X30930Y2937D01*
X31082Y3437D01*
X31996D01*
Y8374D01*
D02*
G37*
G36*
X-105799D02*
X-110736D01*
Y3437D01*
X-109822D01*
X-109671Y2937D01*
X-110047Y2685D01*
X-110593Y1869D01*
X-110785Y905D01*
X-110593Y-58D01*
X-110047Y-874D01*
X-109385Y-1317D01*
X-109371Y-1358D01*
Y-1831D01*
X-109385Y-1872D01*
X-110047Y-2315D01*
X-110593Y-3131D01*
X-110785Y-4095D01*
X-110593Y-5058D01*
X-110047Y-5874D01*
X-109385Y-6317D01*
X-109371Y-6358D01*
Y-6831D01*
X-109385Y-6872D01*
X-110047Y-7315D01*
X-110593Y-8131D01*
X-110735Y-8845D01*
X-108268D01*
X-105801D01*
X-105942Y-8131D01*
X-106488Y-7315D01*
X-107150Y-6872D01*
X-107164Y-6831D01*
Y-6358D01*
X-107150Y-6317D01*
X-106488Y-5874D01*
X-105980Y-5114D01*
X-87765D01*
X-17678Y-75201D01*
X-17936Y-75823D01*
X-18048Y-76673D01*
X-17936Y-77523D01*
X-17608Y-78315D01*
X-17086Y-78995D01*
X-16406Y-79517D01*
X-15614Y-79845D01*
X-14764Y-79957D01*
X-13914Y-79845D01*
X-13122Y-79517D01*
X-12442Y-78995D01*
X-11920Y-78315D01*
X-11592Y-77523D01*
X-11480Y-76673D01*
X-11592Y-75823D01*
X-11920Y-75031D01*
X-12442Y-74351D01*
X-13122Y-73829D01*
X-13914Y-73501D01*
X-14764Y-73389D01*
X-15614Y-73501D01*
X-16236Y-73759D01*
X-86622Y-3373D01*
X-86952Y-3153D01*
X-87343Y-3075D01*
X-105980D01*
X-106488Y-2315D01*
X-107150Y-1872D01*
X-107164Y-1831D01*
Y-1358D01*
X-107150Y-1317D01*
X-106488Y-874D01*
X-105980Y-114D01*
X-82922D01*
X-7835Y-75201D01*
X-8093Y-75823D01*
X-8205Y-76673D01*
X-8093Y-77523D01*
X-7765Y-78315D01*
X-7243Y-78995D01*
X-6563Y-79517D01*
X-5771Y-79845D01*
X-4921Y-79957D01*
X-4071Y-79845D01*
X-3279Y-79517D01*
X-2599Y-78995D01*
X-2077Y-78315D01*
X-1749Y-77523D01*
X-1637Y-76673D01*
X-1749Y-75823D01*
X-2077Y-75031D01*
X-2599Y-74351D01*
X-3279Y-73829D01*
X-4071Y-73501D01*
X-4921Y-73389D01*
X-5771Y-73501D01*
X-6394Y-73759D01*
X-81779Y1626D01*
X-82110Y1847D01*
X-82500Y1925D01*
X-105980D01*
X-106488Y2685D01*
X-106865Y2937D01*
X-106713Y3437D01*
X-105799D01*
Y8374D01*
D02*
G37*
G36*
X128465Y-78990D02*
X118360D01*
Y-89095D01*
X119733Y-88987D01*
X121316Y-88607D01*
X122820Y-87984D01*
X124208Y-87133D01*
X125446Y-86076D01*
X126503Y-84838D01*
X127354Y-83450D01*
X127977Y-81946D01*
X128357Y-80363D01*
X128465Y-78990D01*
D02*
G37*
G36*
X117860D02*
X107755D01*
X107863Y-80363D01*
X108244Y-81946D01*
X108867Y-83450D01*
X109717Y-84838D01*
X110774Y-86076D01*
X112012Y-87133D01*
X113400Y-87984D01*
X114904Y-88607D01*
X116487Y-88987D01*
X117860Y-89095D01*
Y-78990D01*
D02*
G37*
G36*
X-107755D02*
X-117860D01*
Y-89095D01*
X-116487Y-88987D01*
X-114904Y-88607D01*
X-113400Y-87984D01*
X-112012Y-87133D01*
X-110774Y-86076D01*
X-109717Y-84838D01*
X-108867Y-83450D01*
X-108244Y-81946D01*
X-107863Y-80363D01*
X-107755Y-78990D01*
D02*
G37*
G36*
X-118360D02*
X-128465D01*
X-128357Y-80363D01*
X-127977Y-81946D01*
X-127354Y-83450D01*
X-126503Y-84838D01*
X-125446Y-86076D01*
X-124208Y-87133D01*
X-122820Y-87984D01*
X-121316Y-88607D01*
X-119733Y-88987D01*
X-118360Y-89095D01*
Y-78990D01*
D02*
G37*
%LPD*%
D10*
X33595Y-4095D02*
X38500Y-9000D01*
Y-43095D02*
Y-9000D01*
X29528Y-4095D02*
X33595D01*
X4921Y-76673D02*
X38500Y-43095D01*
X42500Y-48937D02*
Y-5500D01*
X29528Y905D02*
X36094D01*
X42500Y-5500D01*
X14764Y-76673D02*
X42500Y-48937D01*
X-82500Y905D02*
X-4921Y-76673D01*
X-108268Y905D02*
X-82500D01*
X-87343Y-4095D02*
X-14764Y-76673D01*
X-108268Y-4095D02*
X-87343D01*
D14*
X-14764Y-76673D02*
D03*
X-4921D02*
D03*
X4921D02*
D03*
D15*
X14764D02*
D03*
D16*
X4921Y80807D02*
D03*
D17*
X-4921D02*
D03*
D18*
X11220Y72933D02*
D03*
D22*
X-118110Y78740D02*
D03*
X118110D02*
D03*
X-118110Y-78740D02*
D03*
X118110D02*
D03*
D23*
X-108268Y5906D02*
D03*
X29528D02*
D03*
D24*
X-108268Y905D02*
D03*
Y-4095D02*
D03*
Y-9094D02*
D03*
X29528Y905D02*
D03*
Y-4095D02*
D03*
Y-9094D02*
D03*
M02*
