M48
;Layer_Color=9474304
;FILE_FORMAT=2:5
INCH,TZ
;TYPE=PLATED
T1F00S00C0.01181
T2F00S00C0.02362
T3F00S00C0.02500
%
T01
X-15000Y-43000
X3500Y-20500
X25751Y-15000
X34500Y-11500
Y8500
X11321Y-495
X-11500Y-1500
X-34000Y-6000
X-36000Y-15500
X-34500Y14000
X3500Y19500
X35000Y-31500
X10722Y26347
X10500Y43000
X-8000Y38000
X-14000Y31000
T02
X-39370Y-9094
Y-4095
Y905
Y5906
T03
X41866Y-7500
Y-2500
Y2500
Y7500
M30
