G04*
G04 #@! TF.GenerationSoftware,Altium Limited,Altium Designer,22.0.2 (36)*
G04*
G04 Layer_Physical_Order=2*
G04 Layer_Color=16711680*
%FSLAX25Y25*%
%MOIN*%
G70*
G04*
G04 #@! TF.SameCoordinates,4D75FC96-39BE-4DEA-B64F-09A75C684B67*
G04*
G04*
G04 #@! TF.FilePolarity,Positive*
G04*
G01*
G75*
%ADD28C,0.01500*%
%ADD29C,0.05906*%
%ADD30R,0.05906X0.05906*%
%ADD31C,0.03937*%
%ADD32R,0.03937X0.03937*%
%ADD33C,0.02400*%
G36*
X6852Y57893D02*
X11373Y57177D01*
X15824Y56108D01*
X20178Y54694D01*
X24407Y52942D01*
X28485Y50864D01*
X32388Y48472D01*
X36091Y45782D01*
X39572Y42809D01*
X42809Y39572D01*
X45782Y36091D01*
X48472Y32388D01*
X50864Y28485D01*
X52942Y24407D01*
X54694Y20178D01*
X56108Y15824D01*
X57177Y11373D01*
X57893Y6852D01*
X58252Y2289D01*
Y-2289D01*
X57893Y-6852D01*
X57177Y-11373D01*
X56108Y-15824D01*
X54694Y-20178D01*
X52942Y-24407D01*
X50864Y-28485D01*
X48472Y-32388D01*
X45782Y-36091D01*
X42809Y-39572D01*
X39572Y-42809D01*
X36091Y-45782D01*
X32388Y-48472D01*
X28485Y-50864D01*
X24407Y-52942D01*
X20178Y-54694D01*
X15824Y-56108D01*
X11373Y-57177D01*
X6852Y-57893D01*
X2289Y-58252D01*
X-2289D01*
X-6852Y-57893D01*
X-11373Y-57177D01*
X-15824Y-56108D01*
X-20178Y-54694D01*
X-24407Y-52942D01*
X-28485Y-50864D01*
X-32388Y-48472D01*
X-36091Y-45782D01*
X-39572Y-42809D01*
X-42809Y-39572D01*
X-45782Y-36091D01*
X-48472Y-32388D01*
X-50864Y-28485D01*
X-52942Y-24407D01*
X-54694Y-20178D01*
X-56108Y-15824D01*
X-57177Y-11373D01*
X-57893Y-6852D01*
X-58252Y-2289D01*
Y2289D01*
X-57893Y6852D01*
X-57177Y11373D01*
X-56108Y15824D01*
X-54694Y20178D01*
X-52942Y24407D01*
X-50864Y28485D01*
X-48472Y32388D01*
X-45782Y36091D01*
X-42809Y39572D01*
X-39572Y42809D01*
X-36091Y45782D01*
X-32388Y48472D01*
X-28485Y50864D01*
X-24407Y52942D01*
X-20178Y54694D01*
X-15824Y56108D01*
X-11373Y57177D01*
X-6852Y57893D01*
X-2289Y58252D01*
X2289D01*
X6852Y57893D01*
D02*
G37*
%LPC*%
G36*
X15250Y49450D02*
Y46250D01*
X18450D01*
X18364Y46901D01*
X18016Y47741D01*
X17462Y48463D01*
X16741Y49016D01*
X15901Y49364D01*
X15250Y49450D01*
D02*
G37*
G36*
X14750D02*
X14099Y49364D01*
X13259Y49016D01*
X12538Y48463D01*
X11984Y47741D01*
X11636Y46901D01*
X11550Y46250D01*
X14750D01*
Y49450D01*
D02*
G37*
G36*
X18450Y45750D02*
X15250D01*
Y42550D01*
X15901Y42636D01*
X16741Y42984D01*
X17462Y43538D01*
X18016Y44259D01*
X18364Y45099D01*
X18450Y45750D01*
D02*
G37*
G36*
X14750D02*
X11550D01*
X11636Y45099D01*
X11984Y44259D01*
X12538Y43538D01*
X13259Y42984D01*
X14099Y42636D01*
X14750Y42550D01*
Y45750D01*
D02*
G37*
G36*
X-11547Y49453D02*
X-18453D01*
Y42547D01*
X-11547D01*
Y49453D01*
D02*
G37*
G36*
X5000Y49483D02*
X4099Y49364D01*
X3259Y49016D01*
X2537Y48463D01*
X1984Y47741D01*
X1636Y46901D01*
X1517Y46000D01*
X1636Y45099D01*
X1984Y44259D01*
X2537Y43538D01*
X3259Y42984D01*
X4099Y42636D01*
X5000Y42518D01*
X5901Y42636D01*
X6741Y42984D01*
X7463Y43538D01*
X8016Y44259D01*
X8364Y45099D01*
X8483Y46000D01*
X8364Y46901D01*
X8016Y47741D01*
X7463Y48463D01*
X6741Y49016D01*
X5901Y49364D01*
X5000Y49483D01*
D02*
G37*
G36*
X-5000D02*
X-5901Y49364D01*
X-6741Y49016D01*
X-7463Y48463D01*
X-8016Y47741D01*
X-8364Y46901D01*
X-8483Y46000D01*
X-8364Y45099D01*
X-8016Y44259D01*
X-7463Y43538D01*
X-6741Y42984D01*
X-5901Y42636D01*
X-5000Y42518D01*
X-4099Y42636D01*
X-3259Y42984D01*
X-2537Y43538D01*
X-1984Y44259D01*
X-1636Y45099D01*
X-1517Y46000D01*
X-1636Y46901D01*
X-1984Y47741D01*
X-2537Y48463D01*
X-3259Y49016D01*
X-4099Y49364D01*
X-5000Y49483D01*
D02*
G37*
G36*
X-35000Y27733D02*
X-35663Y27601D01*
X-36226Y27226D01*
X-36601Y26663D01*
X-36733Y26000D01*
X-36601Y25337D01*
X-36226Y24774D01*
X-35663Y24399D01*
X-35000Y24267D01*
X-34337Y24399D01*
X-33847Y24725D01*
X22472D01*
X34284Y12914D01*
X34399Y12337D01*
X34774Y11774D01*
X35337Y11399D01*
X36000Y11267D01*
X36663Y11399D01*
X37226Y11774D01*
X37601Y12337D01*
X37733Y13000D01*
X37601Y13663D01*
X37226Y14226D01*
X36663Y14601D01*
X36086Y14716D01*
X23901Y26901D01*
X23488Y27178D01*
X23000Y27275D01*
X-33847D01*
X-34337Y27601D01*
X-35000Y27733D01*
D02*
G37*
G36*
X-18500Y14733D02*
X-19163Y14601D01*
X-19652Y14275D01*
X-35500D01*
X-35988Y14177D01*
X-36401Y13901D01*
X-39603Y10700D01*
X-40180Y10585D01*
X-40742Y10209D01*
X-41118Y9647D01*
X-41250Y8984D01*
X-41118Y8320D01*
X-40791Y7831D01*
Y-6298D01*
X-42777Y-8284D01*
X-43354Y-8399D01*
X-43917Y-8774D01*
X-44292Y-9337D01*
X-44424Y-10000D01*
X-44292Y-10663D01*
X-43917Y-11226D01*
X-43354Y-11601D01*
X-42691Y-11733D01*
X-42028Y-11601D01*
X-41465Y-11226D01*
X-41090Y-10663D01*
X-40975Y-10086D01*
X-38615Y-7727D01*
X-38339Y-7313D01*
X-38242Y-6825D01*
Y7831D01*
X-37915Y8320D01*
X-37800Y8897D01*
X-34972Y11726D01*
X-19652D01*
X-19163Y11399D01*
X-18500Y11267D01*
X-17837Y11399D01*
X-17274Y11774D01*
X-16899Y12337D01*
X-16767Y13000D01*
X-16899Y13663D01*
X-17274Y14226D01*
X-17837Y14601D01*
X-18500Y14733D01*
D02*
G37*
G36*
X17829Y41774D02*
X-26500D01*
X-26988Y41677D01*
X-27401Y41401D01*
X-48901Y19901D01*
X-49178Y19488D01*
X-49275Y19000D01*
Y-2847D01*
X-49601Y-3337D01*
X-49733Y-4000D01*
X-49601Y-4663D01*
X-49226Y-5226D01*
X-48663Y-5601D01*
X-48000Y-5733D01*
X-47337Y-5601D01*
X-46774Y-5226D01*
X-46399Y-4663D01*
X-46267Y-4000D01*
X-46399Y-3337D01*
X-46725Y-2847D01*
Y18472D01*
X-25972Y39226D01*
X17301D01*
X18457Y38069D01*
X14663Y34275D01*
X12152D01*
X11663Y34601D01*
X11000Y34733D01*
X10337Y34601D01*
X9774Y34226D01*
X9399Y33663D01*
X9267Y33000D01*
X9399Y32337D01*
X9774Y31774D01*
X10337Y31399D01*
X11000Y31267D01*
X11663Y31399D01*
X12152Y31725D01*
X15191D01*
X15679Y31822D01*
X16092Y32099D01*
X20346Y36353D01*
X20923Y36467D01*
X21412Y36794D01*
X31403D01*
X45226Y22972D01*
Y6957D01*
X44796Y6528D01*
X44335Y6719D01*
Y9968D01*
X39398D01*
Y5032D01*
X40312D01*
X40463Y4532D01*
X40086Y4280D01*
X39541Y3463D01*
X39349Y2500D01*
X39541Y1537D01*
X40086Y720D01*
X40749Y278D01*
X40763Y237D01*
Y-237D01*
X40749Y-278D01*
X40086Y-720D01*
X39541Y-1537D01*
X39399Y-2250D01*
X44333D01*
X44191Y-1537D01*
X43646Y-720D01*
X42983Y-278D01*
X42970Y-237D01*
Y237D01*
X42983Y278D01*
X43646Y720D01*
X44191Y1537D01*
X44383Y2500D01*
X44374Y2546D01*
X44466Y2638D01*
X44603Y2729D01*
X47401Y5528D01*
X47677Y5941D01*
X47774Y6429D01*
Y23500D01*
X47677Y23988D01*
X47401Y24401D01*
X32832Y38970D01*
X32419Y39246D01*
X31931Y39343D01*
X21412D01*
X20923Y39670D01*
X20346Y39785D01*
X18730Y41401D01*
X18316Y41677D01*
X17829Y41774D01*
D02*
G37*
G36*
X-24000Y-5767D02*
X-24663Y-5899D01*
X-25226Y-6274D01*
X-25601Y-6837D01*
X-25733Y-7500D01*
X-25601Y-8163D01*
X-25226Y-8726D01*
X-24663Y-9101D01*
X-24000Y-9233D01*
X-23337Y-9101D01*
X-22774Y-8726D01*
X-22399Y-8163D01*
X-22267Y-7500D01*
X-22399Y-6837D01*
X-22774Y-6274D01*
X-23337Y-5899D01*
X-24000Y-5767D01*
D02*
G37*
G36*
X-35500Y8233D02*
X-36163Y8101D01*
X-36726Y7726D01*
X-37101Y7163D01*
X-37233Y6500D01*
X-37101Y5837D01*
X-36726Y5274D01*
X-36163Y4899D01*
X-35500Y4767D01*
X-34837Y4899D01*
X-34348Y5226D01*
X21846D01*
X26826Y245D01*
Y-5601D01*
X26923Y-6088D01*
X27199Y-6502D01*
X32284Y-11586D01*
X32399Y-12163D01*
X32774Y-12726D01*
X33337Y-13101D01*
X34000Y-13233D01*
X34663Y-13101D01*
X35226Y-12726D01*
X35601Y-12163D01*
X35733Y-11500D01*
X35601Y-10837D01*
X35226Y-10274D01*
X34663Y-9899D01*
X34086Y-9784D01*
X29375Y-5073D01*
Y773D01*
X29278Y1261D01*
X29002Y1674D01*
X23275Y7401D01*
X22861Y7677D01*
X22373Y7774D01*
X-34348D01*
X-34837Y8101D01*
X-35500Y8233D01*
D02*
G37*
G36*
Y-11767D02*
X-36163Y-11899D01*
X-36726Y-12274D01*
X-37101Y-12837D01*
X-37233Y-13500D01*
X-37101Y-14163D01*
X-36726Y-14726D01*
X-36163Y-15101D01*
X-35500Y-15233D01*
X-34837Y-15101D01*
X-34348Y-14774D01*
X20972D01*
X32784Y-26586D01*
X32899Y-27163D01*
X33274Y-27726D01*
X33837Y-28101D01*
X34500Y-28233D01*
X35163Y-28101D01*
X35726Y-27726D01*
X36101Y-27163D01*
X36233Y-26500D01*
X36101Y-25837D01*
X35726Y-25274D01*
X35163Y-24899D01*
X34586Y-24784D01*
X22401Y-12599D01*
X21988Y-12323D01*
X21500Y-12225D01*
X-34348D01*
X-34837Y-11899D01*
X-35500Y-11767D01*
D02*
G37*
G36*
X44333Y-2750D02*
X39399D01*
X39541Y-3463D01*
X40086Y-4280D01*
X40749Y-4722D01*
X40763Y-4764D01*
Y-5237D01*
X40749Y-5278D01*
X40086Y-5720D01*
X39541Y-6537D01*
X39349Y-7500D01*
X39541Y-8463D01*
X40086Y-9280D01*
X40592Y-9617D01*
Y-25606D01*
X21472Y-44725D01*
X8209D01*
X8016Y-44259D01*
X7463Y-43538D01*
X6741Y-42984D01*
X5901Y-42636D01*
X5000Y-42518D01*
X4099Y-42636D01*
X3259Y-42984D01*
X2537Y-43538D01*
X1984Y-44259D01*
X1636Y-45099D01*
X1517Y-46000D01*
X1636Y-46901D01*
X1984Y-47741D01*
X2537Y-48463D01*
X3259Y-49016D01*
X4099Y-49364D01*
X5000Y-49483D01*
X5901Y-49364D01*
X6741Y-49016D01*
X7463Y-48463D01*
X8016Y-47741D01*
X8209Y-47275D01*
X22000D01*
X22488Y-47177D01*
X22901Y-46901D01*
X42767Y-27035D01*
X43044Y-26622D01*
X43141Y-26134D01*
Y-9617D01*
X43646Y-9280D01*
X44191Y-8463D01*
X44383Y-7500D01*
X44191Y-6537D01*
X43646Y-5720D01*
X42983Y-5278D01*
X42970Y-5237D01*
Y-4764D01*
X42983Y-4722D01*
X43646Y-4280D01*
X44191Y-3463D01*
X44333Y-2750D01*
D02*
G37*
G36*
X-11000Y-24767D02*
X-11663Y-24899D01*
X-12226Y-25274D01*
X-12601Y-25837D01*
X-12733Y-26500D01*
X-12601Y-27163D01*
X-12274Y-27652D01*
Y-30500D01*
X-12178Y-30988D01*
X-11901Y-31401D01*
X-6274Y-37028D01*
Y-42547D01*
X-8453D01*
Y-49453D01*
X-1547D01*
Y-42547D01*
X-3726D01*
Y-36500D01*
X-3822Y-36012D01*
X-4099Y-35599D01*
X-9725Y-29972D01*
Y-27652D01*
X-9399Y-27163D01*
X-9267Y-26500D01*
X-9399Y-25837D01*
X-9774Y-25274D01*
X-10337Y-24899D01*
X-11000Y-24767D01*
D02*
G37*
%LPD*%
D28*
X28101Y-5601D02*
Y773D01*
Y-5601D02*
X34000Y-11500D01*
X15191Y33000D02*
X20260Y38069D01*
X11000Y33000D02*
X15191D01*
X-35000Y26000D02*
X23000D01*
X22373Y6500D02*
X28101Y773D01*
X-35500Y-13500D02*
X21500D01*
X-11000Y-30500D02*
X-5000Y-36500D01*
Y-46000D02*
Y-36500D01*
X-11000Y-30500D02*
Y-26500D01*
X-35500Y13000D02*
X-18500D01*
X-39516Y-6825D02*
Y8984D01*
X-35500Y13000D01*
X-26500Y40500D02*
X17829D01*
X20260Y38069D01*
X-48000Y19000D02*
X-26500Y40500D01*
X-48000Y-4000D02*
Y19000D01*
X-42691Y-10000D02*
X-39516Y-6825D01*
X43701Y3631D02*
X46500Y6429D01*
X41866Y2500D02*
X42526D01*
X43656Y3631D01*
X43701D01*
X46500Y6429D02*
Y23500D01*
X20260Y38069D02*
X31931D01*
X46500Y23500D01*
X21500Y-13500D02*
X34500Y-26500D01*
X-35500Y6500D02*
X22373D01*
X23000Y26000D02*
X36000Y13000D01*
X41866Y-26134D02*
Y-7500D01*
X5000Y-46000D02*
X22000D01*
X41866Y-26134D01*
D29*
X5000Y-46000D02*
D03*
X15000Y46000D02*
D03*
X5000D02*
D03*
X-5000D02*
D03*
D30*
Y-46000D02*
D03*
X-15000Y46000D02*
D03*
D31*
X41866Y2500D02*
D03*
Y-2500D02*
D03*
Y-7500D02*
D03*
D32*
Y7500D02*
D03*
D33*
X34000Y-11500D02*
D03*
X11000Y33000D02*
D03*
X-35000Y26000D02*
D03*
X-4000Y-19000D02*
D03*
X-4500Y500D02*
D03*
X-35500Y-13500D02*
D03*
X-36000Y-19500D02*
D03*
X-11000Y-26500D02*
D03*
X-24000Y-7500D02*
D03*
X-39516Y8984D02*
D03*
X-48000Y-4000D02*
D03*
X-42691Y-10000D02*
D03*
X-18500Y13000D02*
D03*
X34500Y-26500D02*
D03*
X-35500Y6500D02*
D03*
X36000Y13000D02*
D03*
X20260Y38069D02*
D03*
M02*
