G04*
G04 #@! TF.GenerationSoftware,Altium Limited,Altium Designer,22.0.2 (36)*
G04*
G04 Layer_Physical_Order=1*
G04 Layer_Color=255*
%FSLAX25Y25*%
%MOIN*%
G70*
G04*
G04 #@! TF.SameCoordinates,4316817A-AEA0-4868-BE51-98C0054D8074*
G04*
G04*
G04 #@! TF.FilePolarity,Positive*
G04*
G01*
G75*
%ADD12R,0.05906X0.05118*%
%ADD13R,0.05118X0.05906*%
%ADD14R,0.09449X0.03150*%
%ADD15R,0.08661X0.04724*%
%ADD16R,0.05906X0.05118*%
%ADD17R,0.05118X0.03543*%
%ADD28C,0.01500*%
%ADD29C,0.05906*%
%ADD30R,0.05906X0.05906*%
%ADD31C,0.03937*%
%ADD32R,0.03937X0.03937*%
%ADD33C,0.02362*%
G36*
X6852Y57893D02*
X11373Y57177D01*
X15824Y56108D01*
X20178Y54694D01*
X24407Y52942D01*
X28485Y50864D01*
X32388Y48472D01*
X36091Y45782D01*
X39572Y42809D01*
X42809Y39572D01*
X45782Y36091D01*
X48472Y32388D01*
X50864Y28485D01*
X52942Y24407D01*
X54694Y20178D01*
X56108Y15824D01*
X57177Y11373D01*
X57893Y6852D01*
X58252Y2289D01*
Y-2289D01*
X57893Y-6852D01*
X57177Y-11373D01*
X56108Y-15824D01*
X54694Y-20178D01*
X52942Y-24407D01*
X50864Y-28485D01*
X48472Y-32388D01*
X45782Y-36091D01*
X42809Y-39572D01*
X39572Y-42809D01*
X36091Y-45782D01*
X32388Y-48472D01*
X28485Y-50864D01*
X24407Y-52942D01*
X20178Y-54694D01*
X15824Y-56108D01*
X11373Y-57177D01*
X6852Y-57893D01*
X2289Y-58252D01*
X-2289D01*
X-6852Y-57893D01*
X-11373Y-57177D01*
X-15824Y-56108D01*
X-20178Y-54694D01*
X-24407Y-52942D01*
X-28485Y-50864D01*
X-32388Y-48472D01*
X-36091Y-45782D01*
X-39572Y-42809D01*
X-42809Y-39572D01*
X-45782Y-36091D01*
X-48472Y-32388D01*
X-50864Y-28485D01*
X-52942Y-24407D01*
X-54694Y-20178D01*
X-56108Y-15824D01*
X-57177Y-11373D01*
X-57893Y-6852D01*
X-58252Y-2289D01*
Y2289D01*
X-57893Y6852D01*
X-57177Y11373D01*
X-56108Y15824D01*
X-54694Y20178D01*
X-52942Y24407D01*
X-50864Y28485D01*
X-48472Y32388D01*
X-45782Y36091D01*
X-42809Y39572D01*
X-39572Y42809D01*
X-36091Y45782D01*
X-32388Y48472D01*
X-28485Y50864D01*
X-24407Y52942D01*
X-20178Y54694D01*
X-15824Y56108D01*
X-11373Y57177D01*
X-6852Y57893D01*
X-2289Y58252D01*
X2289D01*
X6852Y57893D01*
D02*
G37*
%LPC*%
G36*
X15250Y49450D02*
Y46250D01*
X18450D01*
X18364Y46901D01*
X18016Y47741D01*
X17462Y48463D01*
X16741Y49016D01*
X15901Y49364D01*
X15250Y49450D01*
D02*
G37*
G36*
X14750D02*
X14099Y49364D01*
X13259Y49016D01*
X12538Y48463D01*
X11984Y47741D01*
X11636Y46901D01*
X11550Y46250D01*
X14750D01*
Y49450D01*
D02*
G37*
G36*
X-11547Y49453D02*
X-18453D01*
Y47275D01*
X-25000D01*
X-25488Y47177D01*
X-25901Y46901D01*
X-43401Y29401D01*
X-43677Y28988D01*
X-43775Y28500D01*
Y6799D01*
X-45953D01*
Y681D01*
X-39047D01*
Y6799D01*
X-39213D01*
X-39236Y6815D01*
X-39223Y7328D01*
X-38860Y7400D01*
X-38304Y7772D01*
X-37933Y8328D01*
X-37802Y8984D01*
X-37933Y9640D01*
X-38242Y10102D01*
Y25098D01*
X-38067Y25236D01*
X-38001Y25251D01*
X-37436Y25123D01*
X-37212Y24788D01*
X-36656Y24416D01*
X-36000Y24286D01*
X-35344Y24416D01*
X-34788Y24788D01*
X-34701Y24918D01*
X-32622D01*
Y23921D01*
X-26504D01*
Y27294D01*
X-26004Y27501D01*
X-25165Y26662D01*
Y24315D01*
X-15716D01*
X-15524Y23853D01*
X-16519Y22858D01*
X-21622D01*
Y16740D01*
X-14717D01*
Y21056D01*
X-10957Y24815D01*
X-10681Y25229D01*
X-10584Y25717D01*
Y27098D01*
X-9462Y28220D01*
X-9000Y28029D01*
Y26415D01*
X-4419D01*
Y29028D01*
X-8001D01*
X-8192Y29489D01*
X-7198Y30484D01*
X-2882D01*
Y35028D01*
X-9000D01*
Y32287D01*
X-12760Y28527D01*
X-13036Y28114D01*
X-13133Y27626D01*
Y26245D01*
X-14255Y25123D01*
X-14717Y25314D01*
Y28465D01*
X-23363D01*
X-25014Y30116D01*
X-25428Y30392D01*
X-25915Y30489D01*
X-36224D01*
X-36711Y30392D01*
X-37125Y30116D01*
X-40418Y26823D01*
X-40694Y26409D01*
X-40725Y26251D01*
X-41225Y26300D01*
Y27972D01*
X-24472Y44725D01*
X-18453D01*
Y42547D01*
X-11547D01*
Y49453D01*
D02*
G37*
G36*
X5000Y49483D02*
X4099Y49364D01*
X3259Y49016D01*
X2537Y48463D01*
X1984Y47741D01*
X1636Y46901D01*
X1517Y46000D01*
X1636Y45099D01*
X1984Y44259D01*
X2537Y43538D01*
X3259Y42984D01*
X4099Y42636D01*
X5000Y42518D01*
X5901Y42636D01*
X6368Y42829D01*
X8599Y40599D01*
X9012Y40323D01*
X9254Y40275D01*
X9205Y39775D01*
X3028D01*
X-1829Y44632D01*
X-1636Y45099D01*
X-1517Y46000D01*
X-1636Y46901D01*
X-1984Y47741D01*
X-2537Y48463D01*
X-3259Y49016D01*
X-4099Y49364D01*
X-5000Y49483D01*
X-5901Y49364D01*
X-6741Y49016D01*
X-7463Y48463D01*
X-8016Y47741D01*
X-8364Y46901D01*
X-8483Y46000D01*
X-8364Y45099D01*
X-8016Y44259D01*
X-7463Y43538D01*
X-6741Y42984D01*
X-5901Y42636D01*
X-5000Y42518D01*
X-4099Y42636D01*
X-3632Y42829D01*
X1599Y37599D01*
X2012Y37323D01*
X2500Y37225D01*
X10472D01*
X12225Y35472D01*
Y34343D01*
X11726Y34192D01*
X11712Y34212D01*
X11156Y34584D01*
X10500Y34714D01*
X9844Y34584D01*
X9405Y34291D01*
X8906Y34423D01*
Y35028D01*
X-1543D01*
Y30878D01*
X8906D01*
Y31702D01*
X9417D01*
X9844Y31416D01*
X10500Y31286D01*
X11156Y31416D01*
X11712Y31788D01*
X11726Y31808D01*
X12225Y31657D01*
Y29528D01*
X10334Y27637D01*
X8906D01*
Y29421D01*
X2000D01*
Y23303D01*
X8906D01*
Y25088D01*
X10862D01*
X11350Y25185D01*
X11763Y25461D01*
X14401Y28099D01*
X14678Y28512D01*
X14774Y29000D01*
Y36000D01*
X14678Y36488D01*
X14401Y36901D01*
X11901Y39401D01*
X11488Y39678D01*
X11246Y39726D01*
X11295Y40225D01*
X19922D01*
X19971Y39726D01*
X19604Y39652D01*
X19048Y39281D01*
X18676Y38725D01*
X18546Y38069D01*
X18676Y37413D01*
X18985Y36950D01*
Y35453D01*
X17201D01*
Y28547D01*
X23319D01*
Y35453D01*
X21534D01*
Y36950D01*
X21843Y37413D01*
X21974Y38069D01*
X21843Y38725D01*
X21472Y39281D01*
X20916Y39652D01*
X20549Y39726D01*
X20598Y40225D01*
X26472D01*
X30745Y35953D01*
X30538Y35453D01*
X30408Y35453D01*
X27990D01*
Y32250D01*
X30799D01*
Y35061D01*
X30799Y35191D01*
X31006Y35277D01*
X31299Y35398D01*
X40592Y26106D01*
Y9968D01*
X39871D01*
Y17621D01*
X39774Y18109D01*
X39497Y18522D01*
X37214Y20806D01*
X36801Y21082D01*
X36313Y21179D01*
X32528D01*
Y21902D01*
X22079D01*
Y17752D01*
X32528D01*
Y18630D01*
X35785D01*
X37322Y17093D01*
Y14740D01*
X36822Y14473D01*
X36656Y14584D01*
X36000Y14714D01*
X35344Y14584D01*
X34881Y14275D01*
X32528D01*
Y16295D01*
X25622D01*
Y10177D01*
X32528D01*
Y11726D01*
X34881D01*
X35344Y11416D01*
X36000Y11286D01*
X36656Y11416D01*
X36822Y11527D01*
X37322Y11260D01*
Y5065D01*
X37419Y4578D01*
X37621Y4275D01*
X37446Y3774D01*
X32815D01*
X32327Y3678D01*
X31914Y3401D01*
X30725Y2213D01*
X22079D01*
Y-1937D01*
X32528D01*
Y410D01*
X33343Y1225D01*
X37270D01*
X37461Y764D01*
X36555Y-143D01*
X36279Y-556D01*
X36182Y-1044D01*
Y-4372D01*
X35741Y-4608D01*
X35681Y-4568D01*
X35025Y-4438D01*
X34369Y-4568D01*
X33907Y-4877D01*
X32528D01*
Y-3394D01*
X25622D01*
Y-9512D01*
X32528D01*
Y-7426D01*
X33907D01*
X34369Y-7735D01*
X35025Y-7866D01*
X35681Y-7735D01*
X35741Y-7695D01*
X36182Y-7931D01*
Y-12020D01*
X30725Y-17476D01*
X22079D01*
Y-21626D01*
X32528D01*
Y-19279D01*
X38357Y-13449D01*
X38634Y-13035D01*
X38731Y-12548D01*
Y-1572D01*
X39290Y-1013D01*
X39678Y-1331D01*
X39541Y-1537D01*
X39399Y-2250D01*
X44333D01*
X44191Y-1537D01*
X43646Y-720D01*
X42983Y-278D01*
X42970Y-237D01*
Y237D01*
X42983Y278D01*
X43646Y720D01*
X44191Y1537D01*
X44383Y2500D01*
X44191Y3463D01*
X43646Y4280D01*
X43269Y4532D01*
X43421Y5032D01*
X44335D01*
Y9968D01*
X43141D01*
Y26634D01*
X43044Y27122D01*
X42767Y27535D01*
X27901Y42401D01*
X27488Y42678D01*
X27000Y42775D01*
X17289D01*
X17120Y43275D01*
X17462Y43538D01*
X18016Y44259D01*
X18364Y45099D01*
X18450Y45750D01*
X11550D01*
X11636Y45099D01*
X11984Y44259D01*
X12538Y43538D01*
X12880Y43275D01*
X12710Y42775D01*
X10028D01*
X8170Y44632D01*
X8364Y45099D01*
X8483Y46000D01*
X8364Y46901D01*
X8016Y47741D01*
X7463Y48463D01*
X6741Y49016D01*
X5901Y49364D01*
X5000Y49483D01*
D02*
G37*
G36*
X27490Y35453D02*
X24681D01*
Y32250D01*
X27490D01*
Y35453D01*
D02*
G37*
G36*
X30799Y31750D02*
X27990D01*
Y28547D01*
X30799D01*
Y31750D01*
D02*
G37*
G36*
X27490D02*
X24681D01*
Y28547D01*
X27490D01*
Y31750D01*
D02*
G37*
G36*
X661Y29028D02*
X-3919D01*
Y26415D01*
X661D01*
Y29028D01*
D02*
G37*
G36*
Y25915D02*
X-3919D01*
Y23303D01*
X661D01*
Y25915D01*
D02*
G37*
G36*
X-4419D02*
X-9000D01*
Y23303D01*
X-4419D01*
Y25915D01*
D02*
G37*
G36*
X-22961Y22465D02*
X-27541D01*
Y19852D01*
X-22961D01*
Y22465D01*
D02*
G37*
G36*
X-28041D02*
X-32622D01*
Y19852D01*
X-28041D01*
Y22465D01*
D02*
G37*
G36*
X-22961Y19352D02*
X-27541D01*
Y16740D01*
X-22961D01*
Y19352D01*
D02*
G37*
G36*
X-28041D02*
X-32622D01*
Y16740D01*
X-28041D01*
Y19352D01*
D02*
G37*
G36*
X24284Y15902D02*
X19703D01*
Y13289D01*
X24284D01*
Y15902D01*
D02*
G37*
G36*
X20740Y21902D02*
X14622D01*
Y19161D01*
X10863Y15401D01*
X10586Y14988D01*
X10489Y14500D01*
Y13118D01*
X9367Y11997D01*
X8906Y12188D01*
Y15339D01*
X259D01*
X-1392Y16990D01*
X-1806Y17266D01*
X-2293Y17363D01*
X-9018D01*
X-9505Y17266D01*
X-9919Y16990D01*
X-12634Y14275D01*
X-17381D01*
X-17844Y14584D01*
X-18500Y14714D01*
X-19156Y14584D01*
X-19712Y14212D01*
X-20084Y13656D01*
X-20214Y13000D01*
X-20084Y12344D01*
X-19774Y11881D01*
Y8776D01*
X-25165D01*
Y4626D01*
X-15716D01*
X-15524Y4164D01*
X-16519Y3169D01*
X-21622D01*
Y-2949D01*
X-15227D01*
X-15020Y-3449D01*
X-17797Y-6225D01*
X-22882D01*
X-23344Y-5916D01*
X-24000Y-5786D01*
X-24656Y-5916D01*
X-25118Y-6225D01*
X-33500D01*
X-33988Y-6323D01*
X-34401Y-6599D01*
X-36528Y-8726D01*
X-41416D01*
Y-6799D01*
X-39047D01*
Y-681D01*
X-45953D01*
Y-2726D01*
X-46881D01*
X-47344Y-2416D01*
X-48000Y-2286D01*
X-48656Y-2416D01*
X-49212Y-2788D01*
X-49584Y-3344D01*
X-49714Y-4000D01*
X-49584Y-4656D01*
X-49212Y-5212D01*
X-48656Y-5584D01*
X-48000Y-5714D01*
X-47344Y-5584D01*
X-46881Y-5274D01*
X-45953D01*
Y-6799D01*
X-43965D01*
Y-8882D01*
X-44275Y-9344D01*
X-44405Y-10000D01*
X-44275Y-10656D01*
X-43965Y-11118D01*
Y-20809D01*
X-43868Y-21297D01*
X-43592Y-21710D01*
X-35901Y-29401D01*
X-35488Y-29678D01*
X-35000Y-29774D01*
X-22148D01*
X-22084Y-29870D01*
X-22351Y-30370D01*
X-23175D01*
Y-33573D01*
X-20366D01*
Y-31857D01*
X-19904Y-31666D01*
X-19004Y-32566D01*
Y-37276D01*
X-12886D01*
Y-30370D01*
X-14670D01*
Y-25162D01*
X-12825Y-23316D01*
X-12569Y-22933D01*
X-10979Y-21343D01*
X-6030D01*
X-3808Y-23566D01*
X-3999Y-24028D01*
X-9000D01*
Y-25125D01*
X-10032D01*
X-10344Y-24916D01*
X-11000Y-24786D01*
X-11656Y-24916D01*
X-12212Y-25288D01*
X-12584Y-25844D01*
X-12714Y-26500D01*
X-12584Y-27156D01*
X-12212Y-27712D01*
X-11656Y-28084D01*
X-11000Y-28214D01*
X-10344Y-28084D01*
X-9788Y-27712D01*
X-9763Y-27674D01*
X-9000D01*
Y-28571D01*
X-2882D01*
Y-25145D01*
X-2420Y-24953D01*
X-1543Y-25830D01*
Y-28177D01*
X7907D01*
X8098Y-28639D01*
X7103Y-29634D01*
X2000D01*
Y-35752D01*
X8906D01*
Y-31436D01*
X12665Y-27677D01*
X12941Y-27263D01*
X13038Y-26776D01*
Y-25406D01*
X14160Y-24284D01*
X14622Y-24475D01*
Y-26089D01*
X19203D01*
Y-23476D01*
X15621D01*
X15430Y-23014D01*
X16424Y-22020D01*
X20740D01*
Y-17476D01*
X14622D01*
Y-20217D01*
X10863Y-23977D01*
X10586Y-24390D01*
X10489Y-24878D01*
Y-26248D01*
X9367Y-27369D01*
X8906Y-27178D01*
Y-24028D01*
X259D01*
X-4601Y-19168D01*
X-5014Y-18891D01*
X-5502Y-18794D01*
X-11507D01*
X-11995Y-18891D01*
X-12408Y-19168D01*
X-14217Y-20976D01*
X-14717Y-20769D01*
Y-18322D01*
X-10957Y-14563D01*
X-10681Y-14149D01*
X-10584Y-13661D01*
Y-12280D01*
X-9462Y-11158D01*
X-9000Y-11349D01*
Y-12963D01*
X-4419D01*
Y-10350D01*
X-8001D01*
X-8192Y-9888D01*
X-7198Y-8894D01*
X-2882D01*
Y-5521D01*
X-2382Y-5314D01*
X-1543Y-6153D01*
Y-8500D01*
X7907D01*
X8098Y-8962D01*
X7103Y-9957D01*
X2000D01*
Y-16075D01*
X8906D01*
Y-11759D01*
X12665Y-8000D01*
X12941Y-7586D01*
X13038Y-7098D01*
Y-5717D01*
X14160Y-4595D01*
X14622Y-4786D01*
Y-6400D01*
X19203D01*
Y-3787D01*
X15621D01*
X15430Y-3325D01*
X16424Y-2331D01*
X20740D01*
Y2213D01*
X14622D01*
Y-528D01*
X10863Y-4288D01*
X10586Y-4701D01*
X10489Y-5189D01*
Y-6571D01*
X9367Y-7692D01*
X8906Y-7501D01*
Y-4350D01*
X259D01*
X-1392Y-2699D01*
X-1806Y-2423D01*
X-2293Y-2326D01*
X-13370D01*
X-13857Y-2423D01*
X-14217Y-2663D01*
X-14423Y-2610D01*
X-14717Y-2438D01*
Y1367D01*
X-10957Y5126D01*
X-10681Y5540D01*
X-10584Y6028D01*
Y7409D01*
X-9462Y8531D01*
X-9000Y8340D01*
Y6726D01*
X-4419D01*
Y9339D01*
X-8001D01*
X-8192Y9800D01*
X-7198Y10795D01*
X-2882D01*
Y14168D01*
X-2382Y14375D01*
X-1543Y13536D01*
Y11189D01*
X7907D01*
X8098Y10727D01*
X7103Y9732D01*
X2000D01*
Y3614D01*
X8906D01*
Y7930D01*
X12665Y11689D01*
X12941Y12103D01*
X13038Y12591D01*
Y13972D01*
X14160Y15094D01*
X14622Y14903D01*
Y13289D01*
X19203D01*
Y15902D01*
X15621D01*
X15430Y16364D01*
X16424Y17358D01*
X20740D01*
Y21902D01*
D02*
G37*
G36*
X24284Y12789D02*
X19703D01*
Y10177D01*
X24284D01*
Y12789D01*
D02*
G37*
G36*
X19203D02*
X14622D01*
Y10177D01*
X19203D01*
Y12789D01*
D02*
G37*
G36*
X-26504Y8776D02*
X-32622D01*
Y7778D01*
X-34387D01*
X-34844Y8084D01*
X-35500Y8214D01*
X-36156Y8084D01*
X-36712Y7712D01*
X-37084Y7156D01*
X-37214Y6500D01*
X-37084Y5844D01*
X-36712Y5288D01*
X-36156Y4916D01*
X-35500Y4786D01*
X-34844Y4916D01*
X-34376Y5229D01*
X-32622D01*
Y4232D01*
X-26504D01*
Y8776D01*
D02*
G37*
G36*
X661Y9339D02*
X-3919D01*
Y6726D01*
X661D01*
Y9339D01*
D02*
G37*
G36*
Y6226D02*
X-3919D01*
Y3614D01*
X661D01*
Y6226D01*
D02*
G37*
G36*
X-4419D02*
X-9000D01*
Y3614D01*
X-4419D01*
Y6226D01*
D02*
G37*
G36*
X-22961Y2776D02*
X-27541D01*
Y163D01*
X-22961D01*
Y2776D01*
D02*
G37*
G36*
X-28041D02*
X-32622D01*
Y163D01*
X-28041D01*
Y2776D01*
D02*
G37*
G36*
X-22961Y-337D02*
X-27541D01*
Y-2949D01*
X-22961D01*
Y-337D01*
D02*
G37*
G36*
X-28041D02*
X-32622D01*
Y-2949D01*
X-28041D01*
Y-337D01*
D02*
G37*
G36*
X24284Y-3787D02*
X19703D01*
Y-6400D01*
X24284D01*
Y-3787D01*
D02*
G37*
G36*
Y-6900D02*
X19703D01*
Y-9512D01*
X24284D01*
Y-6900D01*
D02*
G37*
G36*
X19203D02*
X14622D01*
Y-9512D01*
X19203D01*
Y-6900D01*
D02*
G37*
G36*
X44333Y-2750D02*
X39399D01*
X39541Y-3463D01*
X40086Y-4280D01*
X40749Y-4722D01*
X40763Y-4764D01*
Y-5237D01*
X40749Y-5278D01*
X40086Y-5720D01*
X39541Y-6537D01*
X39349Y-7500D01*
X39541Y-8463D01*
X40086Y-9280D01*
X40903Y-9825D01*
X41866Y-10017D01*
X42829Y-9825D01*
X43646Y-9280D01*
X44191Y-8463D01*
X44383Y-7500D01*
X44191Y-6537D01*
X43646Y-5720D01*
X42983Y-5278D01*
X42970Y-5237D01*
Y-4764D01*
X42983Y-4722D01*
X43646Y-4280D01*
X44191Y-3463D01*
X44333Y-2750D01*
D02*
G37*
G36*
X661Y-10350D02*
X-3919D01*
Y-12963D01*
X661D01*
Y-10350D01*
D02*
G37*
G36*
Y-13463D02*
X-3919D01*
Y-16075D01*
X661D01*
Y-13463D01*
D02*
G37*
G36*
X-4419D02*
X-9000D01*
Y-16075D01*
X-4419D01*
Y-13463D01*
D02*
G37*
G36*
X24284Y-23476D02*
X19703D01*
Y-26089D01*
X24284D01*
Y-23476D01*
D02*
G37*
G36*
X32528Y-23083D02*
X25622D01*
Y-29201D01*
X32528D01*
Y-27775D01*
X33382D01*
X33844Y-28084D01*
X34500Y-28214D01*
X35156Y-28084D01*
X35712Y-27712D01*
X36084Y-27156D01*
X36214Y-26500D01*
X36084Y-25844D01*
X35712Y-25288D01*
X35156Y-24916D01*
X34500Y-24786D01*
X33844Y-24916D01*
X33382Y-25225D01*
X32528D01*
Y-23083D01*
D02*
G37*
G36*
X24284Y-26589D02*
X19703D01*
Y-29201D01*
X24284D01*
Y-26589D01*
D02*
G37*
G36*
X19203D02*
X14622D01*
Y-29201D01*
X19203D01*
Y-26589D01*
D02*
G37*
G36*
X661Y-30028D02*
X-3919D01*
Y-32640D01*
X661D01*
Y-30028D01*
D02*
G37*
G36*
X-4419D02*
X-9000D01*
Y-32640D01*
X-4419D01*
Y-30028D01*
D02*
G37*
G36*
X-23675Y-30370D02*
X-26484D01*
Y-33573D01*
X-23675D01*
Y-30370D01*
D02*
G37*
G36*
X661Y-33140D02*
X-3919D01*
Y-35752D01*
X661D01*
Y-33140D01*
D02*
G37*
G36*
X-4419D02*
X-9000D01*
Y-35752D01*
X-4419D01*
Y-33140D01*
D02*
G37*
G36*
X-20366Y-34073D02*
X-23175D01*
Y-37276D01*
X-20366D01*
Y-34073D01*
D02*
G37*
G36*
X-23675D02*
X-26484D01*
Y-37276D01*
X-23675D01*
Y-34073D01*
D02*
G37*
G36*
X-1547Y-42547D02*
X-8453D01*
Y-49453D01*
X-1547D01*
Y-42547D01*
D02*
G37*
G36*
X5000Y-42518D02*
X4099Y-42636D01*
X3259Y-42984D01*
X2537Y-43538D01*
X1984Y-44259D01*
X1636Y-45099D01*
X1517Y-46000D01*
X1636Y-46901D01*
X1984Y-47741D01*
X2537Y-48463D01*
X3259Y-49016D01*
X4099Y-49364D01*
X5000Y-49483D01*
X5901Y-49364D01*
X6741Y-49016D01*
X7463Y-48463D01*
X8016Y-47741D01*
X8364Y-46901D01*
X8483Y-46000D01*
X8364Y-45099D01*
X8016Y-44259D01*
X7463Y-43538D01*
X6741Y-42984D01*
X5901Y-42636D01*
X5000Y-42518D01*
D02*
G37*
%LPD*%
G36*
X-9000Y-7091D02*
X-12760Y-10851D01*
X-13036Y-11264D01*
X-13133Y-11752D01*
Y-13134D01*
X-14255Y-14255D01*
X-14717Y-14064D01*
Y-10913D01*
X-22641D01*
Y-8775D01*
X-17269D01*
X-16781Y-8677D01*
X-16368Y-8401D01*
X-12842Y-4875D01*
X-9000D01*
Y-7091D01*
D02*
G37*
G36*
X-25190Y-12163D02*
X-25165Y-12286D01*
Y-15063D01*
X-15716D01*
X-15524Y-15525D01*
X-16519Y-16520D01*
X-21622D01*
Y-22638D01*
X-16404D01*
X-16213Y-23100D01*
X-16846Y-23733D01*
X-17122Y-24146D01*
X-17219Y-24634D01*
Y-30070D01*
X-17719Y-30246D01*
X-20367Y-27599D01*
X-20780Y-27323D01*
X-21268Y-27226D01*
X-34472D01*
X-41416Y-20281D01*
Y-11275D01*
X-36000D01*
X-35512Y-11178D01*
X-35099Y-10901D01*
X-32972Y-8775D01*
X-25190D01*
Y-12163D01*
D02*
G37*
%LPC*%
G36*
X-26504Y-10913D02*
X-32622D01*
Y-12225D01*
X-34381D01*
X-34844Y-11916D01*
X-35500Y-11786D01*
X-36156Y-11916D01*
X-36712Y-12288D01*
X-37084Y-12844D01*
X-37214Y-13500D01*
X-37084Y-14156D01*
X-36712Y-14712D01*
X-36156Y-15084D01*
X-35500Y-15214D01*
X-34844Y-15084D01*
X-34381Y-14774D01*
X-32622D01*
Y-15457D01*
X-26504D01*
Y-10913D01*
D02*
G37*
G36*
X-22961Y-16913D02*
X-27541D01*
Y-19526D01*
X-22961D01*
Y-16913D01*
D02*
G37*
G36*
X-28041D02*
X-32622D01*
Y-19526D01*
X-28041D01*
Y-16913D01*
D02*
G37*
G36*
X-22961Y-20026D02*
X-27541D01*
Y-22638D01*
X-22961D01*
Y-20026D01*
D02*
G37*
G36*
X-28041D02*
X-32622D01*
Y-22638D01*
X-28041D01*
Y-20026D01*
D02*
G37*
%LPD*%
D12*
X-42500Y3740D02*
D03*
Y-3740D02*
D03*
D13*
X-23425Y-33823D02*
D03*
X-15945D02*
D03*
X20260Y32000D02*
D03*
X27740D02*
D03*
D14*
X3681Y-26102D02*
D03*
X27303Y-19551D02*
D03*
X-19941Y-12988D02*
D03*
X3681Y-6425D02*
D03*
X27303Y138D02*
D03*
X-19941Y6701D02*
D03*
X3681Y13264D02*
D03*
X27303Y19827D02*
D03*
X-19941Y26390D02*
D03*
X3681Y32953D02*
D03*
D15*
X-4169Y-32890D02*
D03*
X19453Y-26339D02*
D03*
X-27791Y-19776D02*
D03*
X-4169Y-13213D02*
D03*
X19453Y-6650D02*
D03*
X-27791Y-87D02*
D03*
X-4169Y6476D02*
D03*
X19453Y13039D02*
D03*
X-27791Y19602D02*
D03*
X-4169Y26165D02*
D03*
D16*
X5453Y-32693D02*
D03*
X29075Y-26142D02*
D03*
X-18169Y-19579D02*
D03*
X5453Y-13016D02*
D03*
X29075Y-6453D02*
D03*
X-18169Y110D02*
D03*
X5453Y6673D02*
D03*
X29075Y13236D02*
D03*
X-18169Y19799D02*
D03*
X5453Y26362D02*
D03*
D17*
X17681Y-19748D02*
D03*
X-29563Y-13185D02*
D03*
X-5941Y-6622D02*
D03*
X17681Y-59D02*
D03*
X-29563Y6504D02*
D03*
X-5941Y13067D02*
D03*
X17681Y19630D02*
D03*
X-29563Y26193D02*
D03*
X-5941Y32756D02*
D03*
Y-26299D02*
D03*
D28*
X-42500Y3740D02*
Y28500D01*
X-25000Y46000D02*
X-15000D01*
X-42500Y28500D02*
X-25000Y46000D01*
X27000Y41500D02*
X41866Y26634D01*
X5000Y46000D02*
X9500Y41500D01*
X27000D01*
X41866Y7500D02*
Y26634D01*
X-6041Y-26400D02*
X-5941Y-26299D01*
X-11000Y-26500D02*
X-10900Y-26400D01*
X-6041D01*
X532Y-26102D02*
X3681D01*
X-5502Y-20069D02*
X532Y-26102D01*
X-11507Y-20069D02*
X-5502D01*
X-13726Y-22288D02*
X-11507Y-20069D01*
X-15945Y-24634D02*
X-13726Y-22415D01*
X-15945Y-33823D02*
Y-24634D01*
X-13726Y-22415D02*
Y-22288D01*
X-42691Y-20809D02*
X-35000Y-28500D01*
X-21268D01*
X-42691Y-20809D02*
Y-10000D01*
X-21268Y-28500D02*
X-15945Y-33823D01*
X-36000Y-10000D02*
X-33500Y-7500D01*
X-42691Y-10000D02*
X-36000D01*
X-33500Y-7500D02*
X-24000D01*
X-23915Y-12163D02*
X-23090Y-12988D01*
X-24000Y-7500D02*
X-23915Y-7585D01*
Y-12163D02*
Y-7585D01*
X-24000Y-7500D02*
X-17269D01*
X-23090Y-12988D02*
X-19941D01*
X-17269Y-7500D02*
X-13370Y-3600D01*
X-39516Y8984D02*
Y25922D01*
X-36224Y29215D01*
X-25915D01*
X-23090Y26390D01*
X-19941D01*
X-42760Y-4000D02*
X-42691Y-3931D01*
X-42500Y-3740D01*
X-42691Y-10000D02*
Y-3931D01*
X-48000Y-4000D02*
X-42760D01*
X-13370Y-3600D02*
X-2293D01*
X532Y-6425D02*
X3681D01*
X-2293Y-3600D02*
X532Y-6425D01*
X-9018Y16089D02*
X-2293D01*
X532Y13264D02*
X3681D01*
X-2293Y16089D02*
X532Y13264D01*
X-12106Y13000D02*
X-9018Y16089D01*
X-18500Y13000D02*
X-12106D01*
X-19941Y6701D02*
X-19325D01*
X-18500Y7526D01*
Y13000D01*
X39950Y1450D02*
X40157D01*
X37456Y-12548D02*
Y-1044D01*
X32815Y2500D02*
X41000D01*
X41207D02*
X41866D01*
X40157Y1450D02*
X41207Y2500D01*
X37456Y-1044D02*
X39950Y1450D01*
X30453Y138D02*
X32815Y2500D01*
X27303Y-19551D02*
X30453D01*
X37456Y-12548D01*
X36313Y19904D02*
X38596Y17621D01*
X27381Y19904D02*
X36313D01*
X38596Y5065D02*
Y17621D01*
X27303Y19827D02*
X27381Y19904D01*
X38596Y5065D02*
X39634Y4027D01*
X27303Y138D02*
X30453D01*
X39634Y4027D02*
X39680D01*
X41207Y2500D01*
X24154Y19827D02*
X27303D01*
X3705Y32976D02*
X10476D01*
X10500Y33000D01*
X3681Y32953D02*
X3705Y32976D01*
X5453Y26362D02*
X10862D01*
X13500Y29000D01*
Y36000D01*
X11000Y38500D02*
X13500Y36000D01*
X29433Y-26500D02*
X34500D01*
X29075Y-26142D02*
X29433Y-26500D01*
X-35500Y-13500D02*
X-29878D01*
X-29563Y-13185D01*
X11764Y-24878D02*
X16894Y-19748D01*
X5453Y-32693D02*
X5847D01*
X16894Y-19748D02*
X17681D01*
X11764Y-26776D02*
Y-24878D01*
X5847Y-32693D02*
X11764Y-26776D01*
X29075Y-6453D02*
X29376Y-6152D01*
X35025D01*
X-35500Y6500D02*
X-35496Y6504D01*
X-29563D01*
X-17776Y-19579D02*
X-11858Y-13661D01*
X-18169Y-19579D02*
X-17776D01*
X-6728Y-6622D02*
X-5941D01*
X-11858Y-11752D02*
X-6728Y-6622D01*
X-11858Y-13661D02*
Y-11752D01*
X11764Y-5189D02*
X16894Y-59D01*
X5847Y-13016D02*
X11764Y-7098D01*
X5453Y-13016D02*
X5847D01*
X16894Y-59D02*
X17681D01*
X11764Y-7098D02*
Y-5189D01*
X-17776Y110D02*
X-11858Y6028D01*
X-18169Y110D02*
X-17776D01*
X-6728Y13067D02*
X-5941D01*
X-11858Y7937D02*
X-6728Y13067D01*
X-11858Y6028D02*
Y7937D01*
X11764Y12591D02*
Y14500D01*
X5847Y6673D02*
X11764Y12591D01*
X5453Y6673D02*
X5847D01*
X16894Y19630D02*
X17681D01*
X11764Y14500D02*
X16894Y19630D01*
X29311Y13000D02*
X36000D01*
X29075Y13236D02*
X29311Y13000D01*
X-36000Y26000D02*
X-35807Y26193D01*
X-29563D01*
X-11858Y25717D02*
Y27626D01*
X-18169Y19799D02*
X-17776D01*
X-6728Y32756D02*
X-5941D01*
X-11858Y27626D02*
X-6728Y32756D01*
X-17776Y19799D02*
X-11858Y25717D01*
X20260Y32000D02*
Y38069D01*
X2500Y38500D02*
X11000D01*
X-5000Y46000D02*
X2500Y38500D01*
D29*
X5000Y-46000D02*
D03*
X15000Y46000D02*
D03*
X5000D02*
D03*
X-5000D02*
D03*
D30*
Y-46000D02*
D03*
X-15000Y46000D02*
D03*
D31*
X41866Y2500D02*
D03*
Y-2500D02*
D03*
Y-7500D02*
D03*
D32*
Y7500D02*
D03*
D33*
X-11000Y-26500D02*
D03*
X-24000Y-7500D02*
D03*
X-39516Y8984D02*
D03*
X-48000Y-4000D02*
D03*
X-42691Y-10000D02*
D03*
X-18500Y13000D02*
D03*
X10500Y33000D02*
D03*
X34500Y-26500D02*
D03*
X-35500Y-13500D02*
D03*
X35025Y-6152D02*
D03*
X-35500Y6500D02*
D03*
X36000Y13000D02*
D03*
X-36000Y26000D02*
D03*
X20260Y38069D02*
D03*
M02*
