G04*
G04 #@! TF.GenerationSoftware,Altium Limited,Altium Designer,22.0.2 (36)*
G04*
G04 Layer_Color=65535*
%FSLAX25Y25*%
%MOIN*%
G70*
G04*
G04 #@! TF.SameCoordinates,4316817A-AEA0-4868-BE51-98C0054D8074*
G04*
G04*
G04 #@! TF.FilePolarity,Positive*
G04*
G01*
G75*
%ADD10C,0.00787*%
%ADD11C,0.01000*%
D10*
X-10000Y-41000D02*
X10000D01*
X-10000Y-51000D02*
Y-41000D01*
Y-51000D02*
X10000D01*
Y-41000D01*
X-20000Y41000D02*
Y51000D01*
X20000Y51000D01*
X-20000Y41000D02*
X20000Y41000D01*
Y51000D01*
X-38500Y1969D02*
Y7300D01*
X-46500Y1969D02*
Y7300D01*
X-46437Y7350D02*
X-38563D01*
X-46437Y-7400D02*
X-38563D01*
X-38500D02*
Y-1969D01*
X-46500Y-7400D02*
Y-1969D01*
X-27085Y-29823D02*
X-21654D01*
X-27085Y-37823D02*
X-21654D01*
X-27085Y-37760D02*
Y-29886D01*
X-12335Y-37760D02*
Y-29886D01*
X-17717Y-29823D02*
X-12385D01*
X-17717Y-37823D02*
X-12385D01*
X16700Y36000D02*
X22031D01*
X16700Y28000D02*
X22031D01*
X16650Y28063D02*
Y35937D01*
X31400Y28063D02*
Y35937D01*
X25969Y36000D02*
X31400D01*
X25969Y28000D02*
X31400D01*
X38366Y-10500D02*
X45366D01*
X45527Y9843D02*
X46524D01*
X45527D02*
X46524D01*
X47378Y8988D01*
X45366Y-10500D02*
X47378Y-8488D01*
Y8988D01*
X36354Y-8488D02*
X38366Y-10500D01*
X37209Y9843D02*
X38205D01*
X36354Y8988D02*
X37209Y9843D01*
X36354Y-8488D02*
Y8988D01*
D11*
X6799Y-29128D02*
Y-28828D01*
X6799Y-23528D02*
Y-22728D01*
X-7000Y-23528D02*
Y-22728D01*
X6799D01*
X-7000Y-29428D02*
Y-29128D01*
Y-36528D02*
X6799D01*
X16622Y-29976D02*
X30421D01*
X16622Y-22876D02*
Y-22576D01*
Y-16177D02*
X30421D01*
X16622Y-16976D02*
Y-16177D01*
X30421Y-16976D02*
Y-16177D01*
X30421Y-22576D02*
Y-22276D01*
X-16823Y-16013D02*
Y-15713D01*
X-16823Y-10413D02*
Y-9614D01*
X-30622Y-10413D02*
Y-9614D01*
X-16823D01*
X-30622Y-16313D02*
Y-16013D01*
Y-23413D02*
X-16823D01*
X-7000Y-16850D02*
X6799D01*
X-7000Y-9750D02*
Y-9450D01*
Y-3051D02*
X6799D01*
X-7000Y-3850D02*
Y-3051D01*
X6799Y-3850D02*
Y-3051D01*
X6799Y-9450D02*
Y-9150D01*
X16622Y-10287D02*
X30421D01*
X16622Y-3187D02*
Y-2887D01*
Y3512D02*
X30421D01*
X16622Y2713D02*
Y3512D01*
X30421Y2713D02*
Y3512D01*
X30421Y-2887D02*
Y-2587D01*
X-30622Y-3724D02*
X-16823D01*
X-30622Y3376D02*
Y3676D01*
Y10075D02*
X-16823D01*
X-30622Y9276D02*
Y10075D01*
X-16823Y9276D02*
Y10075D01*
X-16823Y3676D02*
Y3976D01*
X6799Y10239D02*
Y10539D01*
X6799Y15839D02*
Y16638D01*
X-7000Y15839D02*
Y16638D01*
X6799D01*
X-7000Y9939D02*
Y10239D01*
Y2839D02*
X6799D01*
X30421Y16802D02*
Y17102D01*
X30421Y22402D02*
Y23201D01*
X16622Y22402D02*
Y23201D01*
X30421D01*
X16622Y16502D02*
Y16802D01*
Y9402D02*
X30421D01*
X-16823Y23365D02*
Y23665D01*
X-16823Y28965D02*
Y29764D01*
X-30622Y28965D02*
Y29764D01*
X-16823D01*
X-30622Y23065D02*
Y23365D01*
Y15965D02*
X-16823D01*
X-7000Y22528D02*
X6799D01*
X-7000Y29628D02*
Y29928D01*
Y36327D02*
X6799D01*
X-7000Y35528D02*
Y36327D01*
X6799Y35528D02*
Y36327D01*
X6799Y29928D02*
Y30228D01*
X-17999Y-43999D02*
Y-41001D01*
X-16500D01*
X-16000Y-41500D01*
Y-42500D01*
X-16500Y-43000D01*
X-17999D01*
X-13501Y-43999D02*
Y-41001D01*
X-15000Y-42500D01*
X-13001D01*
X-26999Y41001D02*
Y43999D01*
X-25500D01*
X-25000Y43500D01*
Y42500D01*
X-25500Y42000D01*
X-26999D01*
X-24000Y41001D02*
X-23001D01*
X-23501D01*
Y43999D01*
X-24000Y43500D01*
X36000Y30500D02*
X35500Y30999D01*
X34501D01*
X34001Y30500D01*
Y28500D01*
X34501Y28001D01*
X35500D01*
X36000Y28500D01*
X38999Y28001D02*
X37000D01*
X38999Y30000D01*
Y30500D01*
X38499Y30999D01*
X37500D01*
X37000Y30500D01*
X-46499Y14499D02*
X-43501D01*
Y13000D01*
X-44000Y12500D01*
X-45000D01*
X-45500Y13000D01*
Y14499D01*
Y13500D02*
X-46499Y12500D01*
Y11500D02*
Y10501D01*
Y11000D01*
X-43501D01*
X-44000Y11500D01*
X10751Y-33500D02*
Y-36500D01*
X12251D01*
X12751Y-36000D01*
Y-34000D01*
X12251Y-33500D01*
X10751D01*
X13750Y-36500D02*
X14750D01*
X14250D01*
Y-33500D01*
X13750Y-34000D01*
X16249D02*
X16749Y-33500D01*
X17749D01*
X18249Y-34000D01*
Y-36000D01*
X17749Y-36500D01*
X16749D01*
X16249Y-36000D01*
Y-34000D01*
X10001Y-13001D02*
Y-16000D01*
X11500D01*
X12000Y-15500D01*
Y-13500D01*
X11500Y-13001D01*
X10001D01*
X13000Y-15500D02*
X13500Y-16000D01*
X14499D01*
X14999Y-15500D01*
Y-13500D01*
X14499Y-13001D01*
X13500D01*
X13000Y-13500D01*
Y-14000D01*
X13500Y-14500D01*
X14999D01*
X-37999Y-23000D02*
Y-26000D01*
X-36500D01*
X-36000Y-25500D01*
Y-23500D01*
X-36500Y-23000D01*
X-37999D01*
X-35000Y-23500D02*
X-34500Y-23000D01*
X-33501D01*
X-33001Y-23500D01*
Y-24000D01*
X-33501Y-24500D01*
X-33001Y-25000D01*
Y-25500D01*
X-33501Y-26000D01*
X-34500D01*
X-35000Y-25500D01*
Y-25000D01*
X-34500Y-24500D01*
X-35000Y-24000D01*
Y-23500D01*
X-34500Y-24500D02*
X-33501D01*
X-12999Y1000D02*
Y-2000D01*
X-11500D01*
X-11000Y-1500D01*
Y500D01*
X-11500Y1000D01*
X-12999D01*
X-10000D02*
X-8001D01*
Y500D01*
X-10000Y-1500D01*
Y-2000D01*
X10501Y7500D02*
Y4501D01*
X12000D01*
X12500Y5000D01*
Y7000D01*
X12000Y7500D01*
X10501D01*
X15499D02*
X14500Y7000D01*
X13500Y6000D01*
Y5000D01*
X14000Y4501D01*
X14999D01*
X15499Y5000D01*
Y5500D01*
X14999Y6000D01*
X13500D01*
X-36499Y14500D02*
Y11501D01*
X-35000D01*
X-34500Y12000D01*
Y14000D01*
X-35000Y14500D01*
X-36499D01*
X-31501D02*
X-33500D01*
Y13000D01*
X-32500Y13500D01*
X-32001D01*
X-31501Y13000D01*
Y12000D01*
X-32001Y11501D01*
X-33000D01*
X-33500Y12000D01*
X-13499Y21000D02*
Y18000D01*
X-12000D01*
X-11500Y18500D01*
Y20500D01*
X-12000Y21000D01*
X-13499D01*
X-9001Y18000D02*
Y21000D01*
X-10500Y19500D01*
X-8501D01*
X10501Y27000D02*
Y24001D01*
X12000D01*
X12500Y24500D01*
Y26500D01*
X12000Y27000D01*
X10501D01*
X13500Y26500D02*
X14000Y27000D01*
X14999D01*
X15499Y26500D01*
Y26000D01*
X14999Y25500D01*
X14500D01*
X14999D01*
X15499Y25000D01*
Y24500D01*
X14999Y24001D01*
X14000D01*
X13500Y24500D01*
X-37499Y33999D02*
Y31001D01*
X-36000D01*
X-35500Y31500D01*
Y33500D01*
X-36000Y33999D01*
X-37499D01*
X-32501Y31001D02*
X-34500D01*
X-32501Y33000D01*
Y33500D01*
X-33001Y33999D01*
X-34000D01*
X-34500Y33500D01*
X-15999Y36999D02*
Y34001D01*
X-14500D01*
X-14000Y34500D01*
Y36500D01*
X-14500Y36999D01*
X-15999D01*
X-13000Y34001D02*
X-12001D01*
X-12501D01*
Y36999D01*
X-13000Y36500D01*
X-31500Y-32500D02*
X-32000Y-32000D01*
X-33000D01*
X-33499Y-32500D01*
Y-34500D01*
X-33000Y-34999D01*
X-32000D01*
X-31500Y-34500D01*
X-30500Y-34999D02*
X-29501D01*
X-30000D01*
Y-32000D01*
X-30500Y-32500D01*
X35251Y16000D02*
Y13001D01*
X36751D01*
X37251Y13500D01*
Y15500D01*
X36751Y16000D01*
X35251D01*
X38250Y13001D02*
X39250D01*
X38750D01*
Y16000D01*
X38250Y15500D01*
X42749Y13001D02*
X40749D01*
X42749Y15000D01*
Y15500D01*
X42249Y16000D01*
X41249D01*
X40749Y15500D01*
M02*
