G04*
G04 #@! TF.GenerationSoftware,Altium Limited,Altium Designer,22.0.2 (36)*
G04*
G04 Layer_Color=255*
%FSLAX25Y25*%
%MOIN*%
G70*
G04*
G04 #@! TF.SameCoordinates,4316817A-AEA0-4868-BE51-98C0054D8074*
G04*
G04*
G04 #@! TF.FilePolarity,Positive*
G04*
G01*
G75*
%ADD12R,0.05906X0.05118*%
%ADD13R,0.05118X0.05906*%
%ADD14R,0.09449X0.03150*%
%ADD15R,0.08661X0.04724*%
%ADD16R,0.05906X0.05118*%
%ADD17R,0.05118X0.03543*%
%ADD29C,0.05906*%
%ADD30R,0.05906X0.05906*%
%ADD31C,0.03937*%
%ADD32R,0.03937X0.03937*%
D12*
X-42500Y3740D02*
D03*
Y-3740D02*
D03*
D13*
X-23425Y-33823D02*
D03*
X-15945D02*
D03*
X20260Y32000D02*
D03*
X27740D02*
D03*
D14*
X3681Y-26102D02*
D03*
X27303Y-19551D02*
D03*
X-19941Y-12988D02*
D03*
X3681Y-6425D02*
D03*
X27303Y138D02*
D03*
X-19941Y6701D02*
D03*
X3681Y13264D02*
D03*
X27303Y19827D02*
D03*
X-19941Y26390D02*
D03*
X3681Y32953D02*
D03*
D15*
X-4169Y-32890D02*
D03*
X19453Y-26339D02*
D03*
X-27791Y-19776D02*
D03*
X-4169Y-13213D02*
D03*
X19453Y-6650D02*
D03*
X-27791Y-87D02*
D03*
X-4169Y6476D02*
D03*
X19453Y13039D02*
D03*
X-27791Y19602D02*
D03*
X-4169Y26165D02*
D03*
D16*
X5453Y-32693D02*
D03*
X29075Y-26142D02*
D03*
X-18169Y-19579D02*
D03*
X5453Y-13016D02*
D03*
X29075Y-6453D02*
D03*
X-18169Y110D02*
D03*
X5453Y6673D02*
D03*
X29075Y13236D02*
D03*
X-18169Y19799D02*
D03*
X5453Y26362D02*
D03*
D17*
X17681Y-19748D02*
D03*
X-29563Y-13185D02*
D03*
X-5941Y-6622D02*
D03*
X17681Y-59D02*
D03*
X-29563Y6504D02*
D03*
X-5941Y13067D02*
D03*
X17681Y19630D02*
D03*
X-29563Y26193D02*
D03*
X-5941Y32756D02*
D03*
Y-26299D02*
D03*
D29*
X5000Y-46000D02*
D03*
X15000Y46000D02*
D03*
X5000D02*
D03*
X-5000D02*
D03*
D30*
Y-46000D02*
D03*
X-15000Y46000D02*
D03*
D31*
X41866Y2500D02*
D03*
Y-2500D02*
D03*
Y-7500D02*
D03*
D32*
Y7500D02*
D03*
M02*
