G04*
G04 #@! TF.GenerationSoftware,Altium Limited,Altium Designer,22.0.2 (36)*
G04*
G04 Layer_Physical_Order=2*
G04 Layer_Color=16711680*
%FSLAX25Y25*%
%MOIN*%
G70*
G04*
G04 #@! TF.SameCoordinates,1A689208-BD95-45DA-ABC7-FB7124052531*
G04*
G04*
G04 #@! TF.FilePolarity,Positive*
G04*
G01*
G75*
%ADD10C,0.01000*%
%ADD16R,0.05512X0.05512*%
%ADD17C,0.05512*%
%ADD18C,0.04331*%
%ADD19C,0.06102*%
%ADD20R,0.06102X0.06102*%
%ADD21C,0.05906*%
%ADD22R,0.05906X0.05906*%
G36*
X137795Y-98425D02*
X-137795D01*
Y98425D01*
X137795D01*
Y-98425D01*
D02*
G37*
%LPC*%
G36*
X-4421Y84827D02*
Y81307D01*
X-901D01*
X-974Y81865D01*
X-1383Y82850D01*
X-2032Y83696D01*
X-2878Y84346D01*
X-3864Y84754D01*
X-4421Y84827D01*
D02*
G37*
G36*
X-5421D02*
X-5979Y84754D01*
X-6964Y84346D01*
X-7811Y83696D01*
X-8460Y82850D01*
X-8868Y81865D01*
X-8942Y81307D01*
X-5421D01*
Y84827D01*
D02*
G37*
G36*
X-901Y80307D02*
X-4421D01*
Y76787D01*
X-3864Y76860D01*
X-2878Y77268D01*
X-2032Y77918D01*
X-1383Y78764D01*
X-974Y79750D01*
X-901Y80307D01*
D02*
G37*
G36*
X-5421D02*
X-8942D01*
X-8868Y79750D01*
X-8460Y78764D01*
X-7811Y77918D01*
X-6964Y77268D01*
X-5979Y76860D01*
X-5421Y76787D01*
Y80307D01*
D02*
G37*
G36*
X8973Y84858D02*
X870D01*
Y76756D01*
X8973D01*
Y84858D01*
D02*
G37*
G36*
X11220Y76126D02*
X10394Y76017D01*
X9624Y75698D01*
X8963Y75191D01*
X8456Y74529D01*
X8137Y73759D01*
X8028Y72933D01*
X8137Y72107D01*
X8456Y71337D01*
X8963Y70675D01*
X9624Y70168D01*
X10394Y69849D01*
X11220Y69740D01*
X12047Y69849D01*
X12817Y70168D01*
X13478Y70675D01*
X13985Y71337D01*
X14304Y72107D01*
X14413Y72933D01*
X14304Y73759D01*
X13985Y74529D01*
X13478Y75191D01*
X12817Y75698D01*
X12047Y76017D01*
X11220Y76126D01*
D02*
G37*
G36*
X84398Y49921D02*
Y46500D01*
X87819D01*
X87749Y47032D01*
X87350Y47993D01*
X86717Y48819D01*
X85891Y49453D01*
X84930Y49851D01*
X84398Y49921D01*
D02*
G37*
G36*
X83398D02*
X82866Y49851D01*
X81904Y49453D01*
X81078Y48819D01*
X80445Y47993D01*
X80047Y47032D01*
X79977Y46500D01*
X83398D01*
Y49921D01*
D02*
G37*
G36*
X-53398D02*
Y46500D01*
X-49977D01*
X-50047Y47032D01*
X-50445Y47993D01*
X-51078Y48819D01*
X-51904Y49453D01*
X-52866Y49851D01*
X-53398Y49921D01*
D02*
G37*
G36*
X-54398D02*
X-54930Y49851D01*
X-55891Y49453D01*
X-56717Y48819D01*
X-57350Y47993D01*
X-57749Y47032D01*
X-57819Y46500D01*
X-54398D01*
Y49921D01*
D02*
G37*
G36*
X87819Y45500D02*
X84398D01*
Y42079D01*
X84930Y42149D01*
X85891Y42547D01*
X86717Y43181D01*
X87350Y44007D01*
X87749Y44968D01*
X87819Y45500D01*
D02*
G37*
G36*
X83398D02*
X79977D01*
X80047Y44968D01*
X80445Y44007D01*
X81078Y43181D01*
X81904Y42547D01*
X82866Y42149D01*
X83398Y42079D01*
Y45500D01*
D02*
G37*
G36*
X-49977D02*
X-53398D01*
Y42079D01*
X-52866Y42149D01*
X-51904Y42547D01*
X-51078Y43181D01*
X-50445Y44007D01*
X-50047Y44968D01*
X-49977Y45500D01*
D02*
G37*
G36*
X-54398D02*
X-57819D01*
X-57749Y44968D01*
X-57350Y44007D01*
X-56717Y43181D01*
X-55891Y42547D01*
X-54930Y42149D01*
X-54398Y42079D01*
Y45500D01*
D02*
G37*
G36*
X57850Y49953D02*
X49945D01*
Y42047D01*
X57850D01*
Y49953D01*
D02*
G37*
G36*
X-79945D02*
X-87850D01*
Y42047D01*
X-79945D01*
Y49953D01*
D02*
G37*
G36*
X73898Y49987D02*
X72866Y49851D01*
X71904Y49453D01*
X71078Y48819D01*
X70445Y47993D01*
X70047Y47032D01*
X69911Y46000D01*
X70047Y44968D01*
X70239Y44504D01*
X-5581Y-31316D01*
X-5913Y-31812D01*
X-6029Y-32398D01*
Y-42855D01*
X-6493Y-43047D01*
X-7319Y-43681D01*
X-7953Y-44507D01*
X-8351Y-45468D01*
X-8487Y-46500D01*
X-8351Y-47532D01*
X-7953Y-48493D01*
X-7319Y-49319D01*
X-6493Y-49953D01*
X-5532Y-50351D01*
X-4500Y-50487D01*
X-3468Y-50351D01*
X-2507Y-49953D01*
X-1681Y-49319D01*
X-1047Y-48493D01*
X-649Y-47532D01*
X-513Y-46500D01*
X-649Y-45468D01*
X-1047Y-44507D01*
X-1681Y-43681D01*
X-2507Y-43047D01*
X-2971Y-42855D01*
Y-33031D01*
X72402Y42341D01*
X72866Y42149D01*
X73898Y42013D01*
X74929Y42149D01*
X75891Y42547D01*
X76717Y43181D01*
X77350Y44007D01*
X77749Y44968D01*
X77885Y46000D01*
X77749Y47032D01*
X77350Y47993D01*
X76717Y48819D01*
X75891Y49453D01*
X74929Y49851D01*
X73898Y49987D01*
D02*
G37*
G36*
X63898D02*
X62866Y49851D01*
X61904Y49453D01*
X61079Y48819D01*
X60445Y47993D01*
X60047Y47032D01*
X59911Y46000D01*
X60047Y44968D01*
X60445Y44007D01*
X61079Y43181D01*
X61904Y42547D01*
X62866Y42149D01*
X63898Y42013D01*
X64929Y42149D01*
X65891Y42547D01*
X66717Y43181D01*
X67350Y44007D01*
X67749Y44968D01*
X67884Y46000D01*
X67749Y47032D01*
X67350Y47993D01*
X66717Y48819D01*
X65891Y49453D01*
X64929Y49851D01*
X63898Y49987D01*
D02*
G37*
G36*
X-63898D02*
X-64929Y49851D01*
X-65891Y49453D01*
X-66717Y48819D01*
X-67350Y47993D01*
X-67749Y47032D01*
X-67884Y46000D01*
X-67749Y44968D01*
X-67350Y44007D01*
X-66717Y43181D01*
X-65891Y42547D01*
X-64929Y42149D01*
X-63898Y42013D01*
X-62866Y42149D01*
X-61904Y42547D01*
X-61079Y43181D01*
X-60445Y44007D01*
X-60047Y44968D01*
X-59911Y46000D01*
X-60047Y47032D01*
X-60445Y47993D01*
X-61079Y48819D01*
X-61904Y49453D01*
X-62866Y49851D01*
X-63898Y49987D01*
D02*
G37*
G36*
X-73898D02*
X-74929Y49851D01*
X-75891Y49453D01*
X-76717Y48819D01*
X-77350Y47993D01*
X-77749Y47032D01*
X-77885Y46000D01*
X-77749Y44968D01*
X-77350Y44007D01*
X-76717Y43181D01*
X-75891Y42547D01*
X-74929Y42149D01*
X-73898Y42013D01*
X-72866Y42149D01*
X-71904Y42547D01*
X-71078Y43181D01*
X-70445Y44007D01*
X-70047Y44968D01*
X-69911Y46000D01*
X-70047Y47032D01*
X-70445Y47993D01*
X-71078Y48819D01*
X-71904Y49453D01*
X-72866Y49851D01*
X-73898Y49987D01*
D02*
G37*
G36*
X73898Y-42013D02*
X72866Y-42149D01*
X71904Y-42547D01*
X71078Y-43181D01*
X70445Y-44007D01*
X70047Y-44968D01*
X69911Y-46000D01*
X70047Y-47032D01*
X70445Y-47993D01*
X71078Y-48819D01*
X71904Y-49453D01*
X72866Y-49851D01*
X73898Y-49987D01*
X74929Y-49851D01*
X75891Y-49453D01*
X76717Y-48819D01*
X77350Y-47993D01*
X77749Y-47032D01*
X77885Y-46000D01*
X77749Y-44968D01*
X77350Y-44007D01*
X76717Y-43181D01*
X75891Y-42547D01*
X74929Y-42149D01*
X73898Y-42013D01*
D02*
G37*
G36*
X5500Y-42513D02*
X4468Y-42649D01*
X3507Y-43047D01*
X2681Y-43681D01*
X2047Y-44507D01*
X1649Y-45468D01*
X1513Y-46500D01*
X1649Y-47532D01*
X2047Y-48493D01*
X2681Y-49319D01*
X3507Y-49953D01*
X4468Y-50351D01*
X5500Y-50487D01*
X6532Y-50351D01*
X7493Y-49953D01*
X8319Y-49319D01*
X8953Y-48493D01*
X9351Y-47532D01*
X9487Y-46500D01*
X9351Y-45468D01*
X8953Y-44507D01*
X8319Y-43681D01*
X7493Y-43047D01*
X6532Y-42649D01*
X5500Y-42513D01*
D02*
G37*
G36*
X15500Y-42513D02*
X14468Y-42649D01*
X13507Y-43047D01*
X12681Y-43681D01*
X12047Y-44507D01*
X11649Y-45468D01*
X11513Y-46500D01*
X11649Y-47532D01*
X12047Y-48493D01*
X12681Y-49319D01*
X13507Y-49953D01*
X14468Y-50351D01*
X15500Y-50487D01*
X16532Y-50351D01*
X17493Y-49953D01*
X18319Y-49319D01*
X18953Y-48493D01*
X19351Y-47532D01*
X19487Y-46500D01*
X19351Y-45468D01*
X18953Y-44507D01*
X18319Y-43681D01*
X17493Y-43047D01*
X16532Y-42649D01*
X15500Y-42513D01*
D02*
G37*
G36*
X-14500D02*
X-15532Y-42649D01*
X-16493Y-43047D01*
X-17319Y-43681D01*
X-17953Y-44507D01*
X-18351Y-45468D01*
X-18487Y-46500D01*
X-18351Y-47532D01*
X-17953Y-48493D01*
X-17319Y-49319D01*
X-16493Y-49953D01*
X-15532Y-50351D01*
X-14500Y-50487D01*
X-13468Y-50351D01*
X-12507Y-49953D01*
X-11681Y-49319D01*
X-11047Y-48493D01*
X-10649Y-47532D01*
X-10513Y-46500D01*
X-10649Y-45468D01*
X-11047Y-44507D01*
X-11681Y-43681D01*
X-12507Y-43047D01*
X-13468Y-42649D01*
X-14500Y-42513D01*
D02*
G37*
G36*
X5500Y-52513D02*
X4468Y-52649D01*
X3507Y-53047D01*
X2681Y-53681D01*
X2047Y-54507D01*
X1649Y-55468D01*
X1513Y-56500D01*
X1649Y-57532D01*
X2047Y-58493D01*
X2681Y-59319D01*
X3507Y-59953D01*
X4468Y-60351D01*
X5500Y-60487D01*
X6532Y-60351D01*
X7493Y-59953D01*
X8319Y-59319D01*
X8953Y-58493D01*
X9351Y-57532D01*
X9487Y-56500D01*
X9351Y-55468D01*
X8953Y-54507D01*
X8319Y-53681D01*
X7493Y-53047D01*
X6532Y-52649D01*
X5500Y-52513D01*
D02*
G37*
G36*
X-63898Y-42013D02*
X-64929Y-42149D01*
X-65891Y-42547D01*
X-66717Y-43181D01*
X-67350Y-44007D01*
X-67749Y-44968D01*
X-67884Y-46000D01*
X-67749Y-47032D01*
X-67350Y-47993D01*
X-66717Y-48819D01*
X-65891Y-49453D01*
X-64929Y-49851D01*
X-63898Y-49987D01*
X-62866Y-49851D01*
X-62402Y-49659D01*
X-51099Y-60961D01*
X-51290Y-61423D01*
X-56311D01*
X-69945Y-47790D01*
Y-42047D01*
X-77850D01*
Y-49953D01*
X-72108D01*
X-58026Y-64034D01*
X-57530Y-64366D01*
X-56945Y-64482D01*
X9047D01*
X9633Y-64366D01*
X10129Y-64034D01*
X13710Y-60453D01*
X19453D01*
Y-52547D01*
X11547D01*
Y-58290D01*
X8414Y-61423D01*
X-6607D01*
X-6799Y-60961D01*
X-5996Y-60159D01*
X-5532Y-60351D01*
X-4500Y-60487D01*
X-3468Y-60351D01*
X-2507Y-59953D01*
X-1681Y-59319D01*
X-1047Y-58493D01*
X-649Y-57532D01*
X-513Y-56500D01*
X-649Y-55468D01*
X-1047Y-54507D01*
X-1681Y-53681D01*
X-2507Y-53047D01*
X-3468Y-52649D01*
X-4500Y-52513D01*
X-5532Y-52649D01*
X-6493Y-53047D01*
X-7319Y-53681D01*
X-7953Y-54507D01*
X-8351Y-55468D01*
X-8487Y-56500D01*
X-8351Y-57532D01*
X-8159Y-57996D01*
X-9586Y-59423D01*
X-11131D01*
X-11377Y-58923D01*
X-11047Y-58493D01*
X-10649Y-57532D01*
X-10513Y-56500D01*
X-10649Y-55468D01*
X-11047Y-54507D01*
X-11681Y-53681D01*
X-12507Y-53047D01*
X-13468Y-52649D01*
X-14500Y-52513D01*
X-15532Y-52649D01*
X-16493Y-53047D01*
X-17319Y-53681D01*
X-17953Y-54507D01*
X-18351Y-55468D01*
X-18487Y-56500D01*
X-18351Y-57532D01*
X-17953Y-58493D01*
X-17623Y-58923D01*
X-17869Y-59423D01*
X-48311D01*
X-60239Y-47496D01*
X-60047Y-47032D01*
X-59911Y-46000D01*
X-60047Y-44968D01*
X-60445Y-44007D01*
X-61079Y-43181D01*
X-61904Y-42547D01*
X-62866Y-42149D01*
X-63898Y-42013D01*
D02*
G37*
G36*
X18520Y-72917D02*
X11008D01*
Y-80429D01*
X18520D01*
Y-72917D01*
D02*
G37*
G36*
X4921Y-72885D02*
X3941Y-73014D01*
X3027Y-73392D01*
X2242Y-73994D01*
X1640Y-74779D01*
X1262Y-75693D01*
X1133Y-76673D01*
X1262Y-77654D01*
X1640Y-78567D01*
X2242Y-79352D01*
X3027Y-79954D01*
X3941Y-80332D01*
X4921Y-80462D01*
X5902Y-80332D01*
X6815Y-79954D01*
X7600Y-79352D01*
X8202Y-78567D01*
X8580Y-77654D01*
X8710Y-76673D01*
X8580Y-75693D01*
X8202Y-74779D01*
X7600Y-73994D01*
X6815Y-73392D01*
X5902Y-73014D01*
X4921Y-72885D01*
D02*
G37*
G36*
X-4921D02*
X-5902Y-73014D01*
X-6815Y-73392D01*
X-7600Y-73994D01*
X-8202Y-74779D01*
X-8580Y-75693D01*
X-8710Y-76673D01*
X-8580Y-77654D01*
X-8202Y-78567D01*
X-7600Y-79352D01*
X-6815Y-79954D01*
X-5902Y-80332D01*
X-4921Y-80462D01*
X-3941Y-80332D01*
X-3027Y-79954D01*
X-2242Y-79352D01*
X-1640Y-78567D01*
X-1262Y-77654D01*
X-1133Y-76673D01*
X-1262Y-75693D01*
X-1640Y-74779D01*
X-2242Y-73994D01*
X-3027Y-73392D01*
X-3941Y-73014D01*
X-4921Y-72885D01*
D02*
G37*
G36*
X-14764D02*
X-15744Y-73014D01*
X-16658Y-73392D01*
X-17443Y-73994D01*
X-18045Y-74779D01*
X-18423Y-75693D01*
X-18552Y-76673D01*
X-18423Y-77654D01*
X-18045Y-78567D01*
X-17443Y-79352D01*
X-16658Y-79954D01*
X-15744Y-80332D01*
X-14764Y-80462D01*
X-13783Y-80332D01*
X-12870Y-79954D01*
X-12085Y-79352D01*
X-11483Y-78567D01*
X-11105Y-77654D01*
X-10976Y-76673D01*
X-11105Y-75693D01*
X-11483Y-74779D01*
X-12085Y-73994D01*
X-12870Y-73392D01*
X-13783Y-73014D01*
X-14764Y-72885D01*
D02*
G37*
G36*
X67850Y-42047D02*
X59945D01*
Y-49953D01*
X62368D01*
Y-68740D01*
X62485Y-69325D01*
X62816Y-69822D01*
X69945Y-76950D01*
Y-82693D01*
X77850D01*
Y-74787D01*
X72108D01*
X65427Y-68107D01*
Y-49953D01*
X67850D01*
Y-42047D01*
D02*
G37*
G36*
X63898Y-74753D02*
X62866Y-74889D01*
X61904Y-75287D01*
X61079Y-75921D01*
X60445Y-76747D01*
X60047Y-77708D01*
X59911Y-78740D01*
X60047Y-79772D01*
X60445Y-80734D01*
X61079Y-81559D01*
X61904Y-82193D01*
X62866Y-82591D01*
X63898Y-82727D01*
X64929Y-82591D01*
X65891Y-82193D01*
X66717Y-81559D01*
X67350Y-80734D01*
X67749Y-79772D01*
X67884Y-78740D01*
X67749Y-77708D01*
X67350Y-76747D01*
X66717Y-75921D01*
X65891Y-75287D01*
X64929Y-74889D01*
X63898Y-74753D01*
D02*
G37*
%LPD*%
D10*
X-56945Y-62953D02*
X9047D01*
X-73898Y-46000D02*
X-56945Y-62953D01*
X9047D02*
X15500Y-56500D01*
X-63898Y-46000D02*
X-48945Y-60953D01*
X-8953D01*
X-4500Y-56500D01*
X63898Y-68740D02*
X73898Y-78740D01*
X63898Y-68740D02*
Y-46000D01*
X-4500Y-46500D02*
Y-32398D01*
X73898Y46000D01*
D16*
X14764Y-76673D02*
D03*
D17*
X4921D02*
D03*
X-4921D02*
D03*
X-14764D02*
D03*
D18*
X11220Y72933D02*
D03*
D19*
X-4921Y80807D02*
D03*
D20*
X4921D02*
D03*
D21*
X83898Y46000D02*
D03*
X73898D02*
D03*
X63898D02*
D03*
X-53898D02*
D03*
X-63898D02*
D03*
X-73898D02*
D03*
X-14500Y-46500D02*
D03*
X-14500Y-56500D02*
D03*
X-4500Y-46500D02*
D03*
Y-56500D02*
D03*
X5500Y-46500D02*
D03*
Y-56500D02*
D03*
X15500Y-46500D02*
D03*
X63898Y-78740D02*
D03*
X73898Y-46000D02*
D03*
X-63898D02*
D03*
D22*
X53898Y46000D02*
D03*
X-83898D02*
D03*
X15500Y-56500D02*
D03*
X73898Y-78740D02*
D03*
X63898Y-46000D02*
D03*
X-73898D02*
D03*
M02*
