G04*
G04 #@! TF.GenerationSoftware,Altium Limited,Altium Designer,22.0.2 (36)*
G04*
G04 Layer_Physical_Order=1*
G04 Layer_Color=255*
%FSLAX25Y25*%
%MOIN*%
G70*
G04*
G04 #@! TF.SameCoordinates,235F0B19-5DBD-43E0-B588-C37A1AF42077*
G04*
G04*
G04 #@! TF.FilePolarity,Positive*
G04*
G01*
G75*
%ADD11C,0.01000*%
%ADD12R,0.09449X0.03150*%
%ADD13R,0.05118X0.03543*%
%ADD14R,0.08661X0.04724*%
%ADD15R,0.05906X0.05118*%
%ADD16R,0.05118X0.05906*%
%ADD17R,0.05906X0.05118*%
%ADD28C,0.03937*%
%ADD29R,0.03937X0.03937*%
%ADD30C,0.03937*%
%ADD31R,0.03937X0.03937*%
%ADD32C,0.05000*%
G36*
X6852Y57893D02*
X11373Y57177D01*
X15824Y56108D01*
X20178Y54694D01*
X24407Y52942D01*
X28485Y50864D01*
X32388Y48472D01*
X36091Y45782D01*
X39572Y42809D01*
X42809Y39572D01*
X45782Y36091D01*
X48472Y32388D01*
X50864Y28485D01*
X52942Y24407D01*
X54694Y20178D01*
X56108Y15824D01*
X57177Y11373D01*
X57893Y6852D01*
X58252Y2289D01*
Y-2289D01*
X57893Y-6852D01*
X57177Y-11373D01*
X56108Y-15824D01*
X54694Y-20178D01*
X52942Y-24407D01*
X50864Y-28485D01*
X48472Y-32388D01*
X45782Y-36091D01*
X42809Y-39572D01*
X39572Y-42809D01*
X36091Y-45782D01*
X32388Y-48472D01*
X28485Y-50864D01*
X24407Y-52942D01*
X20178Y-54694D01*
X15824Y-56108D01*
X11373Y-57177D01*
X6852Y-57893D01*
X2289Y-58252D01*
X0Y-58252D01*
X-2289D01*
X-6852Y-57893D01*
X-11373Y-57177D01*
X-15824Y-56108D01*
X-20178Y-54694D01*
X-24407Y-52942D01*
X-28485Y-50864D01*
X-32388Y-48472D01*
X-36091Y-45782D01*
X-39572Y-42809D01*
X-42809Y-39572D01*
X-45782Y-36091D01*
X-48472Y-32388D01*
X-50864Y-28485D01*
X-52942Y-24407D01*
X-54694Y-20178D01*
X-56108Y-15824D01*
X-57177Y-11373D01*
X-57893Y-6852D01*
X-58252Y-2289D01*
Y2289D01*
X-57893Y6852D01*
X-57177Y11373D01*
X-56108Y15824D01*
X-54694Y20178D01*
X-52942Y24407D01*
X-50864Y28485D01*
X-48472Y32388D01*
X-45782Y36091D01*
X-42809Y39572D01*
X-39572Y42809D01*
X-36091Y45782D01*
X-32388Y48472D01*
X-28485Y50864D01*
X-24407Y52942D01*
X-20178Y54694D01*
X-15824Y56108D01*
X-11373Y57177D01*
X-6852Y57893D01*
X-2289Y58252D01*
X2289D01*
X6852Y57893D01*
D02*
G37*
%LPC*%
G36*
X15695Y37276D02*
X12886D01*
Y34073D01*
X15695D01*
Y37276D01*
D02*
G37*
G36*
X661Y33323D02*
X-3919D01*
Y30711D01*
X661D01*
Y33323D01*
D02*
G37*
G36*
X-4419D02*
X-9000D01*
Y30711D01*
X-4419D01*
Y33323D01*
D02*
G37*
G36*
X19004Y33573D02*
X16195D01*
Y30370D01*
X19004D01*
Y33573D01*
D02*
G37*
G36*
X15695D02*
X12886D01*
Y30370D01*
X15695D01*
Y33573D01*
D02*
G37*
G36*
X661Y30211D02*
X-3919D01*
Y27598D01*
X661D01*
Y30211D01*
D02*
G37*
G36*
X-4419D02*
X-9000D01*
Y27598D01*
X-4419D01*
Y30211D01*
D02*
G37*
G36*
X-26000Y38526D02*
X-26783Y38423D01*
X-27513Y38120D01*
X-28140Y37640D01*
X-28620Y37013D01*
X-28923Y36283D01*
X-29026Y35500D01*
X-28923Y34717D01*
X-28620Y33987D01*
X-28140Y33360D01*
X-27513Y32879D01*
X-27020Y32675D01*
Y31807D01*
X-28685D01*
Y27264D01*
X-22567D01*
Y31807D01*
X-24980D01*
Y32675D01*
X-24487Y32879D01*
X-23860Y33360D01*
X-23380Y33987D01*
X-23077Y34717D01*
X-22974Y35500D01*
X-23077Y36283D01*
X-23380Y37013D01*
X-23860Y37640D01*
X-24487Y38120D01*
X-25217Y38423D01*
X-26000Y38526D01*
D02*
G37*
G36*
X-19024Y25807D02*
X-23604D01*
Y23195D01*
X-19024D01*
Y25807D01*
D02*
G37*
G36*
X-24104D02*
X-28685D01*
Y23195D01*
X-24104D01*
Y25807D01*
D02*
G37*
G36*
X20346Y18291D02*
X15766D01*
Y15679D01*
X20346D01*
Y18291D01*
D02*
G37*
G36*
X15266D02*
X10685D01*
Y15679D01*
X15266D01*
Y18291D01*
D02*
G37*
G36*
X20346Y15179D02*
X15766D01*
Y12567D01*
X20346D01*
Y15179D01*
D02*
G37*
G36*
X15266D02*
X10685D01*
Y12567D01*
X15266D01*
Y15179D01*
D02*
G37*
G36*
X28591Y18685D02*
X21685D01*
Y12567D01*
X28591D01*
Y13980D01*
X30175D01*
X30380Y13487D01*
X30860Y12860D01*
X31487Y12380D01*
X32217Y12077D01*
X33000Y11974D01*
X33783Y12077D01*
X34513Y12380D01*
X35140Y12860D01*
X35620Y13487D01*
X35923Y14217D01*
X36026Y15000D01*
X35923Y15783D01*
X35620Y16513D01*
X35140Y17140D01*
X34513Y17620D01*
X33783Y17923D01*
X33000Y18026D01*
X32217Y17923D01*
X31487Y17620D01*
X30860Y17140D01*
X30380Y16513D01*
X30175Y16020D01*
X28591D01*
Y18685D01*
D02*
G37*
G36*
X661Y10776D02*
X-3919D01*
Y8163D01*
X661D01*
Y10776D01*
D02*
G37*
G36*
X-4419D02*
X-9000D01*
Y8163D01*
X-4419D01*
Y10776D01*
D02*
G37*
G36*
X661Y7663D02*
X-3919D01*
Y5051D01*
X661D01*
Y7663D01*
D02*
G37*
G36*
X-4419D02*
X-9000D01*
Y5051D01*
X-4419D01*
Y7663D01*
D02*
G37*
G36*
X16642Y42020D02*
X-27157D01*
X-27547Y41942D01*
X-27878Y41721D01*
X-37221Y32378D01*
X-37442Y32047D01*
X-37520Y31657D01*
Y26299D01*
X-39953D01*
Y20181D01*
X-34489D01*
X-33589Y19281D01*
X-33780Y18819D01*
X-39953D01*
Y14143D01*
X-40091Y14004D01*
X-40312Y13674D01*
X-40390Y13284D01*
Y8374D01*
X-41839D01*
Y3437D01*
X-40925D01*
X-40773Y2937D01*
X-41150Y2685D01*
X-41695Y1869D01*
X-41887Y905D01*
X-41695Y-58D01*
X-41150Y-874D01*
X-40488Y-1317D01*
X-40473Y-1358D01*
Y-1831D01*
X-40488Y-1872D01*
X-41150Y-2315D01*
X-41695Y-3131D01*
X-41887Y-4095D01*
X-41695Y-5058D01*
X-41150Y-5874D01*
X-40488Y-6317D01*
X-40473Y-6358D01*
Y-6831D01*
X-40488Y-6872D01*
X-41150Y-7315D01*
X-41695Y-8131D01*
X-41837Y-8845D01*
X-39370D01*
X-36903D01*
X-37045Y-8131D01*
X-37590Y-7315D01*
X-38253Y-6872D01*
X-38267Y-6831D01*
Y-6358D01*
X-38253Y-6317D01*
X-37590Y-5874D01*
X-37045Y-5058D01*
X-36853Y-4095D01*
X-37045Y-3131D01*
X-37590Y-2315D01*
X-38253Y-1872D01*
X-38267Y-1831D01*
Y-1358D01*
X-38253Y-1317D01*
X-37590Y-874D01*
X-37045Y-58D01*
X-36853Y905D01*
X-37045Y1869D01*
X-37590Y2685D01*
X-37967Y2937D01*
X-37816Y3437D01*
X-36902D01*
Y8374D01*
X-38350D01*
Y12701D01*
X-33047D01*
X-33020Y12212D01*
Y-271D01*
Y-25914D01*
X-32942Y-26304D01*
X-32721Y-26635D01*
X-29993Y-29363D01*
X-29662Y-29584D01*
X-29272Y-29662D01*
X-21315D01*
X-21154Y-29870D01*
X-21400Y-30370D01*
X-23175D01*
Y-33573D01*
X-20366D01*
Y-31103D01*
X-19904Y-30912D01*
X-19004Y-31812D01*
Y-37276D01*
X-12886D01*
Y-31812D01*
X-9500Y-28426D01*
X-9000Y-28545D01*
Y-32866D01*
X-2882D01*
Y-29079D01*
X-2420Y-28888D01*
X-1543Y-29765D01*
Y-32472D01*
X8906D01*
Y-28323D01*
X-101D01*
X-1524Y-26901D01*
Y-25309D01*
X574Y-23212D01*
X1047Y-23445D01*
X974Y-24000D01*
X1077Y-24783D01*
X1379Y-25513D01*
X1860Y-26140D01*
X2487Y-26621D01*
X3217Y-26923D01*
X4000Y-27026D01*
X4783Y-26923D01*
X5513Y-26621D01*
X6140Y-26140D01*
X6621Y-25513D01*
X6825Y-25020D01*
X10685D01*
Y-25350D01*
X16803D01*
Y-21564D01*
X17265Y-21372D01*
X18142Y-22249D01*
Y-24957D01*
X28591D01*
Y-21906D01*
X28610Y-21807D01*
X28591Y-21709D01*
Y-20807D01*
X27689D01*
X27591Y-20787D01*
X27492Y-20807D01*
X19584D01*
X17863Y-19086D01*
X17532Y-18865D01*
X17142Y-18788D01*
X2536D01*
X2146Y-18865D01*
X1815Y-19086D01*
X-3264Y-24166D01*
X-3485Y-24496D01*
X-3563Y-24886D01*
Y-26303D01*
X-9839D01*
X-10229Y-26381D01*
X-10560Y-26602D01*
X-14328Y-30370D01*
X-17562D01*
X-20011Y-27921D01*
X-20342Y-27700D01*
X-20732Y-27623D01*
X-28850D01*
X-30980Y-25492D01*
Y-3386D01*
X-30518Y-3194D01*
X-29527Y-4185D01*
X-29197Y-4407D01*
X-28806Y-4484D01*
X-23016D01*
X-20559Y-6941D01*
Y-13291D01*
X-21228D01*
Y-17441D01*
X-10780D01*
Y-13291D01*
X-18520D01*
Y-10041D01*
X-18020Y-9871D01*
X-17679Y-10315D01*
X-17053Y-10796D01*
X-16323Y-11098D01*
X-15540Y-11201D01*
X-14757Y-11098D01*
X-14027Y-10796D01*
X-13400Y-10315D01*
X-12919Y-9688D01*
X-12662Y-9067D01*
X-9000D01*
Y-10319D01*
X-2882D01*
Y-5776D01*
X-9000D01*
Y-7028D01*
X-12768D01*
X-12919Y-6662D01*
X-13400Y-6036D01*
X-14027Y-5555D01*
X-14757Y-5252D01*
X-15540Y-5149D01*
X-16323Y-5252D01*
X-17053Y-5555D01*
X-17679Y-6036D01*
X-18031Y-6493D01*
X-18110Y-6497D01*
X-18553Y-6353D01*
X-18598Y-6128D01*
X-18819Y-5798D01*
X-21652Y-2965D01*
X-21445Y-2465D01*
X-19024D01*
Y148D01*
X-28685D01*
Y-1491D01*
X-29147Y-1682D01*
X-30980Y151D01*
Y17649D01*
X-27043D01*
X-26943Y17149D01*
X-27013Y17120D01*
X-27640Y16640D01*
X-28120Y16013D01*
X-28423Y15283D01*
X-28526Y14500D01*
X-28423Y13717D01*
X-28120Y12987D01*
X-27640Y12360D01*
X-27013Y11880D01*
X-26520Y11675D01*
Y9260D01*
X-28685D01*
Y4716D01*
X-22567D01*
Y9260D01*
X-24480D01*
Y11675D01*
X-23987Y11880D01*
X-23360Y12360D01*
X-22880Y12987D01*
X-22577Y13717D01*
X-22474Y14500D01*
X-22547Y15055D01*
X-22074Y15289D01*
X-20173Y13388D01*
Y9260D01*
X-21228D01*
Y5110D01*
X-10780D01*
Y9260D01*
X-17473D01*
Y9674D01*
X-17480Y9709D01*
Y12922D01*
X-16020Y14382D01*
X-15547Y14149D01*
X-15620Y13594D01*
X-15517Y12811D01*
X-15214Y12081D01*
X-14733Y11454D01*
X-14107Y10973D01*
X-13377Y10671D01*
X-12594Y10568D01*
X-11811Y10671D01*
X-11081Y10973D01*
X-10454Y11454D01*
X-9973Y12081D01*
X-9769Y12574D01*
X-9000D01*
Y12232D01*
X-2882D01*
Y16019D01*
X-2420Y16210D01*
X-1543Y15334D01*
Y12626D01*
X8906D01*
Y16776D01*
X4020D01*
Y19135D01*
X4520Y19305D01*
X4860Y18860D01*
X5487Y18380D01*
X6217Y18077D01*
X7000Y17974D01*
X7783Y18077D01*
X8513Y18380D01*
X9140Y18860D01*
X9621Y19487D01*
X9825Y19980D01*
X10685D01*
Y19748D01*
X16803D01*
Y23535D01*
X17265Y23726D01*
X18142Y22849D01*
Y20142D01*
X28591D01*
Y24291D01*
X19584D01*
X17863Y26012D01*
X17532Y26233D01*
X17142Y26311D01*
X5635D01*
X5244Y26233D01*
X4913Y26012D01*
X2457Y23556D01*
X1929Y23735D01*
X1923Y23783D01*
X1718Y24276D01*
X3960Y26518D01*
X4180Y26848D01*
X4258Y27239D01*
Y27598D01*
X8906D01*
Y33716D01*
X2000D01*
Y27599D01*
X2000Y27598D01*
X2000D01*
X1761Y27203D01*
X277Y25718D01*
X-217Y25923D01*
X-1000Y26026D01*
X-1783Y25923D01*
X-2513Y25620D01*
X-3140Y25140D01*
X-3621Y24513D01*
X-3833Y24000D01*
X-4374D01*
X-4380Y24013D01*
X-4860Y24640D01*
X-5487Y25120D01*
X-6217Y25423D01*
X-7000Y25526D01*
X-7783Y25423D01*
X-8513Y25120D01*
X-9140Y24640D01*
X-9621Y24013D01*
X-9825Y23520D01*
X-10780D01*
Y26201D01*
X-17685D01*
Y20083D01*
X-10780D01*
Y21480D01*
X-9825D01*
X-9621Y20987D01*
X-9140Y20360D01*
X-8696Y20020D01*
X-8865Y19520D01*
X-13344D01*
X-13735Y19442D01*
X-14065Y19221D01*
X-18594Y14693D01*
X-23291Y19390D01*
X-23317Y20001D01*
X-23260Y20083D01*
X-19024D01*
Y22695D01*
X-28685D01*
Y20189D01*
X-28685Y20083D01*
X-28941Y19689D01*
X-31113D01*
X-33047Y21623D01*
Y26299D01*
X-35480D01*
Y31234D01*
X-26735Y39980D01*
X-24265D01*
X-20173Y35888D01*
Y31807D01*
X-21228D01*
Y27657D01*
X-10780D01*
Y31807D01*
X-18134D01*
Y36310D01*
X-18212Y36701D01*
X-18433Y37031D01*
X-20920Y39518D01*
X-20728Y39980D01*
X-16365D01*
X-16195Y39480D01*
X-16640Y39140D01*
X-17120Y38513D01*
X-17423Y37783D01*
X-17526Y37000D01*
X-17423Y36217D01*
X-17120Y35487D01*
X-16640Y34860D01*
X-16013Y34380D01*
X-15283Y34077D01*
X-14500Y33974D01*
X-13717Y34077D01*
X-12987Y34380D01*
X-12360Y34860D01*
X-11880Y35487D01*
X-11675Y35980D01*
X-9000D01*
Y34780D01*
X-2882D01*
Y39323D01*
X-9000D01*
Y38020D01*
X-11675D01*
X-11880Y38513D01*
X-12360Y39140D01*
X-12804Y39480D01*
X-12635Y39980D01*
X316D01*
X433Y39823D01*
X182Y39323D01*
X-1543D01*
Y35173D01*
X8906D01*
Y39323D01*
X4364D01*
X4270Y39480D01*
X4553Y39980D01*
X16219D01*
X18462Y37738D01*
X18271Y37276D01*
X16195D01*
Y34073D01*
X19004D01*
Y36543D01*
X19466Y36734D01*
X20366Y35834D01*
Y30370D01*
X26484D01*
Y32803D01*
X29755D01*
X42980Y19578D01*
Y4922D01*
X41945Y3887D01*
X41385Y3928D01*
X41150Y4280D01*
X40773Y4532D01*
X40925Y5032D01*
X41839D01*
Y9968D01*
X36902D01*
Y5032D01*
X37816D01*
X37967Y4532D01*
X37590Y4280D01*
X37045Y3463D01*
X36853Y2500D01*
X37015Y1687D01*
X36135Y807D01*
X28591D01*
Y1862D01*
X20068D01*
X17709Y4221D01*
X17378Y4442D01*
X16988Y4520D01*
X15865D01*
X15696Y5020D01*
X16140Y5360D01*
X16621Y5987D01*
X16923Y6717D01*
X17026Y7500D01*
X16923Y8283D01*
X16621Y9013D01*
X16140Y9640D01*
X15513Y10120D01*
X14783Y10423D01*
X14000Y10526D01*
X13217Y10423D01*
X12487Y10120D01*
X11860Y9640D01*
X11379Y9013D01*
X11175Y8520D01*
X8906D01*
Y11169D01*
X2000D01*
Y5051D01*
X8906D01*
Y6480D01*
X11175D01*
X11379Y5987D01*
X11860Y5360D01*
X12304Y5020D01*
X12135Y4520D01*
X4843D01*
X4453Y4442D01*
X4122Y4221D01*
X279Y378D01*
X58Y47D01*
X-20Y-343D01*
Y-4000D01*
X58Y-4390D01*
X279Y-4721D01*
X872Y-5314D01*
X680Y-5776D01*
X-1543D01*
Y-9925D01*
X8906D01*
Y-5776D01*
X3381D01*
Y-5361D01*
X3303Y-4971D01*
X3082Y-4640D01*
X2020Y-3578D01*
Y-765D01*
X3074Y289D01*
X3547Y55D01*
X3474Y-500D01*
X3577Y-1283D01*
X3880Y-2013D01*
X4360Y-2640D01*
X4987Y-3121D01*
X5717Y-3423D01*
X6500Y-3526D01*
X7283Y-3423D01*
X8013Y-3121D01*
X8640Y-2640D01*
X9121Y-2013D01*
X9325Y-1520D01*
X10685D01*
Y-2681D01*
X16803D01*
X16803Y1535D01*
X16803Y1536D01*
X16850Y1555D01*
X17303Y1743D01*
X18142Y905D01*
Y-2287D01*
X28591D01*
Y-1232D01*
X36557D01*
X36661Y-1212D01*
X36805Y-1334D01*
X37022Y-1650D01*
X36903Y-2250D01*
X41837D01*
X41695Y-1537D01*
X41150Y-720D01*
X40488Y-278D01*
X40473Y-237D01*
Y237D01*
X40488Y278D01*
X41150Y720D01*
X41695Y1537D01*
X41731Y1715D01*
X42235D01*
X42625Y1793D01*
X42956Y2014D01*
X44721Y3779D01*
X44942Y4110D01*
X45020Y4500D01*
Y20000D01*
X44942Y20390D01*
X44721Y20721D01*
X30898Y34544D01*
X30567Y34765D01*
X30177Y34842D01*
X26484D01*
Y37276D01*
X21808D01*
X17363Y41721D01*
X17032Y41942D01*
X16642Y42020D01*
D02*
G37*
G36*
X-19024Y3260D02*
X-23604D01*
Y648D01*
X-19024D01*
Y3260D01*
D02*
G37*
G36*
X-24104D02*
X-28685D01*
Y648D01*
X-24104D01*
Y3260D01*
D02*
G37*
G36*
X-10780Y3653D02*
X-17685D01*
Y-2465D01*
X-10780D01*
Y-520D01*
X-8825D01*
X-8620Y-1013D01*
X-8140Y-1640D01*
X-7513Y-2121D01*
X-6783Y-2423D01*
X-6000Y-2526D01*
X-5217Y-2423D01*
X-4487Y-2121D01*
X-3860Y-1640D01*
X-3379Y-1013D01*
X-3077Y-283D01*
X-2974Y500D01*
X-3077Y1283D01*
X-3379Y2013D01*
X-3860Y2640D01*
X-4487Y3121D01*
X-5217Y3423D01*
X-6000Y3526D01*
X-6783Y3423D01*
X-7513Y3121D01*
X-8140Y2640D01*
X-8620Y2013D01*
X-8825Y1520D01*
X-10780D01*
Y3653D01*
D02*
G37*
G36*
X20346Y-4138D02*
X15766D01*
Y-6750D01*
X20346D01*
Y-4138D01*
D02*
G37*
G36*
X15266D02*
X10685D01*
Y-6750D01*
X15266D01*
Y-4138D01*
D02*
G37*
G36*
X20346Y-7250D02*
X15766D01*
Y-9862D01*
X20346D01*
Y-7250D01*
D02*
G37*
G36*
X15266D02*
X10685D01*
Y-9862D01*
X15266D01*
Y-7250D01*
D02*
G37*
G36*
X41837Y-2750D02*
X36903D01*
X37045Y-3463D01*
X37590Y-4280D01*
X38253Y-4722D01*
X38267Y-4764D01*
Y-5237D01*
X38253Y-5278D01*
X37590Y-5720D01*
X37045Y-6537D01*
X36853Y-7500D01*
X37045Y-8463D01*
X37590Y-9280D01*
X38407Y-9825D01*
X39370Y-10017D01*
X40333Y-9825D01*
X41150Y-9280D01*
X41695Y-8463D01*
X41887Y-7500D01*
X41695Y-6537D01*
X41150Y-5720D01*
X40488Y-5278D01*
X40473Y-5237D01*
Y-4764D01*
X40488Y-4722D01*
X41150Y-4280D01*
X41695Y-3463D01*
X41837Y-2750D01*
D02*
G37*
G36*
X-36903Y-9345D02*
X-39120D01*
Y-11562D01*
X-38407Y-11420D01*
X-37590Y-10874D01*
X-37045Y-10058D01*
X-36903Y-9345D01*
D02*
G37*
G36*
X-39620D02*
X-41837D01*
X-41695Y-10058D01*
X-41150Y-10874D01*
X-40333Y-11420D01*
X-39620Y-11562D01*
Y-9345D01*
D02*
G37*
G36*
X661Y-11776D02*
X-3919D01*
Y-14388D01*
X661D01*
Y-11776D01*
D02*
G37*
G36*
X-4419D02*
X-9000D01*
Y-14388D01*
X-4419D01*
Y-11776D01*
D02*
G37*
G36*
X28591Y-3744D02*
X21685D01*
Y-9862D01*
X23980D01*
Y-10675D01*
X23487Y-10880D01*
X22860Y-11360D01*
X22379Y-11987D01*
X22077Y-12717D01*
X21974Y-13500D01*
X22077Y-14283D01*
X22379Y-15013D01*
X22860Y-15640D01*
X23487Y-16120D01*
X24217Y-16423D01*
X25000Y-16526D01*
X25783Y-16423D01*
X26513Y-16120D01*
X27140Y-15640D01*
X27621Y-15013D01*
X27923Y-14283D01*
X28026Y-13500D01*
X27923Y-12717D01*
X27621Y-11987D01*
X27140Y-11360D01*
X26513Y-10880D01*
X26020Y-10675D01*
Y-9862D01*
X28591D01*
Y-3744D01*
D02*
G37*
G36*
X661Y-14888D02*
X-3919D01*
Y-17500D01*
X661D01*
Y-14888D01*
D02*
G37*
G36*
X-4419D02*
X-9000D01*
Y-17500D01*
X-4419D01*
Y-14888D01*
D02*
G37*
G36*
X-25666Y-5030D02*
X-26449Y-5133D01*
X-27179Y-5436D01*
X-27806Y-5917D01*
X-28287Y-6543D01*
X-28589Y-7273D01*
X-28692Y-8056D01*
X-28589Y-8839D01*
X-28287Y-9569D01*
X-27806Y-10196D01*
X-27179Y-10677D01*
X-26686Y-10881D01*
Y-13291D01*
X-28685D01*
Y-17835D01*
X-22567D01*
Y-13291D01*
X-24646D01*
Y-10881D01*
X-24153Y-10677D01*
X-23526Y-10196D01*
X-23046Y-9569D01*
X-22743Y-8839D01*
X-22640Y-8056D01*
X-22743Y-7273D01*
X-23046Y-6543D01*
X-23526Y-5917D01*
X-24153Y-5436D01*
X-24883Y-5133D01*
X-25666Y-5030D01*
D02*
G37*
G36*
X8906Y-11382D02*
X2000D01*
Y-17500D01*
X8906D01*
Y-16020D01*
X11175D01*
X11379Y-16513D01*
X11860Y-17140D01*
X12487Y-17620D01*
X13217Y-17923D01*
X14000Y-18026D01*
X14783Y-17923D01*
X15513Y-17620D01*
X16140Y-17140D01*
X16621Y-16513D01*
X16923Y-15783D01*
X17026Y-15000D01*
X16923Y-14217D01*
X16621Y-13487D01*
X16140Y-12860D01*
X15513Y-12380D01*
X14783Y-12077D01*
X14000Y-11974D01*
X13217Y-12077D01*
X12487Y-12380D01*
X11860Y-12860D01*
X11379Y-13487D01*
X11175Y-13980D01*
X8906D01*
Y-11382D01*
D02*
G37*
G36*
X-7000Y-18474D02*
X-7783Y-18577D01*
X-8513Y-18880D01*
X-9140Y-19360D01*
X-9621Y-19987D01*
X-9825Y-20480D01*
X-10780D01*
Y-18898D01*
X-17685D01*
Y-25016D01*
X-10780D01*
Y-22520D01*
X-9825D01*
X-9621Y-23013D01*
X-9140Y-23640D01*
X-8513Y-24121D01*
X-7783Y-24423D01*
X-7000Y-24526D01*
X-6217Y-24423D01*
X-5487Y-24121D01*
X-4860Y-23640D01*
X-4380Y-23013D01*
X-4077Y-22283D01*
X-3974Y-21500D01*
X-4077Y-20717D01*
X-4380Y-19987D01*
X-4860Y-19360D01*
X-5487Y-18880D01*
X-6217Y-18577D01*
X-7000Y-18474D01*
D02*
G37*
G36*
X-19024Y-19291D02*
X-23604D01*
Y-21903D01*
X-19024D01*
Y-19291D01*
D02*
G37*
G36*
X-24104D02*
X-28685D01*
Y-21903D01*
X-24104D01*
Y-19291D01*
D02*
G37*
G36*
X-19024Y-22403D02*
X-23604D01*
Y-25016D01*
X-19024D01*
Y-22403D01*
D02*
G37*
G36*
X-24104D02*
X-28685D01*
Y-25016D01*
X-24104D01*
Y-22403D01*
D02*
G37*
G36*
X20346Y-26807D02*
X15766D01*
Y-29419D01*
X20346D01*
Y-26807D01*
D02*
G37*
G36*
X15266D02*
X10685D01*
Y-29419D01*
X15266D01*
Y-26807D01*
D02*
G37*
G36*
X20346Y-29919D02*
X15766D01*
Y-32531D01*
X20346D01*
Y-29919D01*
D02*
G37*
G36*
X15266D02*
X10685D01*
Y-32531D01*
X15266D01*
Y-29919D01*
D02*
G37*
G36*
X28591Y-26413D02*
X21685D01*
Y-32531D01*
X28591D01*
Y-31020D01*
X29675D01*
X29880Y-31513D01*
X30360Y-32140D01*
X30987Y-32620D01*
X31717Y-32923D01*
X32500Y-33026D01*
X33283Y-32923D01*
X34013Y-32620D01*
X34640Y-32140D01*
X35120Y-31513D01*
X35423Y-30783D01*
X35526Y-30000D01*
X35423Y-29217D01*
X35120Y-28487D01*
X34640Y-27860D01*
X34013Y-27380D01*
X33283Y-27077D01*
X32500Y-26974D01*
X31717Y-27077D01*
X30987Y-27380D01*
X30360Y-27860D01*
X29880Y-28487D01*
X29675Y-28980D01*
X28591D01*
Y-26413D01*
D02*
G37*
G36*
X-23675Y-30370D02*
X-26484D01*
Y-33573D01*
X-23675D01*
Y-30370D01*
D02*
G37*
G36*
X661Y-34323D02*
X-3919D01*
Y-36935D01*
X661D01*
Y-34323D01*
D02*
G37*
G36*
X-4419D02*
X-9000D01*
Y-36935D01*
X-4419D01*
Y-34323D01*
D02*
G37*
G36*
X-20366Y-34073D02*
X-23175D01*
Y-37276D01*
X-20366D01*
Y-34073D01*
D02*
G37*
G36*
X-23675D02*
X-26484D01*
Y-37276D01*
X-23675D01*
Y-34073D01*
D02*
G37*
G36*
X8906Y-33929D02*
X2000D01*
Y-40047D01*
X8906D01*
Y-38020D01*
X10675D01*
X10880Y-38513D01*
X11360Y-39140D01*
X11987Y-39621D01*
X12717Y-39923D01*
X13500Y-40026D01*
X14283Y-39923D01*
X15013Y-39621D01*
X15640Y-39140D01*
X16120Y-38513D01*
X16423Y-37783D01*
X16526Y-37000D01*
X16423Y-36217D01*
X16120Y-35487D01*
X15640Y-34860D01*
X15013Y-34380D01*
X14283Y-34077D01*
X13500Y-33974D01*
X12717Y-34077D01*
X11987Y-34380D01*
X11360Y-34860D01*
X10880Y-35487D01*
X10675Y-35980D01*
X8906D01*
Y-33929D01*
D02*
G37*
G36*
X661Y-37435D02*
X-3919D01*
Y-40047D01*
X661D01*
Y-37435D01*
D02*
G37*
G36*
X-4419D02*
X-9000D01*
Y-40047D01*
X-4419D01*
Y-37435D01*
D02*
G37*
%LPD*%
D11*
X-26000Y29910D02*
X-25626Y29535D01*
X-26000Y29910D02*
Y35500D01*
X25138Y-29472D02*
X25665Y-30000D01*
X32500D01*
X16642Y41000D02*
X23425Y34216D01*
Y33823D02*
Y34216D01*
X1000Y41000D02*
X16642D01*
X44000Y4500D02*
Y20000D01*
X30177Y33823D02*
X44000Y20000D01*
X23425Y33823D02*
X30177D01*
X42235Y2735D02*
X44000Y4500D01*
X39370Y2500D02*
X39605Y2735D01*
X42235D01*
X36557Y-213D02*
X39270Y2500D01*
X-23843Y41000D02*
X1000D01*
Y-4000D02*
Y-343D01*
X4843Y3500D01*
X16988D01*
X20701Y-213D01*
X23850D01*
X-32000Y-25914D02*
Y-271D01*
X-22594Y-3465D02*
X-19540Y-6518D01*
X-28806Y-3465D02*
X-22594D01*
X-32000Y-271D02*
X-28806Y-3465D01*
X-32000Y-271D02*
Y19134D01*
X-24012Y18669D02*
X-19153Y13810D01*
Y8260D02*
X-18079Y7185D01*
X-19153Y8260D02*
Y13810D01*
X-32000Y19134D02*
X-31535Y18669D01*
X-36106Y23240D02*
X-32000Y19134D01*
X-36500Y23240D02*
X-36106D01*
X-31535Y18669D02*
X-24012D01*
X-19540Y-14291D02*
Y-6518D01*
X26516Y-22882D02*
X27591Y-21807D01*
X23366Y-22882D02*
X26516D01*
X-15945Y-33823D02*
Y-33429D01*
X-29272Y-28642D02*
X-20732D01*
X-32000Y-25914D02*
X-29272Y-28642D01*
X-20732D02*
X-15945Y-33429D01*
X23850Y-213D02*
X36557D01*
X3000Y37929D02*
X3681Y37248D01*
X3000Y37929D02*
Y39000D01*
X1000Y41000D02*
X3000Y39000D01*
X-19153Y30807D02*
X-18079Y29732D01*
X-19153Y30807D02*
Y36310D01*
X-23843Y41000D02*
X-19153Y36310D01*
X-18079Y29732D02*
X-16004D01*
X-36500Y23240D02*
Y31657D01*
X-27157Y41000D01*
X-23843D01*
X-13344Y18500D02*
X-3268D01*
X-18500Y13344D02*
X-13344Y18500D01*
X-3268D02*
X532Y14701D01*
X-6851Y13594D02*
X-5941Y14504D01*
X-12594Y13594D02*
X-6851D01*
X-18493Y8260D02*
Y9674D01*
X-18500Y9681D02*
Y13344D01*
Y9681D02*
X-18493Y9674D01*
X532Y14701D02*
X3681D01*
X3000Y15382D02*
X3681Y14701D01*
X3000Y15382D02*
Y22657D01*
X5635Y25291D01*
X17142D01*
X20216Y22217D01*
X23366D01*
X5298Y30658D02*
X5453D01*
X3239Y27239D02*
Y28598D01*
X5298Y30658D01*
X-1000Y23000D02*
X3239Y27239D01*
X12724Y21000D02*
X13744Y22020D01*
X7000Y21000D02*
X12724D01*
X14138Y-500D02*
X14228Y-410D01*
X6500Y-500D02*
X14138D01*
X2361Y-6776D02*
Y-5361D01*
X1000Y-4000D02*
X2361Y-5361D01*
X3436Y-7850D02*
X3681D01*
X2361Y-6776D02*
X3436Y-7850D01*
X-19540Y-14291D02*
X-18465Y-15366D01*
X-16004D01*
X-2543Y-24886D02*
X2536Y-19807D01*
X17142D01*
X20216Y-22882D01*
X23366D01*
X-2543Y-27323D02*
Y-24886D01*
X4000Y-24000D02*
X12823D01*
X13744Y-23079D01*
X-9839Y-27323D02*
X-2543D01*
X532Y-30398D01*
X3681D01*
X-15945Y-33429D02*
X-9839Y-27323D01*
X5453Y-36988D02*
X5465Y-37000D01*
X13500D01*
X5453Y-14441D02*
X6012Y-15000D01*
X14000D01*
X25000Y-13500D02*
Y-7425D01*
X25622Y-6803D01*
X-25666Y-15523D02*
X-25626Y-15563D01*
X-25666Y-15523D02*
Y-8056D01*
X-13776Y-21500D02*
X-7000D01*
X-14232Y-21957D02*
X-13776Y-21500D01*
X-15540Y-8175D02*
X-15412Y-8047D01*
X-5941D01*
X-25626Y6988D02*
X-25500Y7114D01*
Y14500D01*
X6063Y7500D02*
X14000D01*
X5453Y8110D02*
X6063Y7500D01*
X-13590Y22500D02*
X-7000D01*
X-14232Y23142D02*
X-13590Y22500D01*
X-14138Y500D02*
X-6000D01*
X-14232Y594D02*
X-14138Y500D01*
X-14500Y37000D02*
X-5992D01*
X-5941Y37051D01*
X25138Y15626D02*
X25764Y15000D01*
X33000D01*
X-36894Y15760D02*
X-36500D01*
X-39370Y13284D02*
X-36894Y15760D01*
X-39370Y5906D02*
Y13284D01*
D12*
X3681Y37248D02*
D03*
X-16004Y29732D02*
D03*
X23366Y22217D02*
D03*
X3681Y14701D02*
D03*
X-16004Y7185D02*
D03*
X23366Y-213D02*
D03*
X3681Y-7850D02*
D03*
X-16004Y-15366D02*
D03*
X23366Y-22882D02*
D03*
X3681Y-30398D02*
D03*
D13*
X-5941Y37051D02*
D03*
X-25626Y29535D02*
D03*
X13744Y22020D02*
D03*
X-5941Y14504D02*
D03*
X-25626Y6988D02*
D03*
X13744Y-410D02*
D03*
X-5941Y-8047D02*
D03*
X-25626Y-15563D02*
D03*
X13744Y-23079D02*
D03*
X-5941Y-30595D02*
D03*
D14*
X-4169Y30461D02*
D03*
X-23854Y22945D02*
D03*
X15516Y15429D02*
D03*
X-4169Y7913D02*
D03*
X-23854Y398D02*
D03*
X15516Y-7000D02*
D03*
X-4169Y-14638D02*
D03*
X-23854Y-22153D02*
D03*
X15516Y-29669D02*
D03*
X-4169Y-37185D02*
D03*
D15*
X5453Y30658D02*
D03*
X-14232Y23142D02*
D03*
X25138Y15626D02*
D03*
X5453Y8110D02*
D03*
X-14232Y594D02*
D03*
X25138Y-6803D02*
D03*
X5453Y-14441D02*
D03*
X-14232Y-21957D02*
D03*
X25138Y-29472D02*
D03*
X5453Y-36988D02*
D03*
D16*
X23425Y33823D02*
D03*
X15945D02*
D03*
X-23425Y-33823D02*
D03*
X-15945D02*
D03*
D17*
X-36500Y23240D02*
D03*
Y15760D02*
D03*
D28*
X-39370Y-9094D02*
D03*
Y-4095D02*
D03*
Y905D02*
D03*
D29*
Y5906D02*
D03*
D30*
X39370Y-7500D02*
D03*
Y-2500D02*
D03*
Y2500D02*
D03*
D31*
Y7500D02*
D03*
D32*
X-26000Y35500D02*
D03*
X32500Y-30000D02*
D03*
X-12594Y13594D02*
D03*
X7000Y21000D02*
D03*
X6500Y-500D02*
D03*
X4000Y-24000D02*
D03*
X13500Y-37000D02*
D03*
X14000Y-15000D02*
D03*
X25000Y-13500D02*
D03*
X-25666Y-8056D02*
D03*
X-7000Y-21500D02*
D03*
X-15540Y-8175D02*
D03*
X-25500Y14500D02*
D03*
X14000Y7500D02*
D03*
X-1000Y23000D02*
D03*
X-7000Y22500D02*
D03*
X-6000Y500D02*
D03*
X33000Y15000D02*
D03*
X-14500Y37000D02*
D03*
M02*
