G04*
G04 #@! TF.GenerationSoftware,Altium Limited,Altium Designer,22.0.2 (36)*
G04*
G04 Layer_Color=65535*
%FSLAX25Y25*%
%MOIN*%
G70*
G04*
G04 #@! TF.SameCoordinates,9B93A529-F559-49E1-94B7-FA4AAFEA3FC9*
G04*
G04*
G04 #@! TF.FilePolarity,Positive*
G04*
G01*
G75*
%ADD10C,0.01000*%
D10*
X160001Y72499D02*
X158002D01*
X159002D01*
Y67501D01*
X158002Y66501D01*
X157002D01*
X156002Y67501D01*
X162001Y66501D02*
X164000D01*
X163000D01*
Y72499D01*
X162001Y71499D01*
X170998Y66501D02*
X166999D01*
X170998Y70500D01*
Y71499D01*
X169998Y72499D01*
X167999D01*
X166999Y71499D01*
X-532500Y64499D02*
X-534499D01*
X-533499D01*
Y59501D01*
X-534499Y58501D01*
X-535499D01*
X-536498Y59501D01*
X-530500Y64499D02*
X-526502D01*
Y63499D01*
X-530500Y59501D01*
Y58501D01*
X289899Y68598D02*
X287899D01*
X288899D01*
Y63600D01*
X287899Y62600D01*
X286900D01*
X285900Y63600D01*
X291898Y62600D02*
X293897D01*
X292898D01*
Y68598D01*
X291898Y67598D01*
X296896D02*
X297896Y68598D01*
X299896D01*
X300895Y67598D01*
Y66599D01*
X299896Y65599D01*
X298896D01*
X299896D01*
X300895Y64599D01*
Y63600D01*
X299896Y62600D01*
X297896D01*
X296896Y63600D01*
X427699Y68598D02*
X425699D01*
X426699D01*
Y63600D01*
X425699Y62600D01*
X424700D01*
X423700Y63600D01*
X429698Y62600D02*
X431697D01*
X430698D01*
Y68598D01*
X429698Y67598D01*
X437696Y62600D02*
Y68598D01*
X434696Y65599D01*
X438695D01*
X14299Y68598D02*
X12299D01*
X13299D01*
Y63600D01*
X12299Y62600D01*
X11300D01*
X10300Y63600D01*
X16298Y62600D02*
X18297D01*
X17298D01*
Y68598D01*
X16298Y67598D01*
X21296Y62600D02*
X23296D01*
X22296D01*
Y68598D01*
X21296Y67598D01*
X-123501Y68598D02*
X-125501D01*
X-124501D01*
Y63600D01*
X-125501Y62600D01*
X-126500D01*
X-127500Y63600D01*
X-121502Y62600D02*
X-119503D01*
X-120502D01*
Y68598D01*
X-121502Y67598D01*
X-116504D02*
X-115504Y68598D01*
X-113505D01*
X-112505Y67598D01*
Y63600D01*
X-113505Y62600D01*
X-115504D01*
X-116504Y63600D01*
Y67598D01*
X-261201Y68598D02*
X-263201D01*
X-262201D01*
Y63600D01*
X-263201Y62600D01*
X-264200D01*
X-265200Y63600D01*
X-259202D02*
X-258202Y62600D01*
X-256203D01*
X-255203Y63600D01*
Y67598D01*
X-256203Y68598D01*
X-258202D01*
X-259202Y67598D01*
Y66599D01*
X-258202Y65599D01*
X-255203D01*
X-399001Y68598D02*
X-401001D01*
X-400001D01*
Y63600D01*
X-401001Y62600D01*
X-402000D01*
X-403000Y63600D01*
X-397002Y67598D02*
X-396002Y68598D01*
X-394003D01*
X-393003Y67598D01*
Y66599D01*
X-394003Y65599D01*
X-393003Y64599D01*
Y63600D01*
X-394003Y62600D01*
X-396002D01*
X-397002Y63600D01*
Y64599D01*
X-396002Y65599D01*
X-397002Y66599D01*
Y67598D01*
X-396002Y65599D02*
X-394003D01*
M02*
