G04*
G04 #@! TF.GenerationSoftware,Altium Limited,Altium Designer,22.0.2 (36)*
G04*
G04 Layer_Color=255*
%FSLAX25Y25*%
%MOIN*%
G70*
G04*
G04 #@! TF.SameCoordinates,9B93A529-F559-49E1-94B7-FA4AAFEA3FC9*
G04*
G04*
G04 #@! TF.FilePolarity,Positive*
G04*
G01*
G75*
%ADD11R,0.06102X0.06102*%
%ADD12C,0.06102*%
%ADD19C,0.05512*%
%ADD20R,0.05512X0.05512*%
%ADD22C,0.06000*%
%ADD23C,0.19685*%
%ADD24R,0.05906X0.05906*%
%ADD25C,0.05906*%
%ADD26R,0.05906X0.05906*%
G04:AMPARAMS|DCode=27|XSize=149.61mil|YSize=86.61mil|CornerRadius=21.65mil|HoleSize=0mil|Usage=FLASHONLY|Rotation=90.000|XOffset=0mil|YOffset=0mil|HoleType=Round|Shape=RoundedRectangle|*
%AMROUNDEDRECTD27*
21,1,0.14961,0.04331,0,0,90.0*
21,1,0.10630,0.08661,0,0,90.0*
1,1,0.04331,0.02165,0.05315*
1,1,0.04331,0.02165,-0.05315*
1,1,0.04331,-0.02165,-0.05315*
1,1,0.04331,-0.02165,0.05315*
%
%ADD27ROUNDEDRECTD27*%
G04:AMPARAMS|DCode=28|XSize=149.61mil|YSize=86.61mil|CornerRadius=21.65mil|HoleSize=0mil|Usage=FLASHONLY|Rotation=180.000|XOffset=0mil|YOffset=0mil|HoleType=Round|Shape=RoundedRectangle|*
%AMROUNDEDRECTD28*
21,1,0.14961,0.04331,0,0,180.0*
21,1,0.10630,0.08661,0,0,180.0*
1,1,0.04331,-0.05315,0.02165*
1,1,0.04331,0.05315,0.02165*
1,1,0.04331,0.05315,-0.02165*
1,1,0.04331,-0.05315,-0.02165*
%
%ADD28ROUNDEDRECTD28*%
D11*
X142717Y79567D02*
D03*
D12*
X132874D02*
D03*
D19*
X285433Y-77067D02*
D03*
X275590D02*
D03*
D20*
X265748D02*
D03*
D22*
X221693Y46000D02*
D03*
X211693D02*
D03*
X191693D02*
D03*
X201693D02*
D03*
X211693Y-46000D02*
D03*
X201693D02*
D03*
X-487284D02*
D03*
X-477283D02*
D03*
X-487284Y46000D02*
D03*
X-497284D02*
D03*
X-477283D02*
D03*
X-467283D02*
D03*
X-329488D02*
D03*
X-339488D02*
D03*
X-359488D02*
D03*
X-349488D02*
D03*
X-339488Y-46000D02*
D03*
X-349488D02*
D03*
X-211693D02*
D03*
X-201693D02*
D03*
X-211693Y46000D02*
D03*
X-221693D02*
D03*
X-201693D02*
D03*
X-191693D02*
D03*
X-53898D02*
D03*
X-63898D02*
D03*
X-83898D02*
D03*
X-73898D02*
D03*
X-63898Y-46000D02*
D03*
X-73898D02*
D03*
X63898D02*
D03*
X73898D02*
D03*
X63898Y46000D02*
D03*
X53898D02*
D03*
X73898D02*
D03*
X83898D02*
D03*
X339488Y-46000D02*
D03*
X349488D02*
D03*
X339488Y46000D02*
D03*
X329488D02*
D03*
X349488D02*
D03*
X359488D02*
D03*
X497284D02*
D03*
X487284D02*
D03*
X467283D02*
D03*
X477283D02*
D03*
X487284Y-46000D02*
D03*
X477283D02*
D03*
D23*
X-531496Y-78740D02*
D03*
Y78740D02*
D03*
X531496D02*
D03*
Y-78740D02*
D03*
X0Y78740D02*
D03*
Y-78740D02*
D03*
D24*
X477283Y-70000D02*
D03*
X-280591Y-61500D02*
D03*
X265591Y-45000D02*
D03*
D25*
X487284Y-70000D02*
D03*
X-132795Y25000D02*
D03*
X-142795Y25000D02*
D03*
X-132795Y15000D02*
D03*
X-142795Y15000D02*
D03*
X-132795Y5000D02*
D03*
X-142795Y5000D02*
D03*
X-132795Y-5000D02*
D03*
X-142795D02*
D03*
X-132795Y-15000D02*
D03*
X-142795Y-15000D02*
D03*
X-132795Y-25000D02*
D03*
X-270591Y-61500D02*
D03*
X275591Y-45000D02*
D03*
X285591D02*
D03*
X-275590Y-15000D02*
D03*
Y-5000D02*
D03*
Y5000D02*
D03*
Y15000D02*
D03*
Y25000D02*
D03*
D26*
X-142795Y-25000D02*
D03*
X-275590D02*
D03*
D27*
X118110Y-34646D02*
D03*
X157480D02*
D03*
X118110Y34646D02*
D03*
X157480D02*
D03*
D28*
X33150Y-30500D02*
D03*
Y39500D02*
D03*
Y29500D02*
D03*
Y19500D02*
D03*
Y9500D02*
D03*
Y-500D02*
D03*
Y-10500D02*
D03*
Y-20500D02*
D03*
X-33150Y-30500D02*
D03*
Y-20500D02*
D03*
Y-10500D02*
D03*
Y-500D02*
D03*
Y9500D02*
D03*
Y19500D02*
D03*
Y29500D02*
D03*
Y39500D02*
D03*
M02*
