G04*
G04 #@! TF.GenerationSoftware,Altium Limited,Altium Designer,22.0.2 (36)*
G04*
G04 Layer_Color=32896*
%FSLAX25Y25*%
%MOIN*%
G70*
G04*
G04 #@! TF.SameCoordinates,9B93A529-F559-49E1-94B7-FA4AAFEA3FC9*
G04*
G04*
G04 #@! TF.FilePolarity,Positive*
G04*
G01*
G75*
%ADD10C,0.01000*%
%ADD32C,0.00984*%
%ADD33C,0.00787*%
%ADD34C,0.00800*%
D10*
X110236Y-45276D02*
Y45276D01*
X165354Y-45276D02*
Y45276D01*
X110236Y-45276D02*
X165354D01*
X110236Y45276D02*
X165354D01*
X42500Y-47000D02*
Y47000D01*
X-42500Y-47000D02*
Y47000D01*
X42500D01*
X-42500Y-47000D02*
X42500D01*
X138500Y-64501D02*
X139499Y-63501D01*
X141499D01*
X142498Y-64501D01*
Y-68499D01*
X141499Y-69499D01*
X139499D01*
X138500Y-68499D01*
X133501Y-69499D02*
Y-63501D01*
X136500Y-66500D01*
X132502D01*
X118000Y56499D02*
X118999Y57499D01*
X120999D01*
X121998Y56499D01*
Y52501D01*
X120999Y51501D01*
X118999D01*
X118000Y52501D01*
X112002Y57499D02*
X116000D01*
Y54500D01*
X114001Y55500D01*
X113001D01*
X112002Y54500D01*
Y52501D01*
X113001Y51501D01*
X115001D01*
X116000Y52501D01*
X165500Y90499D02*
X167499D01*
X166499D01*
Y85501D01*
X167499Y84501D01*
X168499D01*
X169498Y85501D01*
X159502Y90499D02*
X163500D01*
Y87500D01*
X161501Y88500D01*
X160501D01*
X159502Y87500D01*
Y85501D01*
X160501Y84501D01*
X162501D01*
X163500Y85501D01*
X495683Y-80600D02*
X501682D01*
Y-77601D01*
X500682Y-76601D01*
X498682D01*
X497683Y-77601D01*
Y-80600D01*
X495683Y-74602D02*
Y-72603D01*
Y-73602D01*
X501682D01*
X500682Y-74602D01*
Y-69604D02*
X501682Y-68604D01*
Y-66605D01*
X500682Y-65605D01*
X499682D01*
X498682Y-66605D01*
Y-67604D01*
Y-66605D01*
X497683Y-65605D01*
X496683D01*
X495683Y-66605D01*
Y-68604D01*
X496683Y-69604D01*
X-128400Y44300D02*
Y50298D01*
X-131399D01*
X-132399Y49298D01*
Y47299D01*
X-131399Y46299D01*
X-128400D01*
X-134398Y44300D02*
X-136397D01*
X-135398D01*
Y50298D01*
X-134398Y49298D01*
X-143395Y44300D02*
X-139396D01*
X-143395Y48299D01*
Y49298D01*
X-142395Y50298D01*
X-140396D01*
X-139396Y49298D01*
X-262191Y-70100D02*
X-256192D01*
Y-67101D01*
X-257192Y-66101D01*
X-259192D01*
X-260191Y-67101D01*
Y-70100D01*
X-262191Y-64102D02*
Y-62103D01*
Y-63102D01*
X-256192D01*
X-257192Y-64102D01*
X-262191Y-59104D02*
Y-57104D01*
Y-58104D01*
X-256192D01*
X-257192Y-59104D01*
X293991Y-55600D02*
X299989D01*
Y-52601D01*
X298989Y-51601D01*
X296990D01*
X295990Y-52601D01*
Y-55600D01*
X293991Y-49602D02*
Y-47603D01*
Y-48602D01*
X299989D01*
X298989Y-49602D01*
Y-44604D02*
X299989Y-43604D01*
Y-41605D01*
X298989Y-40605D01*
X294990D01*
X293991Y-41605D01*
Y-43604D01*
X294990Y-44604D01*
X298989D01*
X-269990Y33400D02*
Y39398D01*
X-272990D01*
X-273989Y38398D01*
Y36399D01*
X-272990Y35399D01*
X-269990D01*
X-275989Y34400D02*
X-276988Y33400D01*
X-278988D01*
X-279987Y34400D01*
Y38398D01*
X-278988Y39398D01*
X-276988D01*
X-275989Y38398D01*
Y37399D01*
X-276988Y36399D01*
X-279987D01*
X160901Y54798D02*
X162901D01*
X161901D01*
Y49800D01*
X162901Y48800D01*
X163900D01*
X164900Y49800D01*
X154903Y54798D02*
X156903Y53798D01*
X158902Y51799D01*
Y49800D01*
X157902Y48800D01*
X155903D01*
X154903Y49800D01*
Y50799D01*
X155903Y51799D01*
X158902D01*
X304889Y-69901D02*
Y-71901D01*
Y-70901D01*
X299890D01*
X298891Y-71901D01*
Y-72900D01*
X299890Y-73900D01*
X298891Y-64903D02*
X304889D01*
X301890Y-67902D01*
Y-63903D01*
X-35999Y59198D02*
X-33999D01*
X-34999D01*
Y54200D01*
X-33999Y53200D01*
X-33000D01*
X-32000Y54200D01*
X-37998Y58198D02*
X-38998Y59198D01*
X-40997D01*
X-41997Y58198D01*
Y57199D01*
X-40997Y56199D01*
X-39997D01*
X-40997D01*
X-41997Y55199D01*
Y54200D01*
X-40997Y53200D01*
X-38998D01*
X-37998Y54200D01*
D32*
X155512Y79567D02*
G03*
X155512Y79567I-492J0D01*
G01*
X254528Y-77264D02*
G03*
X254528Y-77264I-492J0D01*
G01*
D33*
X130495Y-59000D02*
X135827D01*
X130495Y-51000D02*
X135827D01*
X130445Y-58937D02*
Y-51063D01*
X145195Y-58937D02*
Y-51063D01*
X139764Y-59000D02*
X145195D01*
X139764Y-51000D02*
X145195D01*
X130495Y51000D02*
X135827D01*
X130495Y59000D02*
X135827D01*
X130445Y51063D02*
Y58937D01*
X145195Y51063D02*
Y58937D01*
X139764Y51000D02*
X145195D01*
X139764Y59000D02*
X145195D01*
X123228Y88819D02*
X152362D01*
X123228Y66181D02*
Y88819D01*
Y66181D02*
X152362D01*
Y88819D01*
X492283Y-75000D02*
Y-65000D01*
X472284D02*
X492283D01*
X472284Y-75000D02*
Y-65000D01*
Y-75000D02*
X492283D01*
X-147795Y-30000D02*
X-147795Y30000D01*
X-127795Y30000D01*
X-127795Y-30000D02*
X-127795Y30000D01*
X-147795Y-30000D02*
X-127795Y-30000D01*
X-265591Y-66500D02*
Y-56500D01*
X-285591D02*
X-265591D01*
X-285591Y-66500D02*
Y-56500D01*
Y-66500D02*
X-265591D01*
X260591Y-40000D02*
X290591D01*
Y-50000D02*
Y-40000D01*
X260591Y-50000D02*
X290591D01*
X260591D02*
Y-40000D01*
X-280591Y30000D02*
X-270590D01*
X-280591Y-30000D02*
X-270590D01*
Y30000D01*
X-280591Y-30000D02*
Y30000D01*
X256102Y-86319D02*
Y-63681D01*
X295079D01*
Y-86319D02*
Y-63681D01*
X256102Y-86319D02*
X295079D01*
D34*
X-134795Y33000D02*
Y34666D01*
Y33833D01*
X-129797D01*
X-130630Y33000D01*
X-134795Y40498D02*
Y37165D01*
X-131463Y40498D01*
X-130630D01*
X-129797Y39665D01*
Y37998D01*
X-130630Y37165D01*
X-144795Y37000D02*
Y38666D01*
Y37833D01*
X-139797D01*
X-140630Y37000D01*
X-144795Y33000D02*
Y34666D01*
Y33833D01*
X-139797D01*
X-140630Y33000D01*
X-144795Y-35000D02*
Y-33334D01*
Y-34167D01*
X-139797D01*
X-140630Y-35000D01*
X-134795Y-31668D02*
Y-35000D01*
X-131463Y-31668D01*
X-130630D01*
X-129797Y-32501D01*
Y-34167D01*
X-130630Y-35000D01*
M02*
